<svg preserveAspectRatio="none" width="100%" height="100%" overflow="visible" style="display: block;" viewBox="0 0 40 40" fill="none" xmlns="http://www.w3.org/2000/svg">
<g id="Leaf">
<path id="Vector" d="M34.9148 6.26112C34.8969 5.95531 34.7674 5.66671 34.5508 5.45011C34.3342 5.2335 34.0456 5.10398 33.7398 5.08612C21.8444 4.38768 12.3163 7.96893 8.25382 14.6877C6.84564 16.986 6.15172 19.6507 6.26007 22.3439C6.34913 24.8314 7.07413 27.3439 8.41476 29.8205L5.36632 32.8674C5.13177 33.1019 5 33.42 5 33.7517C5 34.0834 5.13177 34.4016 5.36632 34.6361C5.60087 34.8707 5.91899 35.0024 6.25069 35.0024C6.5824 35.0024 6.90052 34.8707 7.13507 34.6361L10.1819 31.5877C12.6569 32.9267 15.171 33.6517 17.6569 33.7408C17.8309 33.7471 18.0043 33.7502 18.1773 33.7502C20.6956 33.7569 23.1662 33.0634 25.3132 31.7471C32.0319 27.6846 35.6148 18.158 34.9148 6.26112ZM24.0241 29.6096C20.4694 31.7627 16.2616 31.7971 12.0382 29.7299L25.8866 15.883C26.0028 15.7669 26.0949 15.629 26.1578 15.4772C26.2206 15.3255 26.253 15.1629 26.253 14.9986C26.253 14.8344 26.2206 14.6717 26.1578 14.52C26.0949 14.3683 26.0028 14.2304 25.8866 14.1142C25.7705 13.9981 25.6326 13.906 25.4809 13.8431C25.3291 13.7803 25.1665 13.7479 25.0023 13.7479C24.838 13.7479 24.6754 13.7803 24.5236 13.8431C24.3719 13.906 24.234 13.9981 24.1179 14.1142L10.271 27.9689C8.21007 23.7502 8.23976 19.5314 10.3913 15.983C13.8429 10.2846 22.0476 7.16424 32.471 7.53612C32.8444 17.9517 29.7226 26.158 24.0241 29.6096Z" fill="var(--fill-0, #00AF5A)"/>
</g>
</svg>
