<svg preserveAspectRatio="none" width="100%" height="100%" overflow="visible" style="display: block;" viewBox="0 0 40 40" fill="none" xmlns="http://www.w3.org/2000/svg">
<g id="ShieldSlash">
<path id="Vector" d="M8.425 5.40776C8.23703 5.20162 7.98549 5.06428 7.71044 5.01761C7.43539 4.97095 7.15264 5.01763 6.90719 5.15024C6.66174 5.28285 6.4677 5.49375 6.35597 5.74938C6.24424 6.00501 6.22124 6.29067 6.29062 6.56089C5.8997 6.77696 5.5738 7.09383 5.34683 7.47853C5.11985 7.86323 5.00009 8.30172 5 8.74839V17.4984C5 25.7359 8.9875 30.7281 12.3328 33.4656C15.9359 36.4125 19.5203 37.414 19.6766 37.4546C19.8914 37.5131 20.118 37.5131 20.3328 37.4546C20.5453 37.3968 25.2188 36.0828 29.2531 32.0296L31.5797 34.589C31.6895 34.7128 31.8227 34.8135 31.9717 34.8853C32.1207 34.9572 32.2824 34.9988 32.4476 35.0077C32.6128 35.0166 32.7781 34.9926 32.9339 34.9371C33.0898 34.8816 33.233 34.7958 33.3555 34.6845C33.4779 34.5733 33.577 34.4389 33.6471 34.289C33.7171 34.1392 33.7568 33.9769 33.7637 33.8117C33.7706 33.6464 33.7446 33.4814 33.6873 33.3262C33.63 33.1711 33.5424 33.0288 33.4297 32.9078L8.425 5.40776ZM19.9984 34.939C17.7881 34.1664 15.73 33.0131 13.9172 31.5312C9.65937 28.0468 7.5 23.3265 7.5 17.4984V8.74839H8.07969L27.5641 30.1781C25.4299 32.31 22.8453 33.9368 20 34.939H19.9984ZM35 8.74839V17.4984C35 20.714 34.3922 23.6875 33.1938 26.3406C33.0572 26.6427 32.8062 26.8782 32.4961 26.9952C32.1859 27.1123 31.8419 27.1013 31.5398 26.9648C31.2377 26.8283 31.0023 26.5773 30.8852 26.2671C30.7681 25.957 30.7791 25.613 30.9156 25.3109C31.9672 22.9843 32.5 20.3562 32.5 17.4984V8.74839H15.3937C15.0622 8.74839 14.7443 8.61669 14.5099 8.38227C14.2754 8.14785 14.1437 7.82991 14.1437 7.49839C14.1437 7.16687 14.2754 6.84892 14.5099 6.6145C14.7443 6.38008 15.0622 6.24839 15.3937 6.24839H32.5C33.163 6.24839 33.7989 6.51178 34.2678 6.98062C34.7366 7.44946 35 8.08535 35 8.74839Z" fill="var(--fill-0, #00AF5A)"/>
</g>
</svg>
