<svg width="40" height="40" viewBox="0 0 40 40" fill="none" xmlns="http://www.w3.org/2000/svg">
<path d="M32.9541 4.05166H29.6902C29.3067 4.05166 28.9991 3.74048 28.9991 3.36054V3.28093C28.9991 2.44145 28.3478 2 27.7037 2C27.0596 2 26.4083 2.44145 26.4083 3.28093V3.36054C26.4083 3.7441 26.0971 4.05166 25.7172 4.05166H14.2792C13.8956 4.05166 13.5881 3.74048 13.5881 3.36054V3.28093C13.5881 2.44145 12.9368 2 12.2927 2C11.6486 2 10.9973 2.44145 10.9973 3.28093V3.36054C10.9973 3.7441 10.6861 4.05166 10.3061 4.05166H7.04592C4.25971 4.05166 1.99457 6.31682 1.99457 9.10303V32.9486C1.99457 35.7348 4.25971 38 7.04592 38H32.9541C35.7439 38 38.0054 35.7385 38.0054 32.9486V9.10303C38.0054 6.3132 35.7439 4.05166 32.9541 4.05166ZM4.58175 9.10303C4.58175 7.74249 5.68176 6.64248 7.04229 6.64248H9.96601C10.5341 6.64248 10.9973 7.10564 10.9973 7.67374V8.44085C10.9973 9.28033 11.6486 9.72178 12.2927 9.72178C12.9368 9.72178 13.5881 9.28033 13.5881 8.44085V7.67374C13.5881 7.10564 14.0512 6.64248 14.6193 6.64248H25.377C25.9451 6.64248 26.4083 7.10564 26.4083 7.67374V8.44085C26.4083 9.28033 27.0596 9.72178 27.7037 9.72178C28.3478 9.72178 28.9991 9.28033 28.9991 8.44085V7.67374C28.9991 7.10564 29.4622 6.64248 30.0303 6.64248H32.9541C34.3146 6.64248 35.4146 7.74249 35.4146 9.10303V11.4333C35.4146 12.3452 34.6764 13.0833 33.7646 13.0833H6.23539C5.32354 13.0833 4.58537 12.3452 4.58537 11.4333V9.10303H4.58175ZM32.9504 35.4092H7.04592C5.68538 35.4092 4.58175 34.3056 4.58175 32.945V17.3242C4.58175 16.4123 5.31991 15.6741 6.23176 15.6741H33.761C34.6728 15.6741 35.411 16.4123 35.411 17.3242V32.945C35.411 34.3056 34.3074 35.4092 32.9468 35.4092H32.9504Z" fill="#3478F6"/>
<path d="M13.3849 18.6914H9.87864C9.34106 18.6914 8.90527 19.1272 8.90527 19.6648V23.1747C8.90527 23.7122 9.34106 24.148 9.87864 24.148H13.3849C13.9225 24.148 14.3583 23.7122 14.3583 23.1747V19.6648C14.3583 19.1272 13.9225 18.6914 13.3849 18.6914Z" fill="#3478F6"/>
<path d="M21.7508 18.6914H18.2445C17.7069 18.6914 17.2712 19.1272 17.2712 19.6648V23.1747C17.2712 23.7122 17.7069 24.148 18.2445 24.148H21.7508C22.2884 24.148 22.7242 23.7122 22.7242 23.1747V19.6648C22.7242 19.1272 22.2884 18.6914 21.7508 18.6914Z" fill="#3478F6"/>
<path d="M30.1167 18.6914H26.6104C26.0729 18.6914 25.6371 19.1272 25.6371 19.6648V23.1747C25.6371 23.7122 26.0729 24.148 26.6104 24.148H30.1167C30.6543 24.148 31.0901 23.7122 31.0901 23.1747V19.6648C31.0901 19.1272 30.6543 18.6914 30.1167 18.6914Z" fill="#3478F6"/>
<path d="M13.3849 27.0574H9.87864C9.34106 27.0574 8.90527 27.4932 8.90527 28.0307V31.5406C8.90527 32.0782 9.34106 32.514 9.87864 32.514H13.3849C13.9225 32.514 14.3583 32.0782 14.3583 31.5406V28.0307C14.3583 27.4932 13.9225 27.0574 13.3849 27.0574Z" fill="#3478F6"/>
<path d="M21.7508 27.0574H18.2445C17.7069 27.0574 17.2712 27.4932 17.2712 28.0307V31.5406C17.2712 32.0782 17.7069 32.514 18.2445 32.514H21.7508C22.2884 32.514 22.7242 32.0782 22.7242 31.5406V28.0307C22.7242 27.4932 22.2884 27.0574 21.7508 27.0574Z" fill="#3478F6"/>
<path d="M30.1167 27.0574H26.6104C26.0729 27.0574 25.6371 27.4932 25.6371 28.0307V31.5406C25.6371 32.0782 26.0729 32.514 26.6104 32.514H30.1167C30.6543 32.514 31.0901 32.0782 31.0901 31.5406V28.0307C31.0901 27.4932 30.6543 27.0574 30.1167 27.0574Z" fill="#3478F6"/>
</svg>
