<svg width="223" height="223" viewBox="0 0 223 223" fill="none" xmlns="http://www.w3.org/2000/svg">
<g opacity="0.1" filter="url(#filter0_f_294_364)">
<rect x="46.0338" y="74.4997" width="105.787" height="105.787" transform="rotate(-15.61 46.0338 74.4997)" fill="url(#paint0_linear_294_364)"/>
</g>
<g filter="url(#filter1_ii_294_364)">
<rect x="55.0103" y="79.551" width="91.2124" height="91.2124" rx="22.8031" transform="rotate(-15.61 55.0103 79.551)" fill="white"/>
<rect x="55.8884" y="80.0455" width="89.7872" height="89.7872" rx="22.0905" transform="rotate(-15.61 55.8884 80.0455)" stroke="#E9E9E9" stroke-width="1.42519"/>
<path d="M135.972 109.285C134.481 104.241 129.584 98.9775 122.354 99.3385C117.485 99.5665 114.26 102.065 112.436 104.055C112.023 104.511 111.419 104.744 110.802 104.701L110.788 104.701C110.46 104.678 110.142 104.568 109.866 104.393C107.059 102.578 107.529 100.507 108.17 97.6903C108.797 94.902 109.652 91.083 105.487 88.689C102.309 86.8602 98.4044 87.7485 95.3074 91.007C91.6879 94.8118 89.5741 101.685 93.4882 107.784C96.1482 111.945 100.005 113.47 102.651 114.026C103.192 114.14 103.644 114.505 103.886 115.004L103.9 115.037C104.047 115.337 104.114 115.669 104.1 116.002C103.962 119.417 101.919 120.049 99.1597 120.894C96.4284 121.74 92.6901 122.894 92.6996 127.715C92.7091 131.382 95.4309 134.318 99.7962 135.372C100.841 135.624 101.948 135.752 103.093 135.752C108.365 135.752 112.906 133.059 115.238 128.546C117.523 124.119 116.901 120.015 116.046 117.465C115.875 116.947 115.984 116.391 116.283 115.94C116.288 115.93 116.298 115.921 116.302 115.911C116.473 115.655 116.697 115.441 116.967 115.294C120.026 113.655 121.608 115.109 123.746 117.089C125.261 118.486 127.147 120.224 129.622 120.224C130.7 120.224 131.769 119.911 132.885 119.26C135.212 117.916 136.466 115.498 136.466 112.596C136.466 111.546 136.3 110.435 135.963 109.285L135.972 109.285ZM110.355 108.459C112.255 108.459 113.804 109.998 113.804 111.893C113.804 113.788 112.255 115.327 110.355 115.327C108.455 115.327 106.921 113.788 106.921 111.893C106.921 109.998 108.465 108.459 110.355 108.459ZM111.02 119.065C111.932 118.98 112.764 119.569 112.901 120.476C113.163 122.153 113.11 124.314 112.023 126.57L111.885 126.827C109.491 131.468 104.399 132.608 100.68 131.705C98.6467 131.211 96.4711 129.9 96.4616 127.706C96.4616 125.92 97.2312 125.445 100.271 124.499C102.561 123.787 105.572 122.861 107.026 119.84C107.368 119.127 108.161 118.78 108.93 118.947C109.619 119.094 110.322 119.132 111.02 119.065ZM103.8 108.948C103.439 109.751 102.513 110.145 101.691 109.831C100.048 109.2 98.1052 108.007 96.6612 105.756C93.8397 101.357 95.4024 96.3745 98.0434 93.6053C99.0932 92.4937 100.561 91.539 102.024 91.539C102.561 91.539 103.093 91.6672 103.606 91.9617C105.24 92.8975 105.164 93.9283 104.494 96.8733C103.967 99.2103 103.273 102.279 105.154 105.048C105.582 105.675 105.525 106.521 105.016 107.086C104.508 107.651 104.109 108.269 103.8 108.948ZM130.999 116.006C129.46 116.909 128.667 116.486 126.32 114.32C124.644 112.781 122.473 110.786 119.418 110.786C119.266 110.786 119.11 110.791 118.948 110.8C118.169 110.853 117.438 110.411 117.195 109.67C116.953 108.929 116.621 108.302 116.184 107.699C115.656 106.972 115.799 105.96 116.502 105.4C117.879 104.298 119.879 103.234 122.53 103.115C127.75 102.892 131.279 106.711 132.353 110.363C132.947 112.373 132.904 114.914 130.999 116.011L130.999 116.006Z" fill="url(#paint1_linear_294_364)"/>
</g>
<defs>
<filter id="filter0_f_294_364" x="-3.8147e-06" y="-3.8147e-06" width="222.418" height="222.418" filterUnits="userSpaceOnUse" color-interpolation-filters="sRGB">
<feFlood flood-opacity="0" result="BackgroundImageFix"/>
<feBlend mode="normal" in="SourceGraphic" in2="BackgroundImageFix" result="shape"/>
<feGaussianBlur stdDeviation="23.0169" result="effect1_foregroundBlur_294_364"/>
</filter>
<filter id="filter1_ii_294_364" x="49.3096" y="52.1564" width="120.943" height="118.093" filterUnits="userSpaceOnUse" color-interpolation-filters="sRGB">
<feFlood flood-opacity="0" result="BackgroundImageFix"/>
<feBlend mode="normal" in="SourceGraphic" in2="BackgroundImageFix" result="shape"/>
<feColorMatrix in="SourceAlpha" type="matrix" values="0 0 0 0 0 0 0 0 0 0 0 0 0 0 0 0 0 0 127 0" result="hardAlpha"/>
<feOffset dx="-5.70078" dy="-2.85039"/>
<feGaussianBlur stdDeviation="2.85039"/>
<feComposite in2="hardAlpha" operator="arithmetic" k2="-1" k3="1"/>
<feColorMatrix type="matrix" values="0 0 0 0 0 0 0 0 0 0 0 0 0 0 0 0 0 0 0.15 0"/>
<feBlend mode="normal" in2="shape" result="effect1_innerShadow_294_364"/>
<feColorMatrix in="SourceAlpha" type="matrix" values="0 0 0 0 0 0 0 0 0 0 0 0 0 0 0 0 0 0 127 0" result="hardAlpha"/>
<feOffset dx="2.85039" dy="2.85039"/>
<feGaussianBlur stdDeviation="2.85039"/>
<feComposite in2="hardAlpha" operator="arithmetic" k2="-1" k3="1"/>
<feColorMatrix type="matrix" values="0 0 0 0 1 0 0 0 0 1 0 0 0 0 1 0 0 0 0.08 0"/>
<feBlend mode="normal" in2="effect1_innerShadow_294_364" result="effect2_innerShadow_294_364"/>
</filter>
<linearGradient id="paint0_linear_294_364" x1="46.0338" y1="180.286" x2="190.507" y2="35.5947" gradientUnits="userSpaceOnUse">
<stop offset="0.22" stop-color="#1265FF"/>
<stop offset="0.73" stop-color="#69CDEB"/>
<stop offset="1" stop-color="#4466FF"/>
</linearGradient>
<linearGradient id="paint1_linear_294_364" x1="91.3892" y1="135.752" x2="156.82" y2="74.2128" gradientUnits="userSpaceOnUse">
<stop offset="0.22" stop-color="#1265FF"/>
<stop offset="0.73" stop-color="#69CDEB"/>
<stop offset="1" stop-color="#4466FF"/>
</linearGradient>
</defs>
</svg>
