<svg width="223" height="223" viewBox="0 0 223 223" fill="none" xmlns="http://www.w3.org/2000/svg">
<g opacity="0.1" filter="url(#filter0_f_9_24)">
<rect x="74.4997" y="46.0338" width="105.787" height="105.787" transform="rotate(15.61 74.4997 46.0338)" fill="url(#paint0_linear_9_24)"/>
</g>
<g filter="url(#filter1_ii_9_24)">
<rect x="79.5505" y="55.0069" width="91.2124" height="91.2124" rx="22.8031" transform="rotate(15.61 79.5505 55.0069)" fill="white"/>
<rect x="80.045" y="55.885" width="89.7872" height="89.7872" rx="22.0905" transform="rotate(15.61 80.045 55.885)" stroke="#E9E9E9" stroke-width="1.42519"/>
<path d="M130.947 120.776C130.893 121.498 130.384 122.264 129.383 122.348L124.867 122.27C124.677 122.266 124.503 122.379 124.428 122.56C124.353 122.74 124.392 122.933 124.531 123.07C124.864 123.389 125.217 123.708 125.562 124.021L125.659 124.112C126.452 124.825 127.351 125.631 127.948 126.412C128.28 126.843 128.42 127.378 128.329 127.878C128.194 128.661 127.622 129.233 126.871 129.337C126.19 129.437 125.787 129.069 125.349 128.666L125.255 128.581C124.614 127.994 124.009 127.344 123.424 126.714L123.304 126.582C122.94 126.181 122.603 125.822 122.26 125.466C122.122 125.329 121.928 125.284 121.75 125.358C121.574 125.426 121.461 125.586 121.457 125.776L121.332 130.442C121.115 131.27 120.419 131.792 119.603 131.741C118.905 131.693 118.13 131.197 117.998 130.193L118.037 122.405C118.04 121.659 117.759 120.957 117.241 120.439L112.938 116.064C112.728 115.848 112.431 115.77 112.146 115.843C111.86 115.915 111.637 116.133 111.558 116.415L109.909 122.319C109.708 123.039 109.797 123.791 110.166 124.439L113.92 131.096C114.309 131.883 114.1 132.787 113.419 133.294C112.751 133.785 111.89 133.721 111.278 133.153L111.206 133.059L108.862 129.02C108.765 128.856 108.589 128.767 108.4 128.793C108.206 128.817 108.057 128.948 108.006 129.13L106.687 133.849C106.602 134.155 106.377 134.416 106.041 134.597C105.613 134.831 105.041 134.907 104.618 134.789L104.581 134.778C103.962 134.586 103.168 133.701 103.385 132.927L104.707 128.193C104.759 128.007 104.699 127.818 104.55 127.702C104.498 127.659 104.441 127.633 104.382 127.616C104.268 127.585 104.147 127.595 104.038 127.653L99.736 129.972L99.6322 129.992C98.8348 130.069 98.1299 129.622 97.8786 128.869C97.6121 128.082 97.9088 127.266 98.6125 126.839L105.292 123.077C105.937 122.717 106.404 122.121 106.606 121.396L108.256 115.493C108.335 115.21 108.261 114.91 108.05 114.698C107.845 114.484 107.549 114.401 107.262 114.478L101.321 115.986C100.597 116.167 99.9951 116.617 99.6148 117.258L95.6146 123.929C94.9786 124.729 94.0633 124.753 93.4363 124.43C92.709 124.046 92.3846 123.238 92.6223 122.44L94.9408 118.378C95.0327 118.207 95.0185 118.012 94.9046 117.857C94.7894 117.707 94.6019 117.64 94.4157 117.691C94.0031 117.797 93.5925 117.913 93.1865 118.03L92.9147 118.106C92.0436 118.359 91.1413 118.618 90.2412 118.799L90.1166 118.823C89.5027 118.946 88.9257 119.06 88.3599 118.518C87.9417 118.117 87.757 117.53 87.8673 116.942C87.9851 116.327 88.3973 115.818 88.9729 115.586C89.9004 115.202 91.2063 114.958 92.3531 114.738L92.4627 114.714C92.8872 114.636 93.3142 114.549 93.7263 114.463C93.919 114.424 94.0539 114.275 94.0879 114.083C94.1173 113.89 94.0272 113.703 93.8635 113.603L89.7783 111.209C89.1733 110.633 89.05 109.773 89.4689 109.065C89.891 108.363 90.6897 108.07 91.4644 108.321L98.3719 112.373C99.0031 112.75 99.745 112.854 100.458 112.675L106.507 111.168C106.799 111.093 107.02 110.88 107.102 110.588C107.183 110.296 107.104 109.999 106.893 109.788L102.483 105.359C101.96 104.839 101.275 104.55 100.555 104.54L92.6889 104.395C91.8589 104.237 91.2881 103.626 91.2399 102.831C91.191 102.022 91.6949 101.308 92.4809 101.062L92.6412 101.033L97.3117 101.085C97.5021 101.089 97.6705 100.979 97.7454 100.799C97.8191 100.623 97.7855 100.427 97.6469 100.29C97.2515 99.8946 96.8425 99.4955 96.44 99.108L96.3975 99.0667C95.635 98.333 94.8456 97.5723 94.1308 96.7734L94.0535 96.6634C93.6807 95.9061 93.7875 95.0666 94.3301 94.5307C94.8527 94.0137 95.6423 93.9298 96.3904 94.3107L96.4425 94.3351L99.9513 97.825C100.085 97.9607 100.281 98.0005 100.454 97.926C100.63 97.8574 100.745 97.693 100.747 97.5072L100.844 93.0651C100.965 92.1756 101.661 91.5646 102.546 91.5809C103.43 91.5972 104.114 92.2254 104.198 93.1033L104.168 100.963C104.163 101.698 104.445 102.396 104.965 102.924L109.268 107.299C109.475 107.509 109.771 107.591 110.056 107.519C110.347 107.443 110.564 107.229 110.645 106.942L112.295 101.033C112.495 100.318 112.404 99.5707 112.04 98.9238L108.288 92.262C107.893 91.4788 108.099 90.5985 108.794 90.0805C109.463 89.5847 110.326 89.644 110.925 90.2045L111.002 90.2995L113.345 94.3427C113.436 94.5059 113.613 94.5945 113.807 94.57C113.994 94.5488 114.144 94.4186 114.196 94.2318L115.514 89.5123C115.732 88.7333 116.868 88.3927 117.493 88.5476C117.935 88.671 118.409 89.049 118.652 89.4608C118.845 89.7897 118.904 90.1253 118.817 90.4351L117.499 95.1546C117.446 95.3414 117.507 95.5301 117.661 95.6468C117.809 95.7668 118.006 95.7825 118.173 95.6919L122.313 93.4254L122.407 93.4073C123.414 93.2663 124.087 93.8621 124.311 94.5189C124.537 95.1862 124.359 96.089 123.453 96.607L116.91 100.284C116.262 100.653 115.796 101.25 115.597 101.961L113.947 107.865C113.867 108.152 113.946 108.449 114.152 108.663C114.358 108.873 114.654 108.956 114.944 108.885L120.891 107.374C121.604 107.195 122.207 106.744 122.59 106.11L126.636 99.3822C127.169 98.6669 128.077 98.4784 128.84 98.9274C129.6 99.3706 129.884 100.255 129.527 101.074L127.307 104.923C127.212 105.088 127.221 105.287 127.336 105.437C127.451 105.587 127.637 105.658 127.822 105.612L132.591 104.45L132.689 104.452C133.517 104.512 134.145 104.987 134.333 105.688C134.521 106.403 134.199 107.168 133.526 107.628L133.391 107.688C132.331 108.036 131.24 108.286 130.028 108.561C129.525 108.676 129.01 108.797 128.504 108.921C128.313 108.971 128.178 109.12 128.15 109.308C128.12 109.501 128.208 109.678 128.377 109.779L132.468 112.185L132.534 112.247C133.077 112.87 133.136 113.732 132.675 114.398C132.22 115.062 131.412 115.298 130.635 115.002L123.885 111.019C123.245 110.639 122.474 110.532 121.771 110.728C120.707 111.005 119.593 111.264 118.545 111.501C117.605 111.72 116.602 111.951 115.633 112.201C115.342 112.276 115.124 112.495 115.044 112.782C114.963 113.069 115.043 113.366 115.254 113.578L119.696 118.05C120.208 118.572 120.898 118.863 121.637 118.873L129.631 118.984C129.663 118.993 129.694 119.002 129.726 119.011C130.505 119.229 130.999 119.956 130.946 120.781L130.947 120.776Z" fill="#3478F6"/>
</g>
<defs>
<filter id="filter0_f_9_24" x="-1.90735e-05" y="1.14441e-05" width="222.418" height="222.418" filterUnits="userSpaceOnUse" color-interpolation-filters="sRGB">
<feFlood flood-opacity="0" result="BackgroundImageFix"/>
<feBlend mode="normal" in="SourceGraphic" in2="BackgroundImageFix" result="shape"/>
<feGaussianBlur stdDeviation="23.0169" result="effect1_foregroundBlur_9_24"/>
</filter>
<filter id="filter1_ii_9_24" x="49.3055" y="52.1565" width="120.943" height="118.093" filterUnits="userSpaceOnUse" color-interpolation-filters="sRGB">
<feFlood flood-opacity="0" result="BackgroundImageFix"/>
<feBlend mode="normal" in="SourceGraphic" in2="BackgroundImageFix" result="shape"/>
<feColorMatrix in="SourceAlpha" type="matrix" values="0 0 0 0 0 0 0 0 0 0 0 0 0 0 0 0 0 0 127 0" result="hardAlpha"/>
<feOffset dx="-5.70078" dy="-2.85039"/>
<feGaussianBlur stdDeviation="2.85039"/>
<feComposite in2="hardAlpha" operator="arithmetic" k2="-1" k3="1"/>
<feColorMatrix type="matrix" values="0 0 0 0 0 0 0 0 0 0 0 0 0 0 0 0 0 0 0.15 0"/>
<feBlend mode="normal" in2="shape" result="effect1_innerShadow_9_24"/>
<feColorMatrix in="SourceAlpha" type="matrix" values="0 0 0 0 0 0 0 0 0 0 0 0 0 0 0 0 0 0 127 0" result="hardAlpha"/>
<feOffset dx="2.85039" dy="2.85039"/>
<feGaussianBlur stdDeviation="2.85039"/>
<feComposite in2="hardAlpha" operator="arithmetic" k2="-1" k3="1"/>
<feColorMatrix type="matrix" values="0 0 0 0 1 0 0 0 0 1 0 0 0 0 1 0 0 0 0.08 0"/>
<feBlend mode="normal" in2="effect1_innerShadow_9_24" result="effect2_innerShadow_9_24"/>
</filter>
<linearGradient id="paint0_linear_9_24" x1="74.4997" y1="151.821" x2="218.973" y2="7.12873" gradientUnits="userSpaceOnUse">
<stop offset="0.22" stop-color="#1265FF"/>
<stop offset="0.73" stop-color="#69CDEB"/>
<stop offset="1" stop-color="#4466FF"/>
</linearGradient>
</defs>
</svg>
