<svg width="1440" height="928" viewBox="0 0 1440 928" fill="none" xmlns="http://www.w3.org/2000/svg">
<mask id="mask0_294_5" style="mask-type:alpha" maskUnits="userSpaceOnUse" x="-1" y="-242" width="1440" height="1440">
<rect width="1440" height="921" transform="translate(-1 -2)" fill="url(#paint0_radial_294_5)"/>
<rect width="1440" height="1440" transform="translate(-1 -242)" fill="url(#paint1_radial_294_5)"/>
</mask>
<g mask="url(#mask0_294_5)">
<g opacity="0.2">
<g clip-path="url(#clip0_294_5)">
<mask id="path-3-inside-1_294_5" fill="white">
<path d="M-95 -50H1V46H-95V-50Z"/>
</mask>
<path d="M1 46V47H2V46H1ZM1 -50H0V46H1H2V-50H1ZM1 46V45H-95V46V47H1V46Z" fill="#D0D5DD" mask="url(#path-3-inside-1_294_5)"/>
<mask id="path-5-inside-2_294_5" fill="white">
<path d="M1 -50H97V46H1V-50Z"/>
</mask>
<path d="M97 46V47H98V46H97ZM97 -50H96V46H97H98V-50H97ZM97 46V45H1V46V47H97V46Z" fill="#D0D5DD" mask="url(#path-5-inside-2_294_5)"/>
<mask id="path-7-inside-3_294_5" fill="white">
<path d="M97 -50H193V46H97V-50Z"/>
</mask>
<path d="M193 46V47H194V46H193ZM193 -50H192V46H193H194V-50H193ZM193 46V45H97V46V47H193V46Z" fill="#D0D5DD" mask="url(#path-7-inside-3_294_5)"/>
<mask id="path-9-inside-4_294_5" fill="white">
<path d="M193 -50H289V46H193V-50Z"/>
</mask>
<path d="M289 46V47H290V46H289ZM289 -50H288V46H289H290V-50H289ZM289 46V45H193V46V47H289V46Z" fill="#D0D5DD" mask="url(#path-9-inside-4_294_5)"/>
<mask id="path-11-inside-5_294_5" fill="white">
<path d="M289 -50H385V46H289V-50Z"/>
</mask>
<path d="M385 46V47H386V46H385ZM385 -50H384V46H385H386V-50H385ZM385 46V45H289V46V47H385V46Z" fill="#D0D5DD" mask="url(#path-11-inside-5_294_5)"/>
<mask id="path-13-inside-6_294_5" fill="white">
<path d="M385 -50H481V46H385V-50Z"/>
</mask>
<path d="M481 46V47H482V46H481ZM481 -50H480V46H481H482V-50H481ZM481 46V45H385V46V47H481V46Z" fill="#D0D5DD" mask="url(#path-13-inside-6_294_5)"/>
<mask id="path-15-inside-7_294_5" fill="white">
<path d="M481 -50H577V46H481V-50Z"/>
</mask>
<path d="M481 -50H577V46H481V-50Z" fill="#F2F4F7"/>
<path d="M577 46V47H578V46H577ZM577 -50H576V46H577H578V-50H577ZM577 46V45H481V46V47H577V46Z" fill="#D0D5DD" mask="url(#path-15-inside-7_294_5)"/>
<mask id="path-17-inside-8_294_5" fill="white">
<path d="M577 -50H673V46H577V-50Z"/>
</mask>
<path d="M673 46V47H674V46H673ZM673 -50H672V46H673H674V-50H673ZM673 46V45H577V46V47H673V46Z" fill="#D0D5DD" mask="url(#path-17-inside-8_294_5)"/>
<mask id="path-19-inside-9_294_5" fill="white">
<path d="M673 -50H769V46H673V-50Z"/>
</mask>
<path d="M769 46V47H770V46H769ZM769 -50H768V46H769H770V-50H769ZM769 46V45H673V46V47H769V46Z" fill="#D0D5DD" mask="url(#path-19-inside-9_294_5)"/>
<mask id="path-21-inside-10_294_5" fill="white">
<path d="M769 -50H865V46H769V-50Z"/>
</mask>
<path d="M865 46V47H866V46H865ZM865 -50H864V46H865H866V-50H865ZM865 46V45H769V46V47H865V46Z" fill="#D0D5DD" mask="url(#path-21-inside-10_294_5)"/>
<mask id="path-23-inside-11_294_5" fill="white">
<path d="M865 -50H961V46H865V-50Z"/>
</mask>
<path d="M865 -50H961V46H865V-50Z" fill="#F2F4F7"/>
<path d="M961 46V47H962V46H961ZM961 -50H960V46H961H962V-50H961ZM961 46V45H865V46V47H961V46Z" fill="#D0D5DD" mask="url(#path-23-inside-11_294_5)"/>
<mask id="path-25-inside-12_294_5" fill="white">
<path d="M961 -50H1057V46H961V-50Z"/>
</mask>
<path d="M1057 46V47H1058V46H1057ZM1057 -50H1056V46H1057H1058V-50H1057ZM1057 46V45H961V46V47H1057V46Z" fill="#D0D5DD" mask="url(#path-25-inside-12_294_5)"/>
<mask id="path-27-inside-13_294_5" fill="white">
<path d="M1057 -50H1153V46H1057V-50Z"/>
</mask>
<path d="M1153 46V47H1154V46H1153ZM1153 -50H1152V46H1153H1154V-50H1153ZM1153 46V45H1057V46V47H1153V46Z" fill="#D0D5DD" mask="url(#path-27-inside-13_294_5)"/>
<mask id="path-29-inside-14_294_5" fill="white">
<path d="M1153 -50H1249V46H1153V-50Z"/>
</mask>
<path d="M1249 46V47H1250V46H1249ZM1249 -50H1248V46H1249H1250V-50H1249ZM1249 46V45H1153V46V47H1249V46Z" fill="#D0D5DD" mask="url(#path-29-inside-14_294_5)"/>
<mask id="path-31-inside-15_294_5" fill="white">
<path d="M1249 -50H1345V46H1249V-50Z"/>
</mask>
<path d="M1345 46V47H1346V46H1345ZM1345 -50H1344V46H1345H1346V-50H1345ZM1345 46V45H1249V46V47H1345V46Z" fill="#D0D5DD" mask="url(#path-31-inside-15_294_5)"/>
<mask id="path-33-inside-16_294_5" fill="white">
<path d="M1345 -50H1441V46H1345V-50Z"/>
</mask>
<path d="M1441 46V47H1442V46H1441ZM1441 -50H1440V46H1441H1442V-50H1441ZM1441 46V45H1345V46V47H1441V46Z" fill="#D0D5DD" mask="url(#path-33-inside-16_294_5)"/>
<mask id="path-35-inside-17_294_5" fill="white">
<path d="M-95 46H1V142H-95V46Z"/>
</mask>
<path d="M1 142V143H2V142H1ZM1 46H0V142H1H2V46H1ZM1 142V141H-95V142V143H1V142Z" fill="#D0D5DD" mask="url(#path-35-inside-17_294_5)"/>
<mask id="path-37-inside-18_294_5" fill="white">
<path d="M1 46H97V142H1V46Z"/>
</mask>
<path d="M1 46H97V142H1V46Z" fill="#F2F4F7"/>
<path d="M97 142V143H98V142H97ZM97 46H96V142H97H98V46H97ZM97 142V141H1V142V143H97V142Z" fill="#D0D5DD" mask="url(#path-37-inside-18_294_5)"/>
<mask id="path-39-inside-19_294_5" fill="white">
<path d="M97 46H193V142H97V46Z"/>
</mask>
<path d="M193 142V143H194V142H193ZM193 46H192V142H193H194V46H193ZM193 142V141H97V142V143H193V142Z" fill="#D0D5DD" mask="url(#path-39-inside-19_294_5)"/>
<mask id="path-41-inside-20_294_5" fill="white">
<path d="M193 46H289V142H193V46Z"/>
</mask>
<path d="M289 142V143H290V142H289ZM289 46H288V142H289H290V46H289ZM289 142V141H193V142V143H289V142Z" fill="#D0D5DD" mask="url(#path-41-inside-20_294_5)"/>
<mask id="path-43-inside-21_294_5" fill="white">
<path d="M289 46H385V142H289V46Z"/>
</mask>
<path d="M385 142V143H386V142H385ZM385 46H384V142H385H386V46H385ZM385 142V141H289V142V143H385V142Z" fill="#D0D5DD" mask="url(#path-43-inside-21_294_5)"/>
<mask id="path-45-inside-22_294_5" fill="white">
<path d="M385 46H481V142H385V46Z"/>
</mask>
<path d="M481 142V143H482V142H481ZM481 46H480V142H481H482V46H481ZM481 142V141H385V142V143H481V142Z" fill="#D0D5DD" mask="url(#path-45-inside-22_294_5)"/>
<mask id="path-47-inside-23_294_5" fill="white">
<path d="M481 46H577V142H481V46Z"/>
</mask>
<path d="M577 142V143H578V142H577ZM577 46H576V142H577H578V46H577ZM577 142V141H481V142V143H577V142Z" fill="#D0D5DD" mask="url(#path-47-inside-23_294_5)"/>
<mask id="path-49-inside-24_294_5" fill="white">
<path d="M577 46H673V142H577V46Z"/>
</mask>
<path d="M673 142V143H674V142H673ZM673 46H672V142H673H674V46H673ZM673 142V141H577V142V143H673V142Z" fill="#D0D5DD" mask="url(#path-49-inside-24_294_5)"/>
<mask id="path-51-inside-25_294_5" fill="white">
<path d="M673 46H769V142H673V46Z"/>
</mask>
<path d="M769 142V143H770V142H769ZM769 46H768V142H769H770V46H769ZM769 142V141H673V142V143H769V142Z" fill="#D0D5DD" mask="url(#path-51-inside-25_294_5)"/>
<mask id="path-53-inside-26_294_5" fill="white">
<path d="M769 46H865V142H769V46Z"/>
</mask>
<path d="M865 142V143H866V142H865ZM865 46H864V142H865H866V46H865ZM865 142V141H769V142V143H865V142Z" fill="#D0D5DD" mask="url(#path-53-inside-26_294_5)"/>
<mask id="path-55-inside-27_294_5" fill="white">
<path d="M865 46H961V142H865V46Z"/>
</mask>
<path d="M961 142V143H962V142H961ZM961 46H960V142H961H962V46H961ZM961 142V141H865V142V143H961V142Z" fill="#D0D5DD" mask="url(#path-55-inside-27_294_5)"/>
<mask id="path-57-inside-28_294_5" fill="white">
<path d="M961 46H1057V142H961V46Z"/>
</mask>
<path d="M1057 142V143H1058V142H1057ZM1057 46H1056V142H1057H1058V46H1057ZM1057 142V141H961V142V143H1057V142Z" fill="#D0D5DD" mask="url(#path-57-inside-28_294_5)"/>
<mask id="path-59-inside-29_294_5" fill="white">
<path d="M1057 46H1153V142H1057V46Z"/>
</mask>
<path d="M1153 142V143H1154V142H1153ZM1153 46H1152V142H1153H1154V46H1153ZM1153 142V141H1057V142V143H1153V142Z" fill="#D0D5DD" mask="url(#path-59-inside-29_294_5)"/>
<mask id="path-61-inside-30_294_5" fill="white">
<path d="M1153 46H1249V142H1153V46Z"/>
</mask>
<path d="M1153 46H1249V142H1153V46Z" fill="#F2F4F7"/>
<path d="M1249 142V143H1250V142H1249ZM1249 46H1248V142H1249H1250V46H1249ZM1249 142V141H1153V142V143H1249V142Z" fill="#D0D5DD" mask="url(#path-61-inside-30_294_5)"/>
<mask id="path-63-inside-31_294_5" fill="white">
<path d="M1249 46H1345V142H1249V46Z"/>
</mask>
<path d="M1345 142V143H1346V142H1345ZM1345 46H1344V142H1345H1346V46H1345ZM1345 142V141H1249V142V143H1345V142Z" fill="#D0D5DD" mask="url(#path-63-inside-31_294_5)"/>
<mask id="path-65-inside-32_294_5" fill="white">
<path d="M1345 46H1441V142H1345V46Z"/>
</mask>
<path d="M1441 142V143H1442V142H1441ZM1441 46H1440V142H1441H1442V46H1441ZM1441 142V141H1345V142V143H1441V142Z" fill="#D0D5DD" mask="url(#path-65-inside-32_294_5)"/>
<mask id="path-67-inside-33_294_5" fill="white">
<path d="M-95 142H1V238H-95V142Z"/>
</mask>
<path d="M1 238V239H2V238H1ZM1 142H0V238H1H2V142H1ZM1 238V237H-95V238V239H1V238Z" fill="#D0D5DD" mask="url(#path-67-inside-33_294_5)"/>
<mask id="path-69-inside-34_294_5" fill="white">
<path d="M1 142H97V238H1V142Z"/>
</mask>
<path d="M97 238V239H98V238H97ZM97 142H96V238H97H98V142H97ZM97 238V237H1V238V239H97V238Z" fill="#D0D5DD" mask="url(#path-69-inside-34_294_5)"/>
<mask id="path-71-inside-35_294_5" fill="white">
<path d="M97 142H193V238H97V142Z"/>
</mask>
<path d="M193 238V239H194V238H193ZM193 142H192V238H193H194V142H193ZM193 238V237H97V238V239H193V238Z" fill="#D0D5DD" mask="url(#path-71-inside-35_294_5)"/>
<mask id="path-73-inside-36_294_5" fill="white">
<path d="M193 142H289V238H193V142Z"/>
</mask>
<path d="M289 238V239H290V238H289ZM289 142H288V238H289H290V142H289ZM289 238V237H193V238V239H289V238Z" fill="#D0D5DD" mask="url(#path-73-inside-36_294_5)"/>
<mask id="path-75-inside-37_294_5" fill="white">
<path d="M289 142H385V238H289V142Z"/>
</mask>
<path d="M385 238V239H386V238H385ZM385 142H384V238H385H386V142H385ZM385 238V237H289V238V239H385V238Z" fill="#D0D5DD" mask="url(#path-75-inside-37_294_5)"/>
<mask id="path-77-inside-38_294_5" fill="white">
<path d="M385 142H481V238H385V142Z"/>
</mask>
<path d="M481 238V239H482V238H481ZM481 142H480V238H481H482V142H481ZM481 238V237H385V238V239H481V238Z" fill="#D0D5DD" mask="url(#path-77-inside-38_294_5)"/>
<mask id="path-79-inside-39_294_5" fill="white">
<path d="M481 142H577V238H481V142Z"/>
</mask>
<path d="M577 238V239H578V238H577ZM577 142H576V238H577H578V142H577ZM577 238V237H481V238V239H577V238Z" fill="#D0D5DD" mask="url(#path-79-inside-39_294_5)"/>
<mask id="path-81-inside-40_294_5" fill="white">
<path d="M577 142H673V238H577V142Z"/>
</mask>
<path d="M577 142H673V238H577V142Z" fill="#F2F4F7"/>
<path d="M673 238V239H674V238H673ZM673 142H672V238H673H674V142H673ZM673 238V237H577V238V239H673V238Z" fill="#D0D5DD" mask="url(#path-81-inside-40_294_5)"/>
<mask id="path-83-inside-41_294_5" fill="white">
<path d="M673 142H769V238H673V142Z"/>
</mask>
<path d="M769 238V239H770V238H769ZM769 142H768V238H769H770V142H769ZM769 238V237H673V238V239H769V238Z" fill="#D0D5DD" mask="url(#path-83-inside-41_294_5)"/>
<mask id="path-85-inside-42_294_5" fill="white">
<path d="M769 142H865V238H769V142Z"/>
</mask>
<path d="M865 238V239H866V238H865ZM865 142H864V238H865H866V142H865ZM865 238V237H769V238V239H865V238Z" fill="#D0D5DD" mask="url(#path-85-inside-42_294_5)"/>
<mask id="path-87-inside-43_294_5" fill="white">
<path d="M865 142H961V238H865V142Z"/>
</mask>
<path d="M961 238V239H962V238H961ZM961 142H960V238H961H962V142H961ZM961 238V237H865V238V239H961V238Z" fill="#D0D5DD" mask="url(#path-87-inside-43_294_5)"/>
<mask id="path-89-inside-44_294_5" fill="white">
<path d="M961 142H1057V238H961V142Z"/>
</mask>
<path d="M1057 238V239H1058V238H1057ZM1057 142H1056V238H1057H1058V142H1057ZM1057 238V237H961V238V239H1057V238Z" fill="#D0D5DD" mask="url(#path-89-inside-44_294_5)"/>
<mask id="path-91-inside-45_294_5" fill="white">
<path d="M1057 142H1153V238H1057V142Z"/>
</mask>
<path d="M1153 238V239H1154V238H1153ZM1153 142H1152V238H1153H1154V142H1153ZM1153 238V237H1057V238V239H1153V238Z" fill="#D0D5DD" mask="url(#path-91-inside-45_294_5)"/>
<mask id="path-93-inside-46_294_5" fill="white">
<path d="M1153 142H1249V238H1153V142Z"/>
</mask>
<path d="M1249 238V239H1250V238H1249ZM1249 142H1248V238H1249H1250V142H1249ZM1249 238V237H1153V238V239H1249V238Z" fill="#D0D5DD" mask="url(#path-93-inside-46_294_5)"/>
<mask id="path-95-inside-47_294_5" fill="white">
<path d="M1249 142H1345V238H1249V142Z"/>
</mask>
<path d="M1345 238V239H1346V238H1345ZM1345 142H1344V238H1345H1346V142H1345ZM1345 238V237H1249V238V239H1345V238Z" fill="#D0D5DD" mask="url(#path-95-inside-47_294_5)"/>
<mask id="path-97-inside-48_294_5" fill="white">
<path d="M1345 142H1441V238H1345V142Z"/>
</mask>
<path d="M1441 238V239H1442V238H1441ZM1441 142H1440V238H1441H1442V142H1441ZM1441 238V237H1345V238V239H1441V238Z" fill="#D0D5DD" mask="url(#path-97-inside-48_294_5)"/>
<mask id="path-99-inside-49_294_5" fill="white">
<path d="M-95 238H1V334H-95V238Z"/>
</mask>
<path d="M1 334V335H2V334H1ZM1 238H0V334H1H2V238H1ZM1 334V333H-95V334V335H1V334Z" fill="#D0D5DD" mask="url(#path-99-inside-49_294_5)"/>
<mask id="path-101-inside-50_294_5" fill="white">
<path d="M1 238H97V334H1V238Z"/>
</mask>
<path d="M97 334V335H98V334H97ZM97 238H96V334H97H98V238H97ZM97 334V333H1V334V335H97V334Z" fill="#D0D5DD" mask="url(#path-101-inside-50_294_5)"/>
<mask id="path-103-inside-51_294_5" fill="white">
<path d="M97 238H193V334H97V238Z"/>
</mask>
<path d="M193 334V335H194V334H193ZM193 238H192V334H193H194V238H193ZM193 334V333H97V334V335H193V334Z" fill="#D0D5DD" mask="url(#path-103-inside-51_294_5)"/>
<mask id="path-105-inside-52_294_5" fill="white">
<path d="M193 238H289V334H193V238Z"/>
</mask>
<path d="M289 334V335H290V334H289ZM289 238H288V334H289H290V238H289ZM289 334V333H193V334V335H289V334Z" fill="#D0D5DD" mask="url(#path-105-inside-52_294_5)"/>
<mask id="path-107-inside-53_294_5" fill="white">
<path d="M289 238H385V334H289V238Z"/>
</mask>
<path d="M289 238H385V334H289V238Z" fill="#F2F4F7"/>
<path d="M385 334V335H386V334H385ZM385 238H384V334H385H386V238H385ZM385 334V333H289V334V335H385V334Z" fill="#D0D5DD" mask="url(#path-107-inside-53_294_5)"/>
<mask id="path-109-inside-54_294_5" fill="white">
<path d="M385 238H481V334H385V238Z"/>
</mask>
<path d="M481 334V335H482V334H481ZM481 238H480V334H481H482V238H481ZM481 334V333H385V334V335H481V334Z" fill="#D0D5DD" mask="url(#path-109-inside-54_294_5)"/>
<mask id="path-111-inside-55_294_5" fill="white">
<path d="M481 238H577V334H481V238Z"/>
</mask>
<path d="M577 334V335H578V334H577ZM577 238H576V334H577H578V238H577ZM577 334V333H481V334V335H577V334Z" fill="#D0D5DD" mask="url(#path-111-inside-55_294_5)"/>
<mask id="path-113-inside-56_294_5" fill="white">
<path d="M577 238H673V334H577V238Z"/>
</mask>
<path d="M673 334V335H674V334H673ZM673 238H672V334H673H674V238H673ZM673 334V333H577V334V335H673V334Z" fill="#D0D5DD" mask="url(#path-113-inside-56_294_5)"/>
<mask id="path-115-inside-57_294_5" fill="white">
<path d="M673 238H769V334H673V238Z"/>
</mask>
<path d="M769 334V335H770V334H769ZM769 238H768V334H769H770V238H769ZM769 334V333H673V334V335H769V334Z" fill="#D0D5DD" mask="url(#path-115-inside-57_294_5)"/>
<mask id="path-117-inside-58_294_5" fill="white">
<path d="M769 238H865V334H769V238Z"/>
</mask>
<path d="M865 334V335H866V334H865ZM865 238H864V334H865H866V238H865ZM865 334V333H769V334V335H865V334Z" fill="#D0D5DD" mask="url(#path-117-inside-58_294_5)"/>
<mask id="path-119-inside-59_294_5" fill="white">
<path d="M865 238H961V334H865V238Z"/>
</mask>
<path d="M865 238H961V334H865V238Z" fill="#F2F4F7"/>
<path d="M961 334V335H962V334H961ZM961 238H960V334H961H962V238H961ZM961 334V333H865V334V335H961V334Z" fill="#D0D5DD" mask="url(#path-119-inside-59_294_5)"/>
<mask id="path-121-inside-60_294_5" fill="white">
<path d="M961 238H1057V334H961V238Z"/>
</mask>
<path d="M1057 334V335H1058V334H1057ZM1057 238H1056V334H1057H1058V238H1057ZM1057 334V333H961V334V335H1057V334Z" fill="#D0D5DD" mask="url(#path-121-inside-60_294_5)"/>
<mask id="path-123-inside-61_294_5" fill="white">
<path d="M1057 238H1153V334H1057V238Z"/>
</mask>
<path d="M1153 334V335H1154V334H1153ZM1153 238H1152V334H1153H1154V238H1153ZM1153 334V333H1057V334V335H1153V334Z" fill="#D0D5DD" mask="url(#path-123-inside-61_294_5)"/>
<mask id="path-125-inside-62_294_5" fill="white">
<path d="M1153 238H1249V334H1153V238Z"/>
</mask>
<path d="M1249 334V335H1250V334H1249ZM1249 238H1248V334H1249H1250V238H1249ZM1249 334V333H1153V334V335H1249V334Z" fill="#D0D5DD" mask="url(#path-125-inside-62_294_5)"/>
<mask id="path-127-inside-63_294_5" fill="white">
<path d="M1249 238H1345V334H1249V238Z"/>
</mask>
<path d="M1345 334V335H1346V334H1345ZM1345 238H1344V334H1345H1346V238H1345ZM1345 334V333H1249V334V335H1345V334Z" fill="#D0D5DD" mask="url(#path-127-inside-63_294_5)"/>
<mask id="path-129-inside-64_294_5" fill="white">
<path d="M1345 238H1441V334H1345V238Z"/>
</mask>
<path d="M1441 334V335H1442V334H1441ZM1441 238H1440V334H1441H1442V238H1441ZM1441 334V333H1345V334V335H1441V334Z" fill="#D0D5DD" mask="url(#path-129-inside-64_294_5)"/>
<mask id="path-131-inside-65_294_5" fill="white">
<path d="M-95 334H1V430H-95V334Z"/>
</mask>
<path d="M1 430V431H2V430H1ZM1 334H0V430H1H2V334H1ZM1 430V429H-95V430V431H1V430Z" fill="#D0D5DD" mask="url(#path-131-inside-65_294_5)"/>
<mask id="path-133-inside-66_294_5" fill="white">
<path d="M1 334H97V430H1V334Z"/>
</mask>
<path d="M97 430V431H98V430H97ZM97 334H96V430H97H98V334H97ZM97 430V429H1V430V431H97V430Z" fill="#D0D5DD" mask="url(#path-133-inside-66_294_5)"/>
<mask id="path-135-inside-67_294_5" fill="white">
<path d="M97 334H193V430H97V334Z"/>
</mask>
<path d="M97 334H193V430H97V334Z" fill="#F2F4F7"/>
<path d="M193 430V431H194V430H193ZM193 334H192V430H193H194V334H193ZM193 430V429H97V430V431H193V430Z" fill="#D0D5DD" mask="url(#path-135-inside-67_294_5)"/>
<mask id="path-137-inside-68_294_5" fill="white">
<path d="M193 334H289V430H193V334Z"/>
</mask>
<path d="M289 430V431H290V430H289ZM289 334H288V430H289H290V334H289ZM289 430V429H193V430V431H289V430Z" fill="#D0D5DD" mask="url(#path-137-inside-68_294_5)"/>
<mask id="path-139-inside-69_294_5" fill="white">
<path d="M289 334H385V430H289V334Z"/>
</mask>
<path d="M385 430V431H386V430H385ZM385 334H384V430H385H386V334H385ZM385 430V429H289V430V431H385V430Z" fill="#D0D5DD" mask="url(#path-139-inside-69_294_5)"/>
<mask id="path-141-inside-70_294_5" fill="white">
<path d="M385 334H481V430H385V334Z"/>
</mask>
<path d="M481 430V431H482V430H481ZM481 334H480V430H481H482V334H481ZM481 430V429H385V430V431H481V430Z" fill="#D0D5DD" mask="url(#path-141-inside-70_294_5)"/>
<mask id="path-143-inside-71_294_5" fill="white">
<path d="M481 334H577V430H481V334Z"/>
</mask>
<path d="M577 430V431H578V430H577ZM577 334H576V430H577H578V334H577ZM577 430V429H481V430V431H577V430Z" fill="#D0D5DD" mask="url(#path-143-inside-71_294_5)"/>
<mask id="path-145-inside-72_294_5" fill="white">
<path d="M577 334H673V430H577V334Z"/>
</mask>
<path d="M673 430V431H674V430H673ZM673 334H672V430H673H674V334H673ZM673 430V429H577V430V431H673V430Z" fill="#D0D5DD" mask="url(#path-145-inside-72_294_5)"/>
<mask id="path-147-inside-73_294_5" fill="white">
<path d="M673 334H769V430H673V334Z"/>
</mask>
<path d="M769 430V431H770V430H769ZM769 334H768V430H769H770V334H769ZM769 430V429H673V430V431H769V430Z" fill="#D0D5DD" mask="url(#path-147-inside-73_294_5)"/>
<mask id="path-149-inside-74_294_5" fill="white">
<path d="M769 334H865V430H769V334Z"/>
</mask>
<path d="M865 430V431H866V430H865ZM865 334H864V430H865H866V334H865ZM865 430V429H769V430V431H865V430Z" fill="#D0D5DD" mask="url(#path-149-inside-74_294_5)"/>
<mask id="path-151-inside-75_294_5" fill="white">
<path d="M865 334H961V430H865V334Z"/>
</mask>
<path d="M961 430V431H962V430H961ZM961 334H960V430H961H962V334H961ZM961 430V429H865V430V431H961V430Z" fill="#D0D5DD" mask="url(#path-151-inside-75_294_5)"/>
<mask id="path-153-inside-76_294_5" fill="white">
<path d="M961 334H1057V430H961V334Z"/>
</mask>
<path d="M1057 430V431H1058V430H1057ZM1057 334H1056V430H1057H1058V334H1057ZM1057 430V429H961V430V431H1057V430Z" fill="#D0D5DD" mask="url(#path-153-inside-76_294_5)"/>
<mask id="path-155-inside-77_294_5" fill="white">
<path d="M1057 334H1153V430H1057V334Z"/>
</mask>
<path d="M1153 430V431H1154V430H1153ZM1153 334H1152V430H1153H1154V334H1153ZM1153 430V429H1057V430V431H1153V430Z" fill="#D0D5DD" mask="url(#path-155-inside-77_294_5)"/>
<mask id="path-157-inside-78_294_5" fill="white">
<path d="M1153 334H1249V430H1153V334Z"/>
</mask>
<path d="M1249 430V431H1250V430H1249ZM1249 334H1248V430H1249H1250V334H1249ZM1249 430V429H1153V430V431H1249V430Z" fill="#D0D5DD" mask="url(#path-157-inside-78_294_5)"/>
<mask id="path-159-inside-79_294_5" fill="white">
<path d="M1249 334H1345V430H1249V334Z"/>
</mask>
<path d="M1345 430V431H1346V430H1345ZM1345 334H1344V430H1345H1346V334H1345ZM1345 430V429H1249V430V431H1345V430Z" fill="#D0D5DD" mask="url(#path-159-inside-79_294_5)"/>
<mask id="path-161-inside-80_294_5" fill="white">
<path d="M1345 334H1441V430H1345V334Z"/>
</mask>
<path d="M1345 334H1441V430H1345V334Z" fill="#F2F4F7"/>
<path d="M1441 430V431H1442V430H1441ZM1441 334H1440V430H1441H1442V334H1441ZM1441 430V429H1345V430V431H1441V430Z" fill="#D0D5DD" mask="url(#path-161-inside-80_294_5)"/>
<mask id="path-163-inside-81_294_5" fill="white">
<path d="M-95 430H1V526H-95V430Z"/>
</mask>
<path d="M1 526V527H2V526H1ZM1 430H0V526H1H2V430H1ZM1 526V525H-95V526V527H1V526Z" fill="#D0D5DD" mask="url(#path-163-inside-81_294_5)"/>
<mask id="path-165-inside-82_294_5" fill="white">
<path d="M1 430H97V526H1V430Z"/>
</mask>
<path d="M97 526V527H98V526H97ZM97 430H96V526H97H98V430H97ZM97 526V525H1V526V527H97V526Z" fill="#D0D5DD" mask="url(#path-165-inside-82_294_5)"/>
<mask id="path-167-inside-83_294_5" fill="white">
<path d="M97 430H193V526H97V430Z"/>
</mask>
<path d="M193 526V527H194V526H193ZM193 430H192V526H193H194V430H193ZM193 526V525H97V526V527H193V526Z" fill="#D0D5DD" mask="url(#path-167-inside-83_294_5)"/>
<mask id="path-169-inside-84_294_5" fill="white">
<path d="M193 430H289V526H193V430Z"/>
</mask>
<path d="M289 526V527H290V526H289ZM289 430H288V526H289H290V430H289ZM289 526V525H193V526V527H289V526Z" fill="#D0D5DD" mask="url(#path-169-inside-84_294_5)"/>
<mask id="path-171-inside-85_294_5" fill="white">
<path d="M289 430H385V526H289V430Z"/>
</mask>
<path d="M385 526V527H386V526H385ZM385 430H384V526H385H386V430H385ZM385 526V525H289V526V527H385V526Z" fill="#D0D5DD" mask="url(#path-171-inside-85_294_5)"/>
<mask id="path-173-inside-86_294_5" fill="white">
<path d="M385 430H481V526H385V430Z"/>
</mask>
<path d="M481 526V527H482V526H481ZM481 430H480V526H481H482V430H481ZM481 526V525H385V526V527H481V526Z" fill="#D0D5DD" mask="url(#path-173-inside-86_294_5)"/>
<mask id="path-175-inside-87_294_5" fill="white">
<path d="M481 430H577V526H481V430Z"/>
</mask>
<path d="M577 526V527H578V526H577ZM577 430H576V526H577H578V430H577ZM577 526V525H481V526V527H577V526Z" fill="#D0D5DD" mask="url(#path-175-inside-87_294_5)"/>
<mask id="path-177-inside-88_294_5" fill="white">
<path d="M577 430H673V526H577V430Z"/>
</mask>
<path d="M577 430H673V526H577V430Z" fill="#F2F4F7"/>
<path d="M673 526V527H674V526H673ZM673 430H672V526H673H674V430H673ZM673 526V525H577V526V527H673V526Z" fill="#D0D5DD" mask="url(#path-177-inside-88_294_5)"/>
<mask id="path-179-inside-89_294_5" fill="white">
<path d="M673 430H769V526H673V430Z"/>
</mask>
<path d="M769 526V527H770V526H769ZM769 430H768V526H769H770V430H769ZM769 526V525H673V526V527H769V526Z" fill="#D0D5DD" mask="url(#path-179-inside-89_294_5)"/>
<mask id="path-181-inside-90_294_5" fill="white">
<path d="M769 430H865V526H769V430Z"/>
</mask>
<path d="M865 526V527H866V526H865ZM865 430H864V526H865H866V430H865ZM865 526V525H769V526V527H865V526Z" fill="#D0D5DD" mask="url(#path-181-inside-90_294_5)"/>
<mask id="path-183-inside-91_294_5" fill="white">
<path d="M865 430H961V526H865V430Z"/>
</mask>
<path d="M961 526V527H962V526H961ZM961 430H960V526H961H962V430H961ZM961 526V525H865V526V527H961V526Z" fill="#D0D5DD" mask="url(#path-183-inside-91_294_5)"/>
<mask id="path-185-inside-92_294_5" fill="white">
<path d="M961 430H1057V526H961V430Z"/>
</mask>
<path d="M1057 526V527H1058V526H1057ZM1057 430H1056V526H1057H1058V430H1057ZM1057 526V525H961V526V527H1057V526Z" fill="#D0D5DD" mask="url(#path-185-inside-92_294_5)"/>
<mask id="path-187-inside-93_294_5" fill="white">
<path d="M1057 430H1153V526H1057V430Z"/>
</mask>
<path d="M1153 526V527H1154V526H1153ZM1153 430H1152V526H1153H1154V430H1153ZM1153 526V525H1057V526V527H1153V526Z" fill="#D0D5DD" mask="url(#path-187-inside-93_294_5)"/>
<mask id="path-189-inside-94_294_5" fill="white">
<path d="M1153 430H1249V526H1153V430Z"/>
</mask>
<path d="M1153 430H1249V526H1153V430Z" fill="#F2F4F7"/>
<path d="M1249 526V527H1250V526H1249ZM1249 430H1248V526H1249H1250V430H1249ZM1249 526V525H1153V526V527H1249V526Z" fill="#D0D5DD" mask="url(#path-189-inside-94_294_5)"/>
<mask id="path-191-inside-95_294_5" fill="white">
<path d="M1249 430H1345V526H1249V430Z"/>
</mask>
<path d="M1345 526V527H1346V526H1345ZM1345 430H1344V526H1345H1346V430H1345ZM1345 526V525H1249V526V527H1345V526Z" fill="#D0D5DD" mask="url(#path-191-inside-95_294_5)"/>
<mask id="path-193-inside-96_294_5" fill="white">
<path d="M1345 430H1441V526H1345V430Z"/>
</mask>
<path d="M1441 526V527H1442V526H1441ZM1441 430H1440V526H1441H1442V430H1441ZM1441 526V525H1345V526V527H1441V526Z" fill="#D0D5DD" mask="url(#path-193-inside-96_294_5)"/>
<mask id="path-195-inside-97_294_5" fill="white">
<path d="M-95 526H1V622H-95V526Z"/>
</mask>
<path d="M1 622V623H2V622H1ZM1 526H0V622H1H2V526H1ZM1 622V621H-95V622V623H1V622Z" fill="#D0D5DD" mask="url(#path-195-inside-97_294_5)"/>
<mask id="path-197-inside-98_294_5" fill="white">
<path d="M1 526H97V622H1V526Z"/>
</mask>
<path d="M97 622V623H98V622H97ZM97 526H96V622H97H98V526H97ZM97 622V621H1V622V623H97V622Z" fill="#D0D5DD" mask="url(#path-197-inside-98_294_5)"/>
<mask id="path-199-inside-99_294_5" fill="white">
<path d="M97 526H193V622H97V526Z"/>
</mask>
<path d="M193 622V623H194V622H193ZM193 526H192V622H193H194V526H193ZM193 622V621H97V622V623H193V622Z" fill="#D0D5DD" mask="url(#path-199-inside-99_294_5)"/>
<mask id="path-201-inside-100_294_5" fill="white">
<path d="M193 526H289V622H193V526Z"/>
</mask>
<path d="M289 622V623H290V622H289ZM289 526H288V622H289H290V526H289ZM289 622V621H193V622V623H289V622Z" fill="#D0D5DD" mask="url(#path-201-inside-100_294_5)"/>
<mask id="path-203-inside-101_294_5" fill="white">
<path d="M289 526H385V622H289V526Z"/>
</mask>
<path d="M289 526H385V622H289V526Z" fill="#F2F4F7"/>
<path d="M385 622V623H386V622H385ZM385 526H384V622H385H386V526H385ZM385 622V621H289V622V623H385V622Z" fill="#D0D5DD" mask="url(#path-203-inside-101_294_5)"/>
<mask id="path-205-inside-102_294_5" fill="white">
<path d="M385 526H481V622H385V526Z"/>
</mask>
<path d="M481 622V623H482V622H481ZM481 526H480V622H481H482V526H481ZM481 622V621H385V622V623H481V622Z" fill="#D0D5DD" mask="url(#path-205-inside-102_294_5)"/>
<mask id="path-207-inside-103_294_5" fill="white">
<path d="M481 526H577V622H481V526Z"/>
</mask>
<path d="M577 622V623H578V622H577ZM577 526H576V622H577H578V526H577ZM577 622V621H481V622V623H577V622Z" fill="#D0D5DD" mask="url(#path-207-inside-103_294_5)"/>
<mask id="path-209-inside-104_294_5" fill="white">
<path d="M577 526H673V622H577V526Z"/>
</mask>
<path d="M673 622V623H674V622H673ZM673 526H672V622H673H674V526H673ZM673 622V621H577V622V623H673V622Z" fill="#D0D5DD" mask="url(#path-209-inside-104_294_5)"/>
<mask id="path-211-inside-105_294_5" fill="white">
<path d="M673 526H769V622H673V526Z"/>
</mask>
<path d="M769 622V623H770V622H769ZM769 526H768V622H769H770V526H769ZM769 622V621H673V622V623H769V622Z" fill="#D0D5DD" mask="url(#path-211-inside-105_294_5)"/>
<mask id="path-213-inside-106_294_5" fill="white">
<path d="M769 526H865V622H769V526Z"/>
</mask>
<path d="M865 622V623H866V622H865ZM865 526H864V622H865H866V526H865ZM865 622V621H769V622V623H865V622Z" fill="#D0D5DD" mask="url(#path-213-inside-106_294_5)"/>
<mask id="path-215-inside-107_294_5" fill="white">
<path d="M865 526H961V622H865V526Z"/>
</mask>
<path d="M865 526H961V622H865V526Z" fill="#F2F4F7"/>
<path d="M961 622V623H962V622H961ZM961 526H960V622H961H962V526H961ZM961 622V621H865V622V623H961V622Z" fill="#D0D5DD" mask="url(#path-215-inside-107_294_5)"/>
<mask id="path-217-inside-108_294_5" fill="white">
<path d="M961 526H1057V622H961V526Z"/>
</mask>
<path d="M1057 622V623H1058V622H1057ZM1057 526H1056V622H1057H1058V526H1057ZM1057 622V621H961V622V623H1057V622Z" fill="#D0D5DD" mask="url(#path-217-inside-108_294_5)"/>
<mask id="path-219-inside-109_294_5" fill="white">
<path d="M1057 526H1153V622H1057V526Z"/>
</mask>
<path d="M1153 622V623H1154V622H1153ZM1153 526H1152V622H1153H1154V526H1153ZM1153 622V621H1057V622V623H1153V622Z" fill="#D0D5DD" mask="url(#path-219-inside-109_294_5)"/>
<mask id="path-221-inside-110_294_5" fill="white">
<path d="M1153 526H1249V622H1153V526Z"/>
</mask>
<path d="M1249 622V623H1250V622H1249ZM1249 526H1248V622H1249H1250V526H1249ZM1249 622V621H1153V622V623H1249V622Z" fill="#D0D5DD" mask="url(#path-221-inside-110_294_5)"/>
<mask id="path-223-inside-111_294_5" fill="white">
<path d="M1249 526H1345V622H1249V526Z"/>
</mask>
<path d="M1345 622V623H1346V622H1345ZM1345 526H1344V622H1345H1346V526H1345ZM1345 622V621H1249V622V623H1345V622Z" fill="#D0D5DD" mask="url(#path-223-inside-111_294_5)"/>
<mask id="path-225-inside-112_294_5" fill="white">
<path d="M1345 526H1441V622H1345V526Z"/>
</mask>
<path d="M1441 622V623H1442V622H1441ZM1441 526H1440V622H1441H1442V526H1441ZM1441 622V621H1345V622V623H1441V622Z" fill="#D0D5DD" mask="url(#path-225-inside-112_294_5)"/>
<mask id="path-227-inside-113_294_5" fill="white">
<path d="M-95 622H1V718H-95V622Z"/>
</mask>
<path d="M-95 622H1V718H-95V622Z" fill="#F2F4F7"/>
<path d="M1 718V719H2V718H1ZM1 622H0V718H1H2V622H1ZM1 718V717H-95V718V719H1V718Z" fill="#D0D5DD" mask="url(#path-227-inside-113_294_5)"/>
<mask id="path-229-inside-114_294_5" fill="white">
<path d="M1 622H97V718H1V622Z"/>
</mask>
<path d="M97 718V719H98V718H97ZM97 622H96V718H97H98V622H97ZM97 718V717H1V718V719H97V718Z" fill="#D0D5DD" mask="url(#path-229-inside-114_294_5)"/>
<mask id="path-231-inside-115_294_5" fill="white">
<path d="M97 622H193V718H97V622Z"/>
</mask>
<path d="M193 718V719H194V718H193ZM193 622H192V718H193H194V622H193ZM193 718V717H97V718V719H193V718Z" fill="#D0D5DD" mask="url(#path-231-inside-115_294_5)"/>
<mask id="path-233-inside-116_294_5" fill="white">
<path d="M193 622H289V718H193V622Z"/>
</mask>
<path d="M289 718V719H290V718H289ZM289 622H288V718H289H290V622H289ZM289 718V717H193V718V719H289V718Z" fill="#D0D5DD" mask="url(#path-233-inside-116_294_5)"/>
<mask id="path-235-inside-117_294_5" fill="white">
<path d="M289 622H385V718H289V622Z"/>
</mask>
<path d="M385 718V719H386V718H385ZM385 622H384V718H385H386V622H385ZM385 718V717H289V718V719H385V718Z" fill="#D0D5DD" mask="url(#path-235-inside-117_294_5)"/>
<mask id="path-237-inside-118_294_5" fill="white">
<path d="M385 622H481V718H385V622Z"/>
</mask>
<path d="M481 718V719H482V718H481ZM481 622H480V718H481H482V622H481ZM481 718V717H385V718V719H481V718Z" fill="#D0D5DD" mask="url(#path-237-inside-118_294_5)"/>
<mask id="path-239-inside-119_294_5" fill="white">
<path d="M481 622H577V718H481V622Z"/>
</mask>
<path d="M577 718V719H578V718H577ZM577 622H576V718H577H578V622H577ZM577 718V717H481V718V719H577V718Z" fill="#D0D5DD" mask="url(#path-239-inside-119_294_5)"/>
<mask id="path-241-inside-120_294_5" fill="white">
<path d="M577 622H673V718H577V622Z"/>
</mask>
<path d="M673 718V719H674V718H673ZM673 622H672V718H673H674V622H673ZM673 718V717H577V718V719H673V718Z" fill="#D0D5DD" mask="url(#path-241-inside-120_294_5)"/>
<mask id="path-243-inside-121_294_5" fill="white">
<path d="M673 622H769V718H673V622Z"/>
</mask>
<path d="M769 718V719H770V718H769ZM769 622H768V718H769H770V622H769ZM769 718V717H673V718V719H769V718Z" fill="#D0D5DD" mask="url(#path-243-inside-121_294_5)"/>
<mask id="path-245-inside-122_294_5" fill="white">
<path d="M769 622H865V718H769V622Z"/>
</mask>
<path d="M865 718V719H866V718H865ZM865 622H864V718H865H866V622H865ZM865 718V717H769V718V719H865V718Z" fill="#D0D5DD" mask="url(#path-245-inside-122_294_5)"/>
<mask id="path-247-inside-123_294_5" fill="white">
<path d="M865 622H961V718H865V622Z"/>
</mask>
<path d="M961 718V719H962V718H961ZM961 622H960V718H961H962V622H961ZM961 718V717H865V718V719H961V718Z" fill="#D0D5DD" mask="url(#path-247-inside-123_294_5)"/>
<mask id="path-249-inside-124_294_5" fill="white">
<path d="M961 622H1057V718H961V622Z"/>
</mask>
<path d="M1057 718V719H1058V718H1057ZM1057 622H1056V718H1057H1058V622H1057ZM1057 718V717H961V718V719H1057V718Z" fill="#D0D5DD" mask="url(#path-249-inside-124_294_5)"/>
<mask id="path-251-inside-125_294_5" fill="white">
<path d="M1057 622H1153V718H1057V622Z"/>
</mask>
<path d="M1153 718V719H1154V718H1153ZM1153 622H1152V718H1153H1154V622H1153ZM1153 718V717H1057V718V719H1153V718Z" fill="#D0D5DD" mask="url(#path-251-inside-125_294_5)"/>
<mask id="path-253-inside-126_294_5" fill="white">
<path d="M1153 622H1249V718H1153V622Z"/>
</mask>
<path d="M1249 718V719H1250V718H1249ZM1249 622H1248V718H1249H1250V622H1249ZM1249 718V717H1153V718V719H1249V718Z" fill="#D0D5DD" mask="url(#path-253-inside-126_294_5)"/>
<mask id="path-255-inside-127_294_5" fill="white">
<path d="M1249 622H1345V718H1249V622Z"/>
</mask>
<path d="M1345 718V719H1346V718H1345ZM1345 622H1344V718H1345H1346V622H1345ZM1345 718V717H1249V718V719H1345V718Z" fill="#D0D5DD" mask="url(#path-255-inside-127_294_5)"/>
<mask id="path-257-inside-128_294_5" fill="white">
<path d="M1345 622H1441V718H1345V622Z"/>
</mask>
<path d="M1441 718V719H1442V718H1441ZM1441 622H1440V718H1441H1442V622H1441ZM1441 718V717H1345V718V719H1441V718Z" fill="#D0D5DD" mask="url(#path-257-inside-128_294_5)"/>
<mask id="path-259-inside-129_294_5" fill="white">
<path d="M-95 718H1V814H-95V718Z"/>
</mask>
<path d="M1 814V815H2V814H1ZM1 718H0V814H1H2V718H1ZM1 814V813H-95V814V815H1V814Z" fill="#D0D5DD" mask="url(#path-259-inside-129_294_5)"/>
<mask id="path-261-inside-130_294_5" fill="white">
<path d="M1 718H97V814H1V718Z"/>
</mask>
<path d="M97 814V815H98V814H97ZM97 718H96V814H97H98V718H97ZM97 814V813H1V814V815H97V814Z" fill="#D0D5DD" mask="url(#path-261-inside-130_294_5)"/>
<mask id="path-263-inside-131_294_5" fill="white">
<path d="M97 718H193V814H97V718Z"/>
</mask>
<path d="M193 814V815H194V814H193ZM193 718H192V814H193H194V718H193ZM193 814V813H97V814V815H193V814Z" fill="#D0D5DD" mask="url(#path-263-inside-131_294_5)"/>
<mask id="path-265-inside-132_294_5" fill="white">
<path d="M193 718H289V814H193V718Z"/>
</mask>
<path d="M289 814V815H290V814H289ZM289 718H288V814H289H290V718H289ZM289 814V813H193V814V815H289V814Z" fill="#D0D5DD" mask="url(#path-265-inside-132_294_5)"/>
<mask id="path-267-inside-133_294_5" fill="white">
<path d="M289 718H385V814H289V718Z"/>
</mask>
<path d="M385 814V815H386V814H385ZM385 718H384V814H385H386V718H385ZM385 814V813H289V814V815H385V814Z" fill="#D0D5DD" mask="url(#path-267-inside-133_294_5)"/>
<mask id="path-269-inside-134_294_5" fill="white">
<path d="M385 718H481V814H385V718Z"/>
</mask>
<path d="M385 718H481V814H385V718Z" fill="#F2F4F7"/>
<path d="M481 814V815H482V814H481ZM481 718H480V814H481H482V718H481ZM481 814V813H385V814V815H481V814Z" fill="#D0D5DD" mask="url(#path-269-inside-134_294_5)"/>
<mask id="path-271-inside-135_294_5" fill="white">
<path d="M481 718H577V814H481V718Z"/>
</mask>
<path d="M577 814V815H578V814H577ZM577 718H576V814H577H578V718H577ZM577 814V813H481V814V815H577V814Z" fill="#D0D5DD" mask="url(#path-271-inside-135_294_5)"/>
<mask id="path-273-inside-136_294_5" fill="white">
<path d="M577 718H673V814H577V718Z"/>
</mask>
<path d="M673 814V815H674V814H673ZM673 718H672V814H673H674V718H673ZM673 814V813H577V814V815H673V814Z" fill="#D0D5DD" mask="url(#path-273-inside-136_294_5)"/>
<mask id="path-275-inside-137_294_5" fill="white">
<path d="M673 718H769V814H673V718Z"/>
</mask>
<path d="M769 814V815H770V814H769ZM769 718H768V814H769H770V718H769ZM769 814V813H673V814V815H769V814Z" fill="#D0D5DD" mask="url(#path-275-inside-137_294_5)"/>
<mask id="path-277-inside-138_294_5" fill="white">
<path d="M769 718H865V814H769V718Z"/>
</mask>
<path d="M769 718H865V814H769V718Z" fill="#F2F4F7"/>
<path d="M865 814V815H866V814H865ZM865 718H864V814H865H866V718H865ZM865 814V813H769V814V815H865V814Z" fill="#D0D5DD" mask="url(#path-277-inside-138_294_5)"/>
<mask id="path-279-inside-139_294_5" fill="white">
<path d="M865 718H961V814H865V718Z"/>
</mask>
<path d="M961 814V815H962V814H961ZM961 718H960V814H961H962V718H961ZM961 814V813H865V814V815H961V814Z" fill="#D0D5DD" mask="url(#path-279-inside-139_294_5)"/>
<mask id="path-281-inside-140_294_5" fill="white">
<path d="M961 718H1057V814H961V718Z"/>
</mask>
<path d="M1057 814V815H1058V814H1057ZM1057 718H1056V814H1057H1058V718H1057ZM1057 814V813H961V814V815H1057V814Z" fill="#D0D5DD" mask="url(#path-281-inside-140_294_5)"/>
<mask id="path-283-inside-141_294_5" fill="white">
<path d="M1057 718H1153V814H1057V718Z"/>
</mask>
<path d="M1153 814V815H1154V814H1153ZM1153 718H1152V814H1153H1154V718H1153ZM1153 814V813H1057V814V815H1153V814Z" fill="#D0D5DD" mask="url(#path-283-inside-141_294_5)"/>
<mask id="path-285-inside-142_294_5" fill="white">
<path d="M1153 718H1249V814H1153V718Z"/>
</mask>
<path d="M1249 814V815H1250V814H1249ZM1249 718H1248V814H1249H1250V718H1249ZM1249 814V813H1153V814V815H1249V814Z" fill="#D0D5DD" mask="url(#path-285-inside-142_294_5)"/>
<mask id="path-287-inside-143_294_5" fill="white">
<path d="M1249 718H1345V814H1249V718Z"/>
</mask>
<path d="M1345 814V815H1346V814H1345ZM1345 718H1344V814H1345H1346V718H1345ZM1345 814V813H1249V814V815H1345V814Z" fill="#D0D5DD" mask="url(#path-287-inside-143_294_5)"/>
<mask id="path-289-inside-144_294_5" fill="white">
<path d="M1345 718H1441V814H1345V718Z"/>
</mask>
<path d="M1441 814V815H1442V814H1441ZM1441 718H1440V814H1441H1442V718H1441ZM1441 814V813H1345V814V815H1441V814Z" fill="#D0D5DD" mask="url(#path-289-inside-144_294_5)"/>
<mask id="path-291-inside-145_294_5" fill="white">
<path d="M-95 814H1V910H-95V814Z"/>
</mask>
<path d="M1 910V911H2V910H1ZM1 814H0V910H1H2V814H1ZM1 910V909H-95V910V911H1V910Z" fill="#D0D5DD" mask="url(#path-291-inside-145_294_5)"/>
<mask id="path-293-inside-146_294_5" fill="white">
<path d="M1 814H97V910H1V814Z"/>
</mask>
<path d="M1 814H97V910H1V814Z" fill="#F2F4F7"/>
<path d="M97 910V911H98V910H97ZM97 814H96V910H97H98V814H97ZM97 910V909H1V910V911H97V910Z" fill="#D0D5DD" mask="url(#path-293-inside-146_294_5)"/>
<mask id="path-295-inside-147_294_5" fill="white">
<path d="M97 814H193V910H97V814Z"/>
</mask>
<path d="M193 910V911H194V910H193ZM193 814H192V910H193H194V814H193ZM193 910V909H97V910V911H193V910Z" fill="#D0D5DD" mask="url(#path-295-inside-147_294_5)"/>
<mask id="path-297-inside-148_294_5" fill="white">
<path d="M193 814H289V910H193V814Z"/>
</mask>
<path d="M289 910V911H290V910H289ZM289 814H288V910H289H290V814H289ZM289 910V909H193V910V911H289V910Z" fill="#D0D5DD" mask="url(#path-297-inside-148_294_5)"/>
<mask id="path-299-inside-149_294_5" fill="white">
<path d="M289 814H385V910H289V814Z"/>
</mask>
<path d="M385 910V911H386V910H385ZM385 814H384V910H385H386V814H385ZM385 910V909H289V910V911H385V910Z" fill="#D0D5DD" mask="url(#path-299-inside-149_294_5)"/>
<mask id="path-301-inside-150_294_5" fill="white">
<path d="M385 814H481V910H385V814Z"/>
</mask>
<path d="M481 910V911H482V910H481ZM481 814H480V910H481H482V814H481ZM481 910V909H385V910V911H481V910Z" fill="#D0D5DD" mask="url(#path-301-inside-150_294_5)"/>
<mask id="path-303-inside-151_294_5" fill="white">
<path d="M481 814H577V910H481V814Z"/>
</mask>
<path d="M577 910V911H578V910H577ZM577 814H576V910H577H578V814H577ZM577 910V909H481V910V911H577V910Z" fill="#D0D5DD" mask="url(#path-303-inside-151_294_5)"/>
<mask id="path-305-inside-152_294_5" fill="white">
<path d="M577 814H673V910H577V814Z"/>
</mask>
<path d="M673 910V911H674V910H673ZM673 814H672V910H673H674V814H673ZM673 910V909H577V910V911H673V910Z" fill="#D0D5DD" mask="url(#path-305-inside-152_294_5)"/>
<mask id="path-307-inside-153_294_5" fill="white">
<path d="M673 814H769V910H673V814Z"/>
</mask>
<path d="M769 910V911H770V910H769ZM769 814H768V910H769H770V814H769ZM769 910V909H673V910V911H769V910Z" fill="#D0D5DD" mask="url(#path-307-inside-153_294_5)"/>
<mask id="path-309-inside-154_294_5" fill="white">
<path d="M769 814H865V910H769V814Z"/>
</mask>
<path d="M865 910V911H866V910H865ZM865 814H864V910H865H866V814H865ZM865 910V909H769V910V911H865V910Z" fill="#D0D5DD" mask="url(#path-309-inside-154_294_5)"/>
<mask id="path-311-inside-155_294_5" fill="white">
<path d="M865 814H961V910H865V814Z"/>
</mask>
<path d="M961 910V911H962V910H961ZM961 814H960V910H961H962V814H961ZM961 910V909H865V910V911H961V910Z" fill="#D0D5DD" mask="url(#path-311-inside-155_294_5)"/>
<mask id="path-313-inside-156_294_5" fill="white">
<path d="M961 814H1057V910H961V814Z"/>
</mask>
<path d="M1057 910V911H1058V910H1057ZM1057 814H1056V910H1057H1058V814H1057ZM1057 910V909H961V910V911H1057V910Z" fill="#D0D5DD" mask="url(#path-313-inside-156_294_5)"/>
<mask id="path-315-inside-157_294_5" fill="white">
<path d="M1057 814H1153V910H1057V814Z"/>
</mask>
<path d="M1153 910V911H1154V910H1153ZM1153 814H1152V910H1153H1154V814H1153ZM1153 910V909H1057V910V911H1153V910Z" fill="#D0D5DD" mask="url(#path-315-inside-157_294_5)"/>
<mask id="path-317-inside-158_294_5" fill="white">
<path d="M1153 814H1249V910H1153V814Z"/>
</mask>
<path d="M1153 814H1249V910H1153V814Z" fill="#F2F4F7"/>
<path d="M1249 910V911H1250V910H1249ZM1249 814H1248V910H1249H1250V814H1249ZM1249 910V909H1153V910V911H1249V910Z" fill="#D0D5DD" mask="url(#path-317-inside-158_294_5)"/>
<mask id="path-319-inside-159_294_5" fill="white">
<path d="M1249 814H1345V910H1249V814Z"/>
</mask>
<path d="M1345 910V911H1346V910H1345ZM1345 814H1344V910H1345H1346V814H1345ZM1345 910V909H1249V910V911H1345V910Z" fill="#D0D5DD" mask="url(#path-319-inside-159_294_5)"/>
<mask id="path-321-inside-160_294_5" fill="white">
<path d="M1345 814H1441V910H1345V814Z"/>
</mask>
<path d="M1441 910V911H1442V910H1441ZM1441 814H1440V910H1441H1442V814H1441ZM1441 910V909H1345V910V911H1441V910Z" fill="#D0D5DD" mask="url(#path-321-inside-160_294_5)"/>
<mask id="path-323-inside-161_294_5" fill="white">
<path d="M-95 910H1V1006H-95V910Z"/>
</mask>
<path d="M1 1006V1007H2V1006H1ZM1 910H0V1006H1H2V910H1ZM1 1006V1005H-95V1006V1007H1V1006Z" fill="#D0D5DD" mask="url(#path-323-inside-161_294_5)"/>
<mask id="path-325-inside-162_294_5" fill="white">
<path d="M1 910H97V1006H1V910Z"/>
</mask>
<path d="M97 1006V1007H98V1006H97ZM97 910H96V1006H97H98V910H97ZM97 1006V1005H1V1006V1007H97V1006Z" fill="#D0D5DD" mask="url(#path-325-inside-162_294_5)"/>
<mask id="path-327-inside-163_294_5" fill="white">
<path d="M97 910H193V1006H97V910Z"/>
</mask>
<path d="M193 1006V1007H194V1006H193ZM193 910H192V1006H193H194V910H193ZM193 1006V1005H97V1006V1007H193V1006Z" fill="#D0D5DD" mask="url(#path-327-inside-163_294_5)"/>
<mask id="path-329-inside-164_294_5" fill="white">
<path d="M193 910H289V1006H193V910Z"/>
</mask>
<path d="M289 1006V1007H290V1006H289ZM289 910H288V1006H289H290V910H289ZM289 1006V1005H193V1006V1007H289V1006Z" fill="#D0D5DD" mask="url(#path-329-inside-164_294_5)"/>
<mask id="path-331-inside-165_294_5" fill="white">
<path d="M289 910H385V1006H289V910Z"/>
</mask>
<path d="M385 1006V1007H386V1006H385ZM385 910H384V1006H385H386V910H385ZM385 1006V1005H289V1006V1007H385V1006Z" fill="#D0D5DD" mask="url(#path-331-inside-165_294_5)"/>
<mask id="path-333-inside-166_294_5" fill="white">
<path d="M385 910H481V1006H385V910Z"/>
</mask>
<path d="M481 1006V1007H482V1006H481ZM481 910H480V1006H481H482V910H481ZM481 1006V1005H385V1006V1007H481V1006Z" fill="#D0D5DD" mask="url(#path-333-inside-166_294_5)"/>
<mask id="path-335-inside-167_294_5" fill="white">
<path d="M481 910H577V1006H481V910Z"/>
</mask>
<path d="M577 1006V1007H578V1006H577ZM577 910H576V1006H577H578V910H577ZM577 1006V1005H481V1006V1007H577V1006Z" fill="#D0D5DD" mask="url(#path-335-inside-167_294_5)"/>
<mask id="path-337-inside-168_294_5" fill="white">
<path d="M577 910H673V1006H577V910Z"/>
</mask>
<path d="M577 910H673V1006H577V910Z" fill="#F2F4F7"/>
<path d="M673 1006V1007H674V1006H673ZM673 910H672V1006H673H674V910H673ZM673 1006V1005H577V1006V1007H673V1006Z" fill="#D0D5DD" mask="url(#path-337-inside-168_294_5)"/>
<mask id="path-339-inside-169_294_5" fill="white">
<path d="M673 910H769V1006H673V910Z"/>
</mask>
<path d="M769 1006V1007H770V1006H769ZM769 910H768V1006H769H770V910H769ZM769 1006V1005H673V1006V1007H769V1006Z" fill="#D0D5DD" mask="url(#path-339-inside-169_294_5)"/>
<mask id="path-341-inside-170_294_5" fill="white">
<path d="M769 910H865V1006H769V910Z"/>
</mask>
<path d="M865 1006V1007H866V1006H865ZM865 910H864V1006H865H866V910H865ZM865 1006V1005H769V1006V1007H865V1006Z" fill="#D0D5DD" mask="url(#path-341-inside-170_294_5)"/>
<mask id="path-343-inside-171_294_5" fill="white">
<path d="M865 910H961V1006H865V910Z"/>
</mask>
<path d="M961 1006V1007H962V1006H961ZM961 910H960V1006H961H962V910H961ZM961 1006V1005H865V1006V1007H961V1006Z" fill="#D0D5DD" mask="url(#path-343-inside-171_294_5)"/>
<mask id="path-345-inside-172_294_5" fill="white">
<path d="M961 910H1057V1006H961V910Z"/>
</mask>
<path d="M1057 1006V1007H1058V1006H1057ZM1057 910H1056V1006H1057H1058V910H1057ZM1057 1006V1005H961V1006V1007H1057V1006Z" fill="#D0D5DD" mask="url(#path-345-inside-172_294_5)"/>
<mask id="path-347-inside-173_294_5" fill="white">
<path d="M1057 910H1153V1006H1057V910Z"/>
</mask>
<path d="M1153 1006V1007H1154V1006H1153ZM1153 910H1152V1006H1153H1154V910H1153ZM1153 1006V1005H1057V1006V1007H1153V1006Z" fill="#D0D5DD" mask="url(#path-347-inside-173_294_5)"/>
<mask id="path-349-inside-174_294_5" fill="white">
<path d="M1153 910H1249V1006H1153V910Z"/>
</mask>
<path d="M1249 1006V1007H1250V1006H1249ZM1249 910H1248V1006H1249H1250V910H1249ZM1249 1006V1005H1153V1006V1007H1249V1006Z" fill="#D0D5DD" mask="url(#path-349-inside-174_294_5)"/>
<mask id="path-351-inside-175_294_5" fill="white">
<path d="M1249 910H1345V1006H1249V910Z"/>
</mask>
<path d="M1345 1006V1007H1346V1006H1345ZM1345 910H1344V1006H1345H1346V910H1345ZM1345 1006V1005H1249V1006V1007H1345V1006Z" fill="#D0D5DD" mask="url(#path-351-inside-175_294_5)"/>
<mask id="path-353-inside-176_294_5" fill="white">
<path d="M1345 910H1441V1006H1345V910Z"/>
</mask>
<path d="M1441 1006V1007H1442V1006H1441ZM1441 910H1440V1006H1441H1442V910H1441ZM1441 1006V1005H1345V1006V1007H1441V1006Z" fill="#D0D5DD" mask="url(#path-353-inside-176_294_5)"/>
</g>
<rect x="-190.5" y="-241.5" width="1919" height="1439" stroke="#D0D5DD"/>
</g>
</g>
<defs>
<radialGradient id="paint0_radial_294_5" cx="0" cy="0" r="1" gradientUnits="userSpaceOnUse" gradientTransform="translate(720 460.5) rotate(90) scale(460.5 720)">
<stop offset="0.703038" stop-color="white"/>
<stop offset="1" stop-color="white" stop-opacity="0"/>
</radialGradient>
<radialGradient id="paint1_radial_294_5" cx="0" cy="0" r="1" gradientUnits="userSpaceOnUse" gradientTransform="translate(720 -0.000171661) rotate(90) scale(1440 751.588)">
<stop/>
<stop offset="0.953125" stop-opacity="0"/>
</radialGradient>
<clipPath id="clip0_294_5">
<rect x="-191" y="-242" width="1920" height="1440" fill="white"/>
</clipPath>
</defs>
</svg>
