<svg width="404" height="80" viewBox="0 0 404 80" fill="none" xmlns="http://www.w3.org/2000/svg">
<path d="M24.7992 21.2778C10.6689 21.2778 0 31.2303 0 44.2471C0 57.2639 10.6689 67.2163 24.7992 67.2163C38.9295 67.2163 49.5898 57.2639 49.5898 44.2471C49.5898 31.2303 38.9208 21.2778 24.7992 21.2778ZM24.7992 57.8508C16.2537 57.8508 10.6689 52.1711 10.6689 44.2385C10.6689 36.3058 16.2537 30.6088 24.7992 30.6088C33.3447 30.6088 38.9208 36.3058 38.9208 44.2385C38.9208 52.1711 33.3361 57.8508 24.7992 57.8508Z" fill="#3478F6"/>
<path d="M81.9244 21.269C76.8316 21.269 71.9201 22.6933 68.2947 25.6367H67.4402V23.0127H57.082V79.9999H67.4402V63.0988C71.454 65.7056 76.4173 67.1989 81.9244 67.1989C96.0288 67.1989 106.698 57.2551 106.698 44.2469C106.698 31.2388 96.0288 21.269 81.9244 21.269ZM81.9244 57.8507C73.3703 57.8507 67.7768 52.1709 67.7768 44.2469C67.7768 36.3229 73.3703 30.6087 81.9244 30.6087C90.4785 30.6087 96.0288 36.3057 96.0288 44.2469C96.0288 52.1882 90.444 57.8507 81.9244 57.8507Z" fill="#3478F6"/>
<path d="M264.204 38.0917V66.3005H254.562V40.7072C254.562 34.38 252.154 30.8928 247.769 30.8928C243.384 30.8928 239.439 34.8462 235.184 44.1253V66.3005H225.559V40.7072C225.559 34.38 223.151 30.8928 218.766 30.8928C214.381 30.8928 210.428 34.8462 206.164 44.1253V66.3005H196.539V23.3227H206.164V29.8138H207.64C211.515 24.229 216.142 21.3892 221.39 21.3892C227.311 21.3892 231.757 24.5225 233.941 30.2195H235.684C239.638 24.5225 244.756 21.3892 250.117 21.3892C258.792 21.3892 264.187 27.7853 264.187 38.0917H264.204Z" fill="#3478F6"/>
<path d="M287.439 0C283.96 0 281.215 2.73629 281.215 6.42207C281.215 9.90069 283.952 12.6456 287.439 12.6456C291.125 12.6456 293.861 9.90932 293.861 6.42207C293.861 2.73629 291.125 0 287.439 0ZM293.74 57.7555V23.0383H273.102V31.5665H284.599V34.2079L284.608 54.9415V57.7468H273.102V66.2751H304.331V57.7468H293.74V57.7555Z" fill="#3478F6"/>
<path d="M345.956 41.2858L329.685 38.4373C326.025 37.8331 323.703 37.1253 323.703 34.5789C323.703 31.7477 328.166 30.6255 333.449 30.6255C340.665 30.6255 345.24 32.5591 350.825 36.3225L355.494 27.38C349.702 23.6165 342.296 21.3809 334.062 21.3809C322.875 21.3809 313.63 26.2578 313.63 35.2004C313.63 43.5215 320.233 46.5771 327.752 47.9064L342.089 50.3406C345.844 50.9448 347.674 51.6526 347.674 54.0954C347.674 57.0389 342.089 58.256 336.591 58.256C328.77 58.256 323.375 56.3224 316.366 51.3591L311.395 60.811C318.611 65.1787 328.063 67.3194 336.289 67.3194C347.372 67.3194 357.739 62.4424 357.739 53.3876C357.739 46.2836 352.75 42.5115 345.948 41.2944L345.956 41.2858Z" fill="#3478F6"/>
<path d="M144.375 54.0957C141.63 57.0909 138.885 58.2907 135.631 58.2907C130.668 58.2907 127.664 55.1229 127.664 49.7193V31.4976H147.206V23.0039H127.664V9.01172H118.203V22.9953H107.707V31.4976H117.893V50.8415C117.893 61.0356 124.237 67.2937 134.69 67.2937C141.121 67.2937 146.602 64.7214 150.365 59.9221L144.366 54.0957H144.375Z" fill="#3478F6"/>
<path d="M397.527 54.0957C394.782 57.0909 392.037 58.2907 388.783 58.2907C383.82 58.2907 380.816 55.1229 380.816 49.7193V31.4976H400.359V23.0039H380.816V9.01172H371.356V22.9953H360.859V31.4976H371.045V50.8415C371.045 61.0356 377.389 67.2937 387.842 67.2937C394.273 67.2937 399.754 64.7214 403.518 59.9221L397.519 54.0957H397.527Z" fill="#3478F6"/>
<path d="M171.494 0C168.015 0 165.27 2.73629 165.27 6.42207C165.27 9.90069 168.006 12.6456 171.494 12.6456C175.179 12.6456 177.916 9.90932 177.916 6.42207C177.916 2.73629 175.179 0 171.494 0ZM177.795 57.7555V23.0383H157.156V31.5665H168.654V34.2079L168.662 54.9415V57.7468H157.156V66.2751H188.386V57.7468H177.795V57.7555Z" fill="#3478F6"/>
</svg>
