<svg width="48" height="48" viewBox="0 0 48 48" fill="none" xmlns="http://www.w3.org/2000/svg">
<path d="M44.814 18.1718C42.9824 17.4622 42.0666 15.4004 42.7618 13.588C42.9009 13.2524 43.0303 12.9791 43.1406 12.7394C43.553 11.8715 43.8215 11.3009 43.505 10.0926C43.3995 9.4885 42.5461 8.56791 40.7816 6.86097C40.4795 6.56849 40.211 6.30958 40.0336 6.12738C37.8376 3.84028 37.1663 4.01769 34.6683 5.12048L34.5963 5.15404C32.7695 5.96435 30.7078 5.17322 29.9023 3.35601L29.8256 3.19299C29.7393 2.97722 29.6625 2.76146 29.5858 2.55528C29.2742 1.67784 28.9769 0.848351 27.8789 0.325722C27.1501 -0.0195004 25.635 -0.0195047 23.7314 0.0140586C23.3383 0.0188533 22.9786 0.0236501 22.6958 0.0236501C19.4929 -0.0147079 19.2004 0.498329 18.1695 3.18339C17.8291 4.07042 17.1674 4.77046 16.2996 5.15883C15.4269 5.54721 14.4584 5.57118 13.5809 5.23555C13.2501 5.0965 12.9768 4.96705 12.7371 4.85677C11.8692 4.44442 11.2938 4.17591 10.0903 4.49236C9.4862 4.59785 8.56561 5.45611 6.85388 7.22538C6.5614 7.52265 6.30727 7.78636 6.12507 7.96377C3.83797 10.1598 4.01539 10.831 5.12298 13.3291L5.15175 13.401C5.55451 14.312 5.57368 15.3093 5.19968 16.2155C4.8209 17.1218 4.10647 17.8122 3.18588 18.1718C0.496021 19.2027 -0.012212 19.5 0.0213513 22.6885C0.0213513 23.4221 0.0165425 24.0598 0.00695295 24.6112C-0.0409946 28.1353 0.074082 28.634 3.18588 29.8327C5.01268 30.5375 5.93329 32.5992 5.23325 34.4165C5.0942 34.7473 4.96476 35.0206 4.85448 35.2603C4.44213 36.1282 4.17362 36.7035 4.49007 37.907C4.59555 38.5112 5.45382 39.4318 7.21829 41.1435C7.52036 41.436 7.78406 41.6901 7.96147 41.8723C10.1575 44.1594 10.8287 43.9868 13.3268 42.8792L13.3987 42.8456C15.2303 42.0353 17.2873 42.8265 18.0928 44.6437L18.1695 44.8067C18.2606 45.0272 18.3373 45.2382 18.4092 45.4492C18.7257 46.3266 19.023 47.1561 20.1162 47.674C20.6772 47.9377 21.7033 48 23.017 48C23.4102 48 23.8273 47.9952 24.2684 47.9904C24.6616 47.9808 25.0164 47.976 25.3041 47.976C28.4974 48.0144 28.7947 47.5061 29.8304 44.8163C30.1708 43.9245 30.8373 43.2244 31.7051 42.836C32.573 42.4525 33.5367 42.4285 34.4141 42.7641C34.745 42.9032 35.0183 43.0326 35.258 43.1477C36.1259 43.5553 36.7013 43.8238 37.9047 43.5073C38.5089 43.4018 39.4295 42.5436 41.1412 40.7791C41.4337 40.477 41.6878 40.2133 41.87 40.0359C44.1571 37.8399 43.9845 37.1686 42.8769 34.6706L42.8433 34.5987C42.4406 33.6876 42.4262 32.6903 42.8002 31.7841C43.1742 30.8827 43.8886 30.1875 44.814 29.8279C47.499 28.797 48.0073 28.4997 47.9785 25.3112C47.9737 24.5776 47.9833 23.9399 47.9881 23.3885C48.0361 19.8644 47.9258 19.3705 44.814 18.1718ZM44.0996 25.9249C44.0996 25.9249 44.0996 25.9537 44.1044 25.9681C44.042 25.9777 43.9749 25.9969 43.9078 26.0208L43.4187 26.2126L43.4043 26.1982L43.0687 26.3469C41.3138 27.1284 39.9425 28.5333 39.2041 30.3121C38.3506 32.3739 38.4418 34.3349 39.4966 36.6604C39.5302 36.7275 39.5589 36.7851 39.5973 36.8378C39.5829 36.8474 39.5733 36.8618 39.5589 36.8714L36.8259 39.6092C36.7732 39.5708 36.7156 39.542 36.6485 39.5085L36.3608 39.3838C34.16 38.444 32.2757 38.3961 30.2955 39.216C28.2002 40.0839 26.9152 41.4935 26.0041 43.9245C25.9802 43.9916 25.9658 44.0539 25.9514 44.1115H25.9082L25.3664 44.0971C24.7 44.0875 24.1486 44.0827 23.6931 44.0827C22.8876 44.0827 22.3697 44.0971 22.0341 44.1067C22.0197 44.0491 22.0053 43.982 21.9765 43.9197L21.8039 43.4785L21.8231 43.469L21.6505 43.0758C20.8737 41.3209 19.4641 39.9496 17.69 39.216C15.6235 38.3577 13.6624 38.4488 11.337 39.5085C11.2698 39.5373 11.2123 39.5708 11.1644 39.6044C11.15 39.5948 11.1404 39.5804 11.126 39.5708L8.39301 36.8378C8.42657 36.7851 8.46011 36.7275 8.48888 36.6604L8.63275 36.3344C9.55814 34.1431 9.60126 32.2732 8.78615 30.3073C7.9183 28.212 6.50867 26.927 4.07293 26.016C4.0106 25.9921 3.94826 25.9729 3.88593 25.9633C3.88593 25.9489 3.88593 25.9345 3.88593 25.9201L3.89552 22.6261L3.88593 22.0795C3.88593 22.0795 3.88593 22.0556 3.88593 22.0412C3.94826 22.0268 4.01537 22.0124 4.0825 21.9836L4.60994 21.7775L4.61951 21.7918L4.92158 21.6576C6.67646 20.8808 8.04776 19.4712 8.78615 17.6971C9.63962 15.6306 9.54853 13.6743 8.49368 11.3441C8.46012 11.2769 8.43137 11.2194 8.39301 11.1715C8.40739 11.1571 8.41696 11.1475 8.43135 11.1379L11.1644 8.40009C11.2171 8.43366 11.2746 8.46722 11.3418 8.49599L11.663 8.63983H11.6678C13.8542 9.56522 15.7242 9.60837 17.6948 8.79326C19.7901 7.92541 21.0751 6.51575 21.9861 4.08001C22.0101 4.01768 22.0245 3.95535 22.0389 3.89782H22.0772L22.6238 3.9122C24.4602 3.94576 25.4288 3.91699 25.9562 3.90261C25.9706 3.96014 25.985 4.02728 26.0137 4.0944L26.1863 4.53072L26.1672 4.54031L26.3398 4.93349C27.1165 6.68837 28.5262 8.05966 30.3002 8.79326C32.3668 9.65152 34.3278 9.56042 36.6533 8.50078C36.7204 8.47201 36.778 8.43845 36.8259 8.40489C36.8403 8.41447 36.8499 8.42886 36.8595 8.43845L39.5973 11.1715C39.5637 11.2242 39.5301 11.2817 39.5014 11.3489L39.3623 11.6557H39.3671C38.4322 13.8517 38.3842 15.7265 39.2041 17.7019C40.072 19.7972 41.4816 21.0822 43.9174 21.9932C43.9797 22.0172 44.042 22.0364 44.1044 22.046C44.1044 22.0604 44.1044 22.0747 44.0996 22.0891L44.09 25.3831L44.0996 25.9249Z" fill="#3478F6"/>
<path d="M32.5729 20.4444C31.1057 16.9011 27.8165 14.7003 23.995 14.7003C18.8694 14.7003 14.698 18.8718 14.698 23.9974C14.698 27.8188 16.9036 31.108 20.4469 32.5752C21.636 33.069 22.8635 33.3088 24.0717 33.3088C26.4595 33.3088 28.7754 32.3642 30.5687 30.571C33.2729 27.8715 34.0401 23.9878 32.5729 20.4444ZM29.3939 23.9974C29.3939 25.4406 28.833 26.7975 27.8117 27.814C26.2486 29.3867 23.9951 29.8278 21.9381 28.9791C19.8764 28.1256 18.6009 26.2173 18.6009 23.9974C18.6009 21.7774 19.8763 19.8739 21.9333 19.0204C22.6285 18.7327 23.3429 18.5937 24.043 18.5937C24.743 18.5937 25.4191 18.7327 26.0568 18.9964C26.6993 19.2649 27.2938 19.6629 27.8164 20.1807C28.8329 21.202 29.3939 22.5589 29.3939 23.9974Z" fill="#3478F6"/>
</svg>
