<svg width="27" height="27" viewBox="0 0 27 27" fill="none" xmlns="http://www.w3.org/2000/svg">
<path d="M21.4308 22.5998C22.1432 22.5998 22.7207 22.0223 22.7207 21.3099C22.7207 20.5975 22.1432 20.02 21.4308 20.02C20.7185 20.02 20.141 20.5975 20.141 21.3099C20.141 22.0223 20.7185 22.5998 21.4308 22.5998Z" fill="#3478F6"/>
<path d="M25.0675 21.5274V21.5614C25.0675 22.5242 24.6776 23.3928 24.0497 24.026C23.4165 24.6565 22.5453 25.0464 21.5825 25.0464C20.4234 25.0464 19.3376 24.4682 18.6914 23.5027L13.3252 17.5557L13.0793 17.7205C12.1714 18.0502 11.3969 18.3459 9.69367 18.3459C4.91617 18.3459 1.04655 14.4736 1.04655 9.69612C1.04655 8.47689 1.29773 7.31784 1.75298 6.26606L6.92555 11.436L11.3865 6.97509L6.19558 1.78421C7.26567 1.30803 8.44827 1.04639 9.69367 1.04639C14.4685 1.04639 18.3408 4.92124 18.3408 9.69612C18.3408 11.4203 18.1969 11.9436 17.4251 13.6207L17.2341 13.8692C19.7118 15.494 21.9252 17.5976 23.4741 18.597C24.4683 19.2407 25.0675 20.3421 25.0675 21.5274Z" stroke="#3478F6" stroke-width="2.0931" stroke-miterlimit="10"/>
</svg>
