<svg width="51" height="40" viewBox="0 0 51 40" fill="none" xmlns="http://www.w3.org/2000/svg">
<path d="M28.5147 36.572C28.5147 37.957 27.6787 39.206 26.3995 39.7398C25.1204 40.2686 23.6448 39.9765 22.6627 38.9995C21.6857 38.0174 21.3936 36.5418 21.9224 35.2626C22.4512 33.9784 23.7052 33.1475 25.0901 33.1475C26.9837 33.1475 28.5147 34.6835 28.5147 36.572ZM32.171 24.6212C29.4061 23.2061 26.2736 22.6672 23.1915 23.0751C20.1094 23.4831 17.2287 24.8177 14.9221 26.9077C14.0761 27.7688 14.0458 29.1437 14.8617 30.0402C15.6725 30.9366 17.0424 31.0474 17.9841 30.2869C19.6058 28.8415 21.6202 27.9199 23.7807 27.6429C25.9362 27.371 28.1219 27.7588 30.0508 28.7559C30.8263 29.1941 31.5566 29.7178 32.2213 30.3071C33.1681 31.138 34.6085 31.0474 35.4445 30.1006C36.2755 29.1538 36.1848 27.7134 35.238 26.8774C34.3114 26.0012 33.284 25.2407 32.176 24.6162L32.171 24.6212ZM36.3309 14.1108C32.8509 12.338 28.9982 11.4215 25.0901 11.4366C18.6539 11.4013 12.4595 13.859 7.79598 18.2908C6.90961 19.1822 6.90961 20.6225 7.79598 21.5139C8.68738 22.4003 10.1277 22.4003 11.0191 21.5139C14.1012 18.6786 17.9741 16.8454 22.1238 16.2713C26.2686 15.6921 30.499 16.4022 34.2308 18.2908C36.0438 19.1973 37.7158 20.3707 39.1864 21.7657C40.1483 22.6471 41.639 22.5866 42.5203 21.6298C43.4016 20.6729 43.3412 19.1772 42.3843 18.2958C40.5864 16.6087 38.5468 15.1986 36.3309 14.1158V14.1108ZM38.6122 2.68877C32.2767 0.0649276 25.3168 -0.660282 18.5784 0.60883C11.84 1.87291 5.61532 5.07087 0.664773 9.81493C-0.221591 10.7063 -0.221591 12.1467 0.664773 13.0381C1.55617 13.9244 2.99652 13.9244 3.88792 13.0381C9.609 7.55369 17.2337 4.49675 25.1556 4.49675C33.0775 4.49675 40.7022 7.55369 46.4233 13.0381C46.8464 13.5115 47.4507 13.7834 48.0852 13.7935C48.7198 13.8036 49.3292 13.5467 49.7724 13.0935C50.2105 12.6352 50.4422 12.0107 50.4019 11.3761C50.3666 10.7416 50.0695 10.1524 49.576 9.74946C46.3931 6.73783 42.6714 4.35069 38.6122 2.71394V2.68877Z" fill="#3478F6"/>
</svg>
