<svg width="54" height="48" viewBox="0 0 54 48" fill="none" xmlns="http://www.w3.org/2000/svg">
<path d="M24.7492 0C20.2223 0.122205 16.6305 4.01151 16.6305 8.63936C16.6305 9.69139 17.4753 10.5415 18.522 10.5468C18.522 10.5468 18.5327 10.5468 18.538 10.5468C19.59 10.5468 20.4348 9.69139 20.4348 8.64468C20.4348 5.89772 22.491 3.80429 24.9617 3.80429C27.4324 3.80429 29.478 5.89772 29.478 8.64468C29.478 11.3916 27.4324 13.501 24.9617 13.501H1.90216C0.860757 13.501 0.0106369 14.3511 0.0106369 15.3925C0.0106369 16.4445 0.855444 17.2947 1.90216 17.3H24.9617C29.5895 17.3 33.2823 13.3469 33.2823 8.64468C33.2823 3.94244 29.5895 0.00531338 24.9617 0.00531338C24.8873 0.00531338 24.8182 0.00531338 24.7439 0.00531338L24.7492 0ZM44.8811 8.6128C40.2532 8.6128 36.5605 12.5499 36.5605 17.2522C36.5605 18.3042 37.4054 19.1543 38.4521 19.1596C39.5041 19.1596 40.3542 18.3148 40.3595 17.2681C40.3595 17.2681 40.3595 17.2575 40.3595 17.2522C40.3595 14.5052 42.4051 12.4171 44.8758 12.4171C47.3465 12.4171 49.408 14.5052 49.408 17.2522C49.408 19.9991 47.3465 22.1085 44.8758 22.1085H1.89152C0.85012 22.1085 0 22.9586 0 24C0 25.052 0.844807 25.9021 1.89152 25.9075H44.8758C49.5037 25.9075 53.207 21.9544 53.207 17.2522C53.207 12.5499 49.5037 8.6128 44.8758 8.6128H44.8811ZM1.90216 30.7053C0.850131 30.7053 0.00532364 31.5661 0.0106369 32.6128C0.0106369 33.6542 0.860757 34.5043 1.90216 34.5043H28.7554C31.226 34.5043 33.2876 36.6137 33.2876 39.3606C33.2876 42.1076 31.226 44.201 28.7554 44.201C26.2847 44.201 24.2391 42.1076 24.2391 39.3606C24.2391 38.3086 23.3943 37.4585 22.3476 37.4532C22.3476 37.4532 22.3369 37.4532 22.3316 37.4532C21.2796 37.4532 20.4348 38.3139 20.4401 39.3606C20.4401 44.0629 24.1328 48 28.7607 48C33.3885 48 37.0919 44.0629 37.0919 39.3606C37.0919 34.6584 33.447 30.7744 28.8723 30.7106C28.8351 30.7106 28.7979 30.7106 28.7554 30.7106H1.90216V30.7053Z" fill="#3478F6"/>
</svg>
