<svg width="40" height="40" viewBox="0 0 40 40" fill="none" xmlns="http://www.w3.org/2000/svg">
<path d="M19.996 0C8.97053 0 0 8.9705 0 20C0 31.0295 8.97053 40 19.996 40C31.0215 40 39.996 31.0295 39.996 20C39.996 8.9705 31.0255 0 19.996 0ZM33.1166 31.1901L30.3231 28.3966C29.8094 27.8788 28.9103 27.8788 28.3925 28.3966C28.1357 28.6534 27.9912 28.9986 27.9952 29.3638C27.9952 29.7291 28.1357 30.0702 28.3965 30.3271L31.1861 33.1206C28.0514 35.8017 24.102 37.2747 19.996 37.2747C10.4716 37.2747 2.72528 29.5244 2.72528 20C2.72528 15.894 4.19426 11.9446 6.87538 8.80995L9.66891 11.6035C10.2027 12.1373 11.0696 12.1373 11.5994 11.6035C11.8603 11.3466 12.0008 11.0014 12.0008 10.6362C12.0008 10.2709 11.8563 9.92976 11.5994 9.67289L8.80597 6.87939C11.9406 4.19827 15.8901 2.72928 19.996 2.72928C29.5204 2.72928 37.2708 10.4756 37.2708 20C37.2708 24.106 35.7977 28.0554 33.1166 31.1901Z" fill="#3478F6"/>
<path d="M19.7779 21.7735C19.7779 22.6685 19.0675 23.399 18.1926 23.399C17.3176 23.399 16.6071 22.6685 16.6071 21.7735C16.6071 20.8784 17.3176 20.1479 18.1926 20.1479C19.0675 20.1479 19.7779 20.8784 19.7779 21.7735Z" fill="#3478F6"/>
<path d="M30.7884 18.7388H29.3314C29.2231 17.9441 29.0143 17.1694 28.7093 16.4269L29.9736 15.7004C30.2666 15.5319 30.4753 15.2589 30.5596 14.9338C30.6479 14.6087 30.6038 14.2676 30.4352 13.9786C30.09 13.3765 29.3194 13.1678 28.7133 13.513L27.453 14.2435C26.9634 13.6053 26.3934 13.0394 25.7593 12.5497L26.4858 11.2894C26.8349 10.6874 26.6262 9.91276 26.0242 9.56357C25.4221 9.22241 24.6515 9.43112 24.3023 10.0292L23.5759 11.2894C22.8333 10.9844 22.0587 10.7757 21.264 10.6713V9.21439C21.264 8.52003 20.6981 7.9541 20.0037 7.9541C19.3094 7.9541 18.7434 8.52003 18.7434 9.21439V10.6713C17.9487 10.7757 17.1741 10.9844 16.4316 11.2894L15.7051 10.0292C15.5365 9.73616 15.2636 9.52745 14.9385 9.43915C14.6134 9.35085 14.2722 9.39901 13.9792 9.56759C13.3772 9.91678 13.1725 10.6874 13.5217 11.2894L14.2481 12.5497C13.6099 13.0394 13.044 13.6053 12.5544 14.2435L11.2941 13.513C11.0011 13.3484 10.6599 13.3003 10.3348 13.3886C10.0097 13.4769 9.73681 13.6856 9.57225 13.9786C9.40368 14.2676 9.35548 14.6087 9.44379 14.9338C9.53209 15.2589 9.74078 15.5319 10.0338 15.7004L11.2981 16.4269C10.989 17.1734 10.7804 17.9441 10.676 18.7388H9.21905C8.52469 18.7388 7.95876 19.3047 7.95876 19.9991C7.95876 20.6934 8.52469 21.2593 9.21905 21.2593H10.676C10.7844 22.054 10.989 22.8287 11.2981 23.5712L10.0338 24.3017C9.74078 24.4703 9.53209 24.7392 9.44379 25.0683C9.35548 25.3934 9.40368 25.7305 9.57225 26.0235C9.79701 26.4129 10.2144 26.6537 10.6639 26.6537C10.8847 26.6537 11.1054 26.5935 11.2941 26.4811L12.5544 25.7546C13.044 26.3928 13.6099 26.9587 14.2481 27.4484L13.5217 28.7087C13.1725 29.3107 13.3812 30.0854 13.9792 30.4305C14.1719 30.5429 14.3926 30.6031 14.6093 30.6031C15.0589 30.6031 15.4803 30.3583 15.7051 29.969L16.4316 28.7087C17.1741 29.0137 17.9447 29.2224 18.7434 29.3268V30.7877C18.7434 31.4821 19.3094 32.044 20.0037 32.044C20.6981 32.044 21.264 31.4821 21.264 30.7877V29.3308C22.0587 29.2224 22.8333 29.0137 23.5759 28.7087L24.3063 29.973C24.5311 30.3623 24.9485 30.6031 25.394 30.6031C25.6188 30.6031 25.8355 30.5429 26.0242 30.4305C26.3172 30.262 26.5259 29.989 26.6142 29.6639C26.6985 29.3388 26.6543 28.9977 26.4858 28.7087L25.7593 27.4484C26.3934 26.9587 26.9634 26.3888 27.453 25.7546L28.7133 26.4811C28.906 26.5935 29.1227 26.6537 29.3435 26.6537C29.793 26.6537 30.2104 26.4088 30.4352 26.0195C30.7844 25.4175 30.5756 24.6469 29.9736 24.2977L28.7093 23.5712C29.0183 22.8287 29.2231 22.054 29.3314 21.2593H30.7884C31.4827 21.2593 32.0487 20.6934 32.0487 19.9991C32.0487 19.3047 31.4827 18.7388 30.7884 18.7388ZM19.9997 26.8985C16.1948 26.8985 13.1002 23.804 13.1002 19.9991C13.1002 16.1941 16.1948 13.0996 19.9997 13.0996C23.8046 13.0996 26.9031 16.1941 26.9031 19.9991C26.9031 23.804 23.8046 26.8985 19.9997 26.8985Z" fill="#3478F6"/>
<path d="M24.6021 21.3726C24.6021 22.2676 23.8917 22.9941 23.0167 22.9941C22.1417 22.9941 21.4353 22.2676 21.4353 21.3726C21.4353 20.4776 22.1458 19.7471 23.0167 19.7471C23.8877 19.7471 24.6021 20.4735 24.6021 21.3726Z" fill="#3478F6"/>
<path d="M22.1669 17.6721C21.9702 18.218 21.5046 18.6273 20.8865 18.7959C20.6818 18.8521 20.4691 18.8802 20.2444 18.8802C19.9193 18.8802 19.5941 18.82 19.2771 18.7036C18.0368 18.2501 17.3585 17.0861 17.7318 16.0546C17.9325 15.5087 18.4021 15.0994 19.0162 14.9308C19.5219 14.7943 20.0918 14.8264 20.6216 15.0231C21.1594 15.2157 21.613 15.5609 21.91 15.9864C22.2753 16.5122 22.3676 17.1262 22.1669 17.6721Z" fill="#3478F6"/>
</svg>
