<svg width="24" height="24" viewBox="0 0 24 24" fill="none" xmlns="http://www.w3.org/2000/svg">
<path d="M12.1566 0.00240291C12.1326 -5.95291e-08 12.1086 -5.95291e-08 12.0821 0.00240291H12.0701C12.0413 -5.95291e-08 12.0076 0 11.9788 0C5.37303 0 0 5.71666 0 12.7453C0 13.1466 0.0192167 13.5527 0.0528582 13.942C0.0528582 13.9492 0.0528606 13.954 0.0552636 13.9612C0.0576665 13.9901 0.0624842 14.0189 0.0672901 14.0453C0.0720961 14.079 0.0792968 14.1102 0.0889086 14.1415C0.0985205 14.1703 0.108131 14.1991 0.117743 14.2256C0.127355 14.252 0.139373 14.276 0.151388 14.3001C0.204253 14.4082 0.276346 14.5067 0.365256 14.586C0.384479 14.6028 0.403701 14.6197 0.422925 14.6341C0.430134 14.6389 0.434958 14.6437 0.442167 14.6485C0.461391 14.6629 0.483018 14.6773 0.502241 14.6893C0.526271 14.7062 0.552691 14.7206 0.579123 14.7326C0.708884 14.7999 0.855476 14.8359 1.01167 14.8359H9.40762C10.3256 14.8359 11.0705 15.5808 11.0705 16.4988V20.6751C11.0705 21.3744 10.5586 22.0016 9.86179 22.0689C9.0616 22.1457 8.38877 21.5186 8.38877 20.7352V20.1681C8.38877 19.6659 8.02112 19.2189 7.5213 19.1709C6.94699 19.1156 6.46639 19.565 6.46639 20.1273V20.6415C6.46639 22.3957 7.81206 23.9095 9.56623 23.996C11.4405 24.0873 12.9929 22.5903 12.9929 20.7376V16.5036C12.9929 15.5856 13.7378 14.8407 14.6557 14.8407H22.9435C23.0372 14.8407 23.1262 14.8287 23.2103 14.8023C23.2295 14.7975 23.2487 14.7903 23.268 14.7831C23.4626 14.7158 23.6284 14.5836 23.7413 14.4154C23.7582 14.3914 23.7726 14.3649 23.787 14.3385C23.7894 14.3385 23.7894 14.3337 23.7894 14.3337C23.8038 14.3073 23.8182 14.2808 23.8278 14.252C23.8374 14.2328 23.8446 14.2136 23.8495 14.1943C23.8687 14.1487 23.8807 14.1006 23.8879 14.0502C23.8927 14.0237 23.8975 13.9949 23.8999 13.966C23.9023 13.9588 23.9023 13.954 23.9023 13.9468C23.936 13.5527 23.9552 13.149 23.9552 12.7501C23.9552 5.78394 18.6783 0.108133 12.1566 0.00720884V0.00240291ZM2.53274 12.9135C2.18911 12.9087 1.91998 12.6108 1.932 12.2888C2.10741 7.72073 4.9285 3.87599 8.78526 2.47986C8.96068 2.41739 9.11446 2.61443 9.01353 2.77062C7.80965 4.63292 6.59616 7.63663 6.47361 12.2431C6.464 12.6156 6.15882 12.9111 5.78636 12.9111H2.53033L2.53274 12.9135ZM8.40079 12.0773C8.59063 6.52165 10.4746 3.7222 11.6136 2.52552C11.8442 2.28282 12.2335 2.28282 12.4666 2.52552C13.6056 3.71979 15.4895 6.51925 15.6794 12.0773C15.6938 12.5339 15.3261 12.9135 14.8696 12.9135H9.21059C8.75403 12.9135 8.38397 12.5339 8.40079 12.0773ZM21.4225 12.9135H18.2938C17.9213 12.9135 17.6186 12.6156 17.6065 12.2455C17.4864 7.6895 16.2993 4.70261 15.1099 2.8355C15.0089 2.67691 15.1675 2.47986 15.3429 2.54715C19.1108 3.99133 21.8502 7.79042 22.0232 12.2912C22.028 12.5579 21.7997 12.9159 21.4225 12.9135Z" fill="#3478F6"/>
</svg>
