<svg width="280" height="142" viewBox="0 0 280 142" fill="none" xmlns="http://www.w3.org/2000/svg">
<circle cx="140" cy="140" r="133.396" fill="white" stroke="#F5B740" stroke-width="13.2075"/>
<path d="M49.4173 111.604L48.2052 115.163L35.5206 110.844L37.5643 104.842C38.5959 101.813 41.0207 100.463 43.9362 101.456C46.9465 102.481 47.9295 104.992 46.898 108.021L46.0663 110.463L49.4173 111.604ZM40.7188 106.064L39.9322 108.374L42.8856 109.38L43.6722 107.07C44.0848 105.859 43.9737 105.44 42.7242 105.015C41.4746 104.589 41.1314 104.853 40.7188 106.064ZM54.0623 99.6925L52.3651 103.048L40.4079 96.9989L43.4503 90.9847C44.9761 87.9686 46.9832 87.1909 49.3747 88.4007C51.2664 89.3576 52.0741 90.6852 51.286 92.8192L51.4466 92.9004C52.3817 91.8494 53.3929 91.7557 54.6448 91.8063L57.9895 91.9293L56.0124 95.8377L52.9359 95.7606C51.648 95.7367 51.2272 95.8153 50.6585 96.9396L50.2432 97.7605L54.0623 99.6925ZM45.1212 95.1695L47.4591 96.3522L48.7411 93.818C49.2196 92.8721 49.0873 92.469 48.1414 91.9905C47.2669 91.5482 46.8817 91.6895 46.4032 92.6353L45.1212 95.1695ZM62.2674 86.0363C59.8165 89.5207 56.165 89.9843 52.746 87.5795C49.327 85.1747 48.529 81.5814 50.9799 78.097C53.4192 74.6289 57.0708 74.1653 60.4897 76.5701C63.9087 78.975 64.7067 82.5683 62.2674 86.0363ZM59.2737 83.9307C60.4589 82.2457 60.2757 81.3589 58.1655 79.8746C56.0552 78.3903 55.1587 78.5177 53.9735 80.2026C52.7769 81.9039 52.96 82.7907 55.0703 84.2751C57.1805 85.7594 58.0771 85.632 59.2737 83.9307ZM71.0015 75.2003C68.1431 78.1951 65.2977 78.1059 62.9394 75.855L56.9932 70.1796L59.5892 67.4597L65.3908 72.997C66.4759 74.0326 67.0283 74.0622 68.3539 72.6733C69.6796 71.2844 69.6243 70.734 68.5392 69.6983L62.7376 64.161L65.3336 61.4411L71.2799 67.1165C73.6382 69.3673 73.8599 72.2055 71.0015 75.2003ZM80.8396 65.8594L76.2856 69.4189L68.0336 58.8612L72.5875 55.3018C76.0542 52.5922 79.4758 53.0401 82.0869 56.3807C84.698 59.7213 84.3063 63.1498 80.8396 65.8594ZM74.5114 58.088L73.0775 59.2088L77.1666 64.4403L78.6005 63.3195C80.4599 61.8662 80.6247 61.1028 78.8881 58.8809C77.1515 56.6591 76.3709 56.6346 74.5114 58.088ZM96.3991 55.363L87.4174 60.763L80.5128 49.2788L83.7353 47.3414L88.8982 55.9288L94.6575 52.4663L96.3991 55.363ZM102.686 52.7977L99.2478 54.32L97.4178 50.187L89.0313 44.1888L93.1094 42.3831L95.9249 44.5924L97.5576 46.0568L97.7953 45.9515L97.7903 43.7665L98.047 40.1969L102.052 38.4235L100.84 48.6281L102.686 52.7977ZM119.759 47.3576L116.048 47.9648L113.884 34.7406L118.897 33.9203L121.724 38.8081L123.131 42.0838L123.388 42.0418L123.737 38.4787L124.641 32.9806L129.654 32.1603L131.818 45.3844L128.108 45.9916L127.316 41.1559L127.068 38.2781L126.812 38.3201L126.5 41.4921L125.967 44.9232L121.447 45.6627L119.848 42.5804L118.522 39.6765L118.265 39.7185L118.967 42.5219L119.759 47.3576ZM136.144 45.1946L132.264 45.1873L136.949 31.7961L142.409 31.8064L147.024 45.2151L142.904 45.2073L142.089 42.6258L137.009 42.6162L136.144 45.1946ZM138.356 38.5587L138.095 39.3382L141.035 39.3438L140.796 38.5633L139.743 35.0613L139.463 35.0608L138.356 38.5587ZM153.309 46.1087L147.594 45.2462L149.594 31.9962L155.309 32.8588C159.66 33.5154 161.686 36.309 161.053 40.5016C160.42 44.6941 157.66 46.7654 153.309 46.1087ZM154.607 36.1711L152.807 35.8995L151.816 42.4651L153.616 42.7367C155.95 43.0889 156.617 42.6841 157.038 39.8957C157.459 37.1072 156.94 36.5233 154.607 36.1711ZM171.789 50.4454L161.417 47.3651L165.232 34.5196L175.604 37.5998L174.642 40.84L167.874 38.8301L167.413 40.3831L173.893 42.3075L172.936 45.5285L166.456 43.6041L165.984 45.1954L172.752 47.2052L171.789 50.4454ZM184.532 56.0025L181.193 54.2731L187.357 42.3746L190.695 44.1041L184.532 56.0025ZM189.567 59.1012L186.431 57.0271L193.822 45.8501L197.175 48.0676L196.974 55.1519L196.804 57.0053L197.02 57.1487L197.758 55.6704L201.079 50.6492L204.198 52.7122L196.807 63.8891L193.47 61.6827L193.596 55.0757L193.743 52.8952L193.526 52.7518L192.645 54.4469L189.567 59.1012ZM207.448 73.0347L204.774 70.3921L214.191 60.8598L216.866 63.5024L207.448 73.0347ZM211.347 77.4919L208.964 74.5836L219.329 66.0902L221.877 69.1996L219.591 75.908L218.88 77.6282L219.045 77.8293L220.187 76.6351L224.843 72.8194L227.214 75.7122L216.849 84.2056L214.314 81.1117L216.386 74.8368L217.171 72.7972L217.006 72.5961L215.663 73.9551L211.347 77.4919ZM220.974 90.6346L218.012 85.6716L229.518 78.8032L232.48 83.7662C234.736 87.5442 233.864 90.883 230.223 93.0563C226.582 95.2296 223.23 94.4126 220.974 90.6346ZM229.476 85.3269L228.543 83.7642L222.841 87.1676L223.774 88.7304C224.984 90.7568 225.721 91.0157 228.142 89.5702C230.563 88.1248 230.685 87.3533 229.476 85.3269ZM226.87 101.323L225.279 97.9163L237.42 92.2456L239.011 95.6523L226.87 101.323ZM228.555 105.761L227.294 102.092L241.481 102.142L243.256 107.305L232.093 116.05L230.753 112.154L232.927 110.539L231.275 105.735L228.555 105.761ZM235.55 105.683L234.728 105.69L235.684 108.471L236.343 107.99L239.309 105.85L239.217 105.585L235.55 105.683Z" fill="#212121"/>
<path d="M37.9596 121.607C38.241 120.798 39.3857 120.798 39.6671 121.607L40.8382 124.976C40.9623 125.333 41.2956 125.575 41.6736 125.583L45.2397 125.656C46.0965 125.673 46.4502 126.762 45.7673 127.28L42.925 129.435C42.6237 129.663 42.4965 130.055 42.6059 130.417L43.6388 133.831C43.887 134.651 42.9608 135.324 42.2574 134.834L39.3296 132.797C39.0193 132.581 38.6074 132.581 38.2971 132.797L35.3693 134.834C34.6659 135.324 33.7398 134.651 33.9879 133.831L35.0208 130.417C35.1303 130.055 35.003 129.663 34.7017 129.435L31.8594 127.28C31.1765 126.762 31.5303 125.673 32.3871 125.656L35.9532 125.583C36.3311 125.575 36.6644 125.333 36.7885 124.976L37.9596 121.607Z" fill="#3478F6"/>
<path d="M241.096 121.607C241.378 120.798 242.522 120.798 242.804 121.607L243.975 124.976C244.099 125.333 244.432 125.575 244.81 125.583L248.376 125.656C249.233 125.673 249.587 126.762 248.904 127.28L246.062 129.435C245.76 129.663 245.633 130.055 245.743 130.417L246.776 133.831C247.024 134.651 246.098 135.324 245.394 134.834L242.466 132.797C242.156 132.581 241.744 132.581 241.434 132.797L238.506 134.834C237.803 135.324 236.876 134.651 237.125 133.831L238.158 130.417C238.267 130.055 238.14 129.663 237.838 129.435L234.996 127.28C234.313 126.762 234.667 125.673 235.524 125.656L239.09 125.583C239.468 125.575 239.801 125.333 239.925 124.976L241.096 121.607Z" fill="#3478F6"/>
<circle cx="140" cy="141.556" r="70" fill="white" stroke="#97F453" stroke-width="15.5556"/>
<g clip-path="url(#clip0_294_724)">
<mask id="mask0_294_724" style="mask-type:luminance" maskUnits="userSpaceOnUse" x="93" y="94" width="93" height="47">
<path d="M93.332 140.721C93.332 115.175 114.042 94.4648 139.59 94.4648C165.136 94.4648 185.846 115.175 185.846 140.721H93.332Z" fill="white"/>
</mask>
<g mask="url(#mask0_294_724)">
<path d="M139.59 94.4648C165.136 94.4648 185.846 115.175 185.846 140.721C185.846 166.269 165.136 186.979 139.59 186.979C114.042 186.979 93.332 166.269 93.332 140.721C93.332 115.175 114.042 94.4648 139.59 94.4648Z" fill="#3478F6"/>
<path d="M139.592 100.821C161.627 100.821 179.491 118.685 179.491 140.72C179.491 162.757 161.627 180.621 139.592 180.621C117.555 180.621 99.6914 162.757 99.6914 140.72C99.6914 118.685 117.555 100.821 139.592 100.821Z" fill="white"/>
<path d="M139.59 132.741C143.997 132.741 147.569 136.313 147.569 140.72C147.569 145.129 143.997 148.701 139.59 148.701C135.183 148.701 131.609 145.129 131.609 140.72C131.609 136.313 135.183 132.741 139.59 132.741Z" fill="#3478F6"/>
<path d="M99.6914 140.723L123.632 142.093L135.033 140.723L123.632 139.355L99.6914 140.723Z" fill="#3478F6"/>
<path d="M101.051 130.394L123.822 137.911L135.187 139.54L124.53 135.269L101.051 130.394Z" fill="#3478F6"/>
<path d="M105.035 120.771L125.083 133.926L135.64 138.442L126.451 131.557L105.035 120.771Z" fill="#3478F6"/>
<path d="M111.375 112.507L127.337 130.401L136.365 137.495L129.271 128.467L111.375 112.507Z" fill="#3478F6"/>
<path d="M119.645 106.168L130.429 127.585L137.313 136.773L132.799 126.218L119.645 106.168Z" fill="#3478F6"/>
<path d="M129.262 102.182L134.137 125.661L138.408 136.318L136.779 124.952L129.262 102.182Z" fill="#3478F6"/>
<path d="M99.7699 137.493C98.677 137.348 97.9083 136.347 98.0526 135.254C98.1968 134.161 99.198 133.393 100.291 133.537C101.384 133.681 102.152 134.682 102.008 135.775C101.864 136.868 100.863 137.637 99.7699 137.493Z" fill="#3478F6"/>
<path d="M139.587 100.821L138.219 124.76L139.587 136.161L140.954 124.76L139.587 100.821Z" fill="#3478F6"/>
<path d="M101.963 127.296C100.944 126.874 100.461 125.708 100.883 124.69C101.304 123.672 102.472 123.188 103.49 123.609C104.508 124.031 104.992 125.199 104.569 126.217C104.148 127.234 102.981 127.717 101.963 127.296Z" fill="#3478F6"/>
<path d="M149.912 102.182L142.395 124.952L140.766 136.318L145.039 125.661L149.912 102.182Z" fill="#3478F6"/>
<path d="M106.719 118.017C105.843 117.345 105.679 116.093 106.351 115.219C107.021 114.345 108.274 114.18 109.147 114.851C110.021 115.523 110.186 116.775 109.516 117.649C108.845 118.523 107.593 118.687 106.719 118.017Z" fill="#3478F6"/>
<path d="M159.538 106.168L146.383 126.218L141.867 136.773L148.753 127.585L159.538 106.168Z" fill="#3478F6"/>
<path d="M113.714 110.281C113.042 109.407 113.208 108.155 114.082 107.484C114.956 106.814 116.208 106.979 116.879 107.853C117.549 108.727 117.384 109.979 116.51 110.649C115.636 111.321 114.384 111.157 113.714 110.281Z" fill="#3478F6"/>
<path d="M167.802 112.507L149.906 128.467L142.812 137.495L151.84 130.401L167.802 112.507Z" fill="#3478F6"/>
<path d="M122.477 104.624C122.055 103.605 122.538 102.438 123.556 102.017C124.575 101.595 125.742 102.078 126.163 103.096C126.585 104.115 126.102 105.28 125.084 105.703C124.065 106.124 122.898 105.64 122.477 104.624Z" fill="#3478F6"/>
<path d="M174.148 120.771L152.732 131.557L143.543 138.442L154.1 133.926L174.148 120.771Z" fill="#3478F6"/>
<path d="M132.404 101.419C132.261 100.328 133.03 99.3253 134.121 99.1811C135.214 99.0385 136.217 99.8073 136.359 100.9C136.504 101.991 135.735 102.994 134.642 103.138C133.549 103.281 132.548 102.512 132.404 101.419Z" fill="#3478F6"/>
<path d="M178.127 130.394L154.649 135.269L143.992 139.54L155.357 137.911L178.127 130.394Z" fill="#3478F6"/>
<path d="M142.822 100.9C142.966 99.8073 143.969 99.0385 145.06 99.1811C146.153 99.3253 146.922 100.328 146.777 101.419C146.635 102.512 145.632 103.281 144.539 103.138C143.448 102.994 142.679 101.991 142.822 100.9Z" fill="#3478F6"/>
<path d="M179.488 140.723L155.549 139.355L144.148 140.723L155.549 142.093L179.488 140.723Z" fill="#3478F6"/>
<path d="M153.011 103.096C153.434 102.078 154.601 101.595 155.618 102.017C156.636 102.438 157.12 103.605 156.699 104.624C156.276 105.64 155.109 106.124 154.092 105.703C153.074 105.28 152.59 104.115 153.011 103.096Z" fill="#3478F6"/>
<path d="M162.296 107.853C162.966 106.979 164.219 106.814 165.093 107.484C165.967 108.155 166.131 109.407 165.461 110.281C164.791 111.157 163.538 111.321 162.664 110.649C161.789 109.979 161.624 108.727 162.296 107.853Z" fill="#3478F6"/>
<path d="M170.031 114.851C170.905 114.18 172.157 114.345 172.828 115.219C173.5 116.093 173.333 117.345 172.459 118.017C171.586 118.687 170.333 118.523 169.663 117.649C168.991 116.775 169.157 115.523 170.031 114.851Z" fill="#3478F6"/>
<path d="M175.686 123.609C176.702 123.188 177.87 123.672 178.293 124.69C178.713 125.708 178.23 126.874 177.212 127.296C176.195 127.717 175.028 127.234 174.605 126.217C174.184 125.199 174.668 124.031 175.686 123.609Z" fill="#3478F6"/>
<path d="M178.887 133.537C179.978 133.393 180.981 134.161 181.125 135.254C181.268 136.347 180.499 137.348 179.408 137.493C178.315 137.637 177.312 136.868 177.17 135.775C177.025 134.682 177.794 133.681 178.887 133.537Z" fill="#3478F6"/>
</g>
</g>
<defs>
<clipPath id="clip0_294_724">
<rect width="93.3333" height="47.5152" fill="white" transform="translate(93.332 94.4629)"/>
</clipPath>
</defs>
</svg>
