<svg width="55" height="60" viewBox="0 0 55 60" fill="none" xmlns="http://www.w3.org/2000/svg">
<path d="M53.9599 34.2747C54.1373 35.1616 53.7825 36.2554 52.6059 36.693L47.1428 38.1179C46.9122 38.177 46.7407 38.3721 46.7112 38.6145C46.6816 38.8569 46.7939 39.0757 47.0068 39.1939C47.5153 39.4659 48.0474 39.732 48.5677 39.9921L48.7155 40.069C49.9098 40.6602 51.2638 41.3283 52.2453 42.0674C52.7892 42.4754 53.138 43.0725 53.1972 43.7052C53.2977 44.6926 52.801 45.5735 51.9319 45.9519C51.1455 46.3008 50.5365 45.9933 49.8743 45.6563L49.7325 45.5854C48.7628 45.0946 47.8168 44.5152 46.9003 43.9535L46.7112 43.8352C46.1377 43.4746 45.6114 43.1553 45.0793 42.8419C44.8665 42.7237 44.6182 42.7355 44.429 42.8833C44.2398 43.0252 44.157 43.2558 44.2161 43.4864L45.6351 49.1447C45.6529 50.2148 44.9907 51.0781 43.9914 51.2909C43.1341 51.4683 42.0344 51.1313 41.5377 49.9665L38.9658 40.5775C38.7175 39.6788 38.144 38.9279 37.3458 38.4785L30.6942 34.659C30.3691 34.4699 29.9848 34.4758 29.6655 34.659C29.3462 34.8423 29.1511 35.1794 29.1511 35.5459V43.2085C29.1511 44.1427 29.5117 45.0177 30.1739 45.674L36.9319 52.4261C37.665 53.242 37.7182 54.4009 37.0679 55.2405C36.4293 56.0564 35.371 56.2692 34.4427 55.7903L34.3245 55.7016L30.1444 51.6279C29.9729 51.4624 29.7305 51.4151 29.5117 51.5097C29.2871 51.6043 29.1511 51.8112 29.1511 52.0477V58.173C29.1511 58.5692 28.9678 58.9594 28.6249 59.2905C28.1873 59.7162 27.5251 60 26.9753 60H26.928C26.118 59.9764 24.8645 59.1782 24.8645 58.173V52.03C24.8645 51.7876 24.7285 51.5806 24.5097 51.4919C24.4329 51.4565 24.3561 51.4446 24.2792 51.4446C24.1314 51.4446 23.9895 51.4978 23.8771 51.6043L19.4782 55.8435L19.36 55.9026C18.4258 56.2633 17.4266 55.9618 16.8708 55.1399C16.2855 54.2826 16.3682 53.2006 17.0718 52.4498L23.8475 45.674C24.5038 45.0237 24.8645 44.1486 24.8645 43.2085V35.5459C24.8645 35.1794 24.6753 34.8423 24.3502 34.659C24.0309 34.4699 23.6465 34.4699 23.3272 34.659L16.6816 38.4726C15.8716 38.9338 15.2981 39.6788 15.0557 40.5775L12.4837 49.9547C11.9871 51.1313 10.8933 51.4683 10.03 51.2909C9.02491 51.0721 8.36275 50.2089 8.38049 49.1683L9.80535 43.4982C9.85856 43.2617 9.77579 43.0311 9.58659 42.8833C9.39739 42.7414 9.14909 42.7237 8.94215 42.8479C8.48098 43.1139 8.02575 43.3918 7.5764 43.6697L7.27486 43.853C6.31112 44.4501 5.31188 45.0651 4.28902 45.5854L4.14713 45.6563C3.44945 46.011 2.79316 46.3422 1.92994 45.881C1.29139 45.5381 0.871588 44.8936 0.806551 44.1486C0.741513 43.3682 1.06669 42.6173 1.68159 42.1443C2.66898 41.3697 4.15894 40.6366 5.4656 39.9862L5.58974 39.9212C6.07456 39.6847 6.55942 39.4363 7.02651 39.1939C7.24527 39.0816 7.35762 38.8569 7.33397 38.6145C7.30441 38.3721 7.13296 38.177 6.90237 38.1119L1.17904 36.6043C0.256692 36.1135 -0.180819 35.1202 0.0852437 34.1269C0.357218 33.1395 1.22045 32.5187 2.2374 32.5601L11.9162 35.1143C12.803 35.3567 13.7312 35.2326 14.5294 34.7773L21.3052 30.9283C21.6304 30.7391 21.8255 30.408 21.8255 30.0296C21.8255 29.6512 21.6304 29.3201 21.3052 29.1368L14.5058 25.2877C13.7017 24.8384 12.7794 24.7201 11.9102 24.9507L2.39113 27.4222C1.33871 27.5108 0.445868 26.9669 0.120681 26.0268C-0.210419 25.069 0.156168 24.0402 1.01939 23.4785L1.20271 23.3898L6.84319 21.8821C7.07377 21.823 7.23938 21.6338 7.26894 21.3914C7.2985 21.1549 7.19208 20.9302 6.97923 20.812C6.37025 20.4691 5.74352 20.1261 5.12862 19.795L5.06359 19.7596C3.89883 19.1328 2.69265 18.4825 1.56337 17.7611L1.43331 17.6547C0.729723 16.8683 0.575984 15.8218 1.04898 14.9941C1.50425 14.1959 2.42656 13.8293 3.45534 14.0363L3.52628 14.0481L8.9244 17.0694C9.13133 17.1876 9.3797 17.1699 9.56299 17.0221C9.75219 16.8802 9.83496 16.6437 9.77583 16.419L8.39818 11.0386C8.24445 9.92707 8.87708 8.95743 9.94725 8.67954C11.0174 8.40165 12.0522 8.92787 12.4483 9.95664L15.0557 19.4285C15.2981 20.3153 15.8716 21.0603 16.6757 21.5215L23.3272 25.341C23.6465 25.5242 24.0309 25.5242 24.3502 25.341C24.6753 25.1518 24.8645 24.8207 24.8645 24.4482V16.7797C24.8645 15.8514 24.5038 14.9823 23.8475 14.326L17.0896 7.56799C16.3505 6.75798 16.3032 5.62868 16.9654 4.77137C17.6039 3.94953 18.6623 3.73078 19.5728 4.20378L19.697 4.29246L23.8771 8.3721C24.0427 8.53765 24.2851 8.58494 24.5097 8.49034C24.7285 8.40165 24.8645 8.19471 24.8645 7.9523V1.82696C24.8645 0.815922 26.118 0.02365 26.9221 0C27.4956 0 28.1933 0.295614 28.6249 0.709489C28.9678 1.04059 29.1511 1.42491 29.1511 1.82696V7.9523C29.1511 8.19471 29.2871 8.40165 29.5117 8.49034C29.7305 8.58494 29.9729 8.53765 30.1444 8.3721L34.3659 4.25109L34.4723 4.19788C35.6371 3.6894 36.6481 4.18013 37.1389 4.89555C37.6355 5.62278 37.7242 6.7698 36.8077 7.69806L30.168 14.326C29.5117 14.9882 29.1511 15.8632 29.1511 16.7856V24.4482C29.1511 24.8207 29.3462 25.1518 29.6655 25.341C29.9848 25.5242 30.3691 25.5242 30.6942 25.341L37.3458 21.5215C38.144 21.0662 38.7175 20.3212 38.9658 19.4285L41.5732 9.96846C41.9753 8.92786 43.0041 8.39574 44.0742 8.67954C45.1385 8.95743 45.777 9.92708 45.6233 11.0327L44.2456 16.4131C44.1865 16.6437 44.2634 16.8802 44.4526 17.0221C44.6418 17.164 44.8901 17.1876 45.0971 17.0694L50.4478 14.0658L50.5661 14.0363C51.5831 13.8293 52.4995 14.19 52.9607 14.9704C53.4277 15.7686 53.2977 16.7974 52.6414 17.5778L52.4995 17.6961C51.3407 18.4706 50.1108 19.1387 48.745 19.8778C48.1774 20.1853 47.5981 20.5045 47.0305 20.8238C46.8176 20.948 46.7053 21.1726 46.7348 21.4091C46.7644 21.6516 46.93 21.8348 47.1665 21.8999L52.9015 23.4194L53.0021 23.4726C53.8653 24.0402 54.226 25.0572 53.8949 26.015C53.5697 26.9669 52.6769 27.5227 51.6422 27.4281L42.1763 24.9034C41.2776 24.661 40.3138 24.7911 39.5334 25.2641C38.345 25.9558 37.0915 26.6417 35.909 27.2802C34.8507 27.8597 33.7214 28.4746 32.6394 29.1013C32.3142 29.2905 32.125 29.6275 32.125 30C32.125 30.3725 32.3201 30.7036 32.6453 30.8869L39.498 34.7773C40.2902 35.2326 41.2184 35.3508 42.1112 35.1143L51.7723 32.5601C51.8137 32.5601 51.8551 32.5601 51.8964 32.5601C52.9075 32.5601 53.7471 33.2696 53.9599 34.2806V34.2747Z" fill="#3478F6"/>
</svg>
