<svg width="333" height="679" viewBox="0 0 333 679" fill="none" xmlns="http://www.w3.org/2000/svg">
<path opacity="0.2" d="M364.435 -186.451C326.785 -126.679 293.555 -63.5191 265.191 2.46875C261.666 10.439 270.498 18.3675 278.018 14.0928L278.019 14.0938C356.687 -29.8783 462.676 -72.0741 610.906 -104.854L634.756 3.52246C487.076 36.3198 386.976 78.1893 315.297 121.035L311.889 123.086C304.913 127.281 306.652 137.481 314.263 139.72L314.271 139.722L314.28 139.725C430.309 172.794 541.933 232.384 642.919 316.258L571.59 401.453C505.685 346.702 408.531 282.359 286.086 247.129L286.07 247.124L286.056 247.12L285.669 247.022C277.564 245.153 271 254.342 276.17 261.336L278.727 264.795L278.822 264.507C352.268 366.852 396.466 481.185 420.799 630.881L311.085 648.742C289.45 516.303 250.963 415.681 186.117 326.239L184.571 324.117C179.836 317.568 169.631 319.878 168.11 327.783L168.108 327.795L168.105 327.807C124.484 568.589 135.206 824.96 204.494 1065.99H89.1709C26.1786 829.428 15.2517 580.182 52.9648 343.096L52.9678 343.078L52.9697 343.061C53.5777 338.804 51.3104 335.255 48.1592 333.575C44.9916 331.887 40.805 332.028 37.6729 335.13C-13.0709 383.692 -66.9738 451.58 -108.495 529.898L-206.896 478.201C-153.407 376.949 -76.665 282.358 -0.333984 220.082L-0.331055 220.08C6.22336 214.717 2.60331 203.92 -5.91602 203.879L-6.30664 203.885C-100.66 206.41 -177.702 233.496 -247.229 264.897L-293.038 163.626C-206.952 125.268 -104.965 89.878 23.9346 92.8438C32.0339 93.1177 36.5128 83.0944 30.6191 77.3369L30.3301 77.0654C-6.94136 42.3244 -52.2158 15.7661 -106.22 -3.41699L-69.6123 -108.36C8.5364 -80.7667 73.978 -39.0938 125.863 15.7471V15.748C130.442 20.6315 138.552 19.1126 141 12.8398L141.004 12.8301C176.106 -78.4126 219.374 -165.335 270.579 -246.138L364.435 -186.451Z" fill="white" fill-opacity="0.4" stroke="white" stroke-width="4.46971"/>
</svg>
