<svg width="43" height="60" viewBox="0 0 43 60" fill="none" xmlns="http://www.w3.org/2000/svg">
<path d="M26.1452 23.176C29.5875 27.9163 31.6423 33.2084 32.7617 40.1664L27.5642 41.0125C26.5762 34.8953 24.8051 30.2759 21.8043 26.1715C21.6414 25.9455 21.2893 26.0243 21.2367 26.2976C19.245 37.2918 19.7442 49.0006 22.929 60H17.4634C14.573 49.1898 14.0685 37.7963 15.7922 26.9598C15.8343 26.6655 15.4822 26.4711 15.2667 26.6865C12.9439 28.9095 10.4739 32.0259 8.58194 35.6206L3.92047 33.1716C6.3642 28.5154 9.89051 24.1587 13.4011 21.2946C13.6323 21.1054 13.4957 20.727 13.1961 20.7375C8.87624 20.8531 5.35517 22.1039 2.17045 23.5491L0 18.751C3.94675 16.9852 8.63449 15.3403 14.573 15.4769C14.8568 15.4874 15.0092 15.1301 14.7937 14.9356C13.0857 13.3433 11.0046 12.1293 8.51362 11.2569L10.2479 6.28536C13.8635 7.54664 16.8906 9.46483 19.287 11.9979C19.4447 12.1661 19.7232 12.1135 19.8073 11.898C21.4207 7.7043 23.4125 3.71026 25.7721 0L30.2181 2.82737C28.4838 5.57064 26.9545 8.47158 25.6512 11.5039C25.5303 11.7772 25.8352 12.0505 26.0927 11.9033C29.7031 9.88526 34.5695 7.9513 41.3804 6.45354L42.5103 11.588C35.6311 13.1068 31.0169 15.0565 27.7376 17.043C27.5011 17.1849 27.5537 17.537 27.8217 17.6158C33.1506 19.1346 38.2745 21.8779 42.9044 25.7406L39.5253 29.7766C36.5297 27.2751 32.089 24.3164 26.4816 22.703C26.1925 22.6242 25.9613 22.95 26.14 23.1917L26.1452 23.176Z" fill="#3478F6"/>
</svg>
