<svg width="40" height="40" viewBox="0 0 40 40" fill="none" xmlns="http://www.w3.org/2000/svg">
<path d="M17.0942 23.9939C14.1754 23.9939 11.8126 26.3567 11.8126 29.2755C11.8126 32.1943 14.1754 34.5532 17.0942 34.5532C20.013 34.5532 22.3719 32.1904 22.3719 29.2755C22.3719 26.3607 20.009 23.9939 17.0942 23.9939ZM17.0942 31.3763C15.9346 31.3763 14.9895 30.4351 14.9895 29.2755C14.9895 28.116 15.9346 27.1708 17.0942 27.1708C18.2538 27.1708 19.1949 28.116 19.1949 29.2755C19.1949 30.4351 18.2538 31.3763 17.0942 31.3763Z" fill="#3478F6"/>
<path d="M22.6735 20.1179C21.9984 19.7049 21.5894 18.9742 21.5894 18.1839V4.75741C21.5894 2.13645 19.3537 0.0396811 16.6811 0.270008C14.3341 0.476509 12.5828 2.53755 12.5828 4.89244V18.1958C12.5828 18.9781 12.1817 19.7128 11.5146 20.1218C8.34163 22.0598 6.2528 25.602 6.38385 29.6288C6.55858 35.0931 10.9388 39.6282 16.3951 39.9776C22.6338 40.3787 27.8241 35.4306 27.8241 29.2793C27.8241 25.3995 25.7631 22.0002 22.6775 20.1218L22.6735 20.1179ZM16.2283 36.7729C12.7337 36.3798 9.92215 33.5245 9.58461 30.0259C9.2828 26.9205 10.8792 24.1526 13.3413 22.7349C14.8106 21.889 15.7637 20.376 15.7637 18.6803V18.5056H15.7518V4.82493C15.7518 4.17366 16.1926 3.57004 16.8359 3.45487C17.6778 3.30794 18.4045 3.95127 18.4045 4.76139V9.91198H18.4125V18.6763C18.4125 20.3641 19.3536 21.885 20.819 22.719C23.0985 24.0175 24.6353 26.4717 24.6353 29.2754C24.6353 33.7191 20.7713 37.2812 16.2244 36.7729H16.2283Z" fill="#3478F6"/>
<path d="M32.0338 3.17693H25.9579C25.0803 3.17693 24.3694 2.46609 24.3694 1.58846C24.3694 0.710837 25.0803 0 25.9579 0H32.0338C32.9114 0 33.6222 0.710837 33.6222 1.58846C33.6222 2.46609 32.9114 3.17693 32.0338 3.17693Z" fill="#3478F6"/>
<path d="M32.0338 9.20891H25.9579C25.0803 9.20891 24.3694 8.49807 24.3694 7.62045C24.3694 6.74282 25.0803 6.03198 25.9579 6.03198H32.0338C32.9114 6.03198 33.6222 6.74282 33.6222 7.62045C33.6222 8.49807 32.9114 9.20891 32.0338 9.20891Z" fill="#3478F6"/>
<path d="M32.0338 15.2409H25.9579C25.0803 15.2409 24.3694 14.5301 24.3694 13.6524C24.3694 12.7748 25.0803 12.064 25.9579 12.064H32.0338C32.9114 12.064 33.6222 12.7748 33.6222 13.6524C33.6222 14.5301 32.9114 15.2409 32.0338 15.2409Z" fill="#3478F6"/>
</svg>
