<svg width="40" height="40" viewBox="0 0 40 40" fill="none" xmlns="http://www.w3.org/2000/svg">
<path d="M20.2686 2.00336C20.2325 1.99976 20.1965 1.99976 20.1568 2.00336H20.1388C20.0955 1.99976 20.0451 1.99976 20.0018 1.99976C10.0932 1.99976 2.03363 10.5747 2.03363 21.1178C2.03363 21.7197 2.06246 22.3289 2.11292 22.9128C2.11292 22.9236 2.11292 22.9308 2.11653 22.9416C2.12013 22.9849 2.12736 23.0281 2.13457 23.0678C2.14177 23.1182 2.15258 23.1651 2.16699 23.212C2.18141 23.2552 2.19583 23.2985 2.21024 23.3381C2.22466 23.3778 2.24269 23.4138 2.26071 23.4498C2.34001 23.612 2.44815 23.7598 2.58151 23.8788C2.61035 23.904 2.63918 23.9292 2.66802 23.9509C2.67883 23.9581 2.68607 23.9653 2.69688 23.9725C2.72572 23.9941 2.75816 24.0157 2.78699 24.0338C2.82304 24.059 2.86267 24.0806 2.90232 24.0986C3.09696 24.1996 3.31684 24.2536 3.55113 24.2536H16.1451C17.522 24.2536 18.6394 25.371 18.6394 26.7479V33.0125C18.6394 34.0613 17.8716 35.0021 16.8263 35.103C15.626 35.2184 14.6168 34.2776 14.6168 33.1026V32.2519C14.6168 31.4986 14.0653 30.8282 13.3156 30.7561C12.4541 30.6732 11.7332 31.3472 11.7332 32.1906V32.962C11.7332 35.5932 13.7517 37.864 16.383 37.9938C19.1944 38.1308 21.5229 35.8852 21.5229 33.1062V26.7551C21.5229 25.3782 22.6403 24.2608 24.0172 24.2608H36.4489C36.5895 24.2608 36.7229 24.2428 36.8491 24.2032C36.8779 24.196 36.9067 24.1852 36.9356 24.1743C37.2275 24.0734 37.4762 23.8752 37.6456 23.6229C37.6709 23.5868 37.6925 23.5472 37.7141 23.5075C37.7177 23.5075 37.7177 23.5003 37.7177 23.5003C37.7393 23.4607 37.761 23.421 37.7754 23.3778C37.7898 23.3489 37.8006 23.3201 37.8078 23.2912C37.8366 23.2228 37.8547 23.1507 37.8655 23.075C37.8727 23.0353 37.8799 22.9921 37.8835 22.9488C37.8871 22.938 37.8871 22.9308 37.8871 22.92C37.9376 22.3289 37.9664 21.7233 37.9664 21.125C37.9664 10.6757 30.0511 2.16196 20.2686 2.01057V2.00336ZM5.83274 21.3701C5.3173 21.3629 4.9136 20.9159 4.93162 20.4329C5.19475 13.5809 9.42638 7.81374 15.2115 5.71955C15.4746 5.62583 15.7053 5.9214 15.5539 6.15569C13.7481 8.94914 11.9279 13.4547 11.744 20.3644C11.7296 20.9231 11.2719 21.3665 10.7132 21.3665H5.82913L5.83274 21.3701ZM14.6348 20.1157C14.9196 11.7822 17.7455 7.58305 19.454 5.78803C19.8 5.42398 20.3839 5.42398 20.7335 5.78803C22.442 7.57945 25.2679 11.7786 25.5527 20.1157C25.5743 20.8006 25.0228 21.3701 24.338 21.3701H15.8495C15.1647 21.3701 14.6096 20.8006 14.6348 20.1157ZM34.1673 21.3701H29.4743C28.9156 21.3701 28.4615 20.9231 28.4435 20.368C28.2632 13.534 26.4826 9.05367 24.6984 6.25301C24.547 6.01511 24.7849 5.71955 25.048 5.82047C30.6998 7.98675 34.8089 13.6854 35.0684 20.4365C35.0756 20.8366 34.7332 21.3737 34.1673 21.3701Z" fill="#3478F6"/>
</svg>
