<svg overflow="visible" style="display: block;" viewBox="106.285 28 57.43 24" fill="none" xmlns="http://www.w3.org/2000/svg">
<g id="Frame 2147224291">
<path id="Vector" d="M155.918 38.4366C154.947 38.6635 152.383 38.789 152.383 38.789L152.068 39.8113C152.068 39.8113 153.337 39.7028 154.267 39.795C154.267 39.795 154.565 39.7695 154.599 40.1297C154.615 40.4983 154.574 40.884 154.574 40.884C154.574 40.884 154.549 41.1109 154.242 41.1691C153.885 41.2279 151.479 41.3364 151.479 41.3364L151.089 42.6608C151.089 42.6608 150.948 42.9621 151.272 42.8785C151.57 42.7948 154.093 42.3091 154.424 42.3758C154.773 42.4594 155.171 42.9458 155.055 43.3818C154.922 43.9093 152.4 45.5351 150.873 45.4266C150.873 45.4266 150.068 45.4762 149.396 44.3787C148.749 43.3315 149.62 41.3619 149.62 41.3619C149.62 41.3619 149.23 40.4402 149.521 40.1049C149.521 40.1049 149.687 39.9623 150.185 39.9205L150.807 38.6301C150.807 38.6301 150.102 38.672 149.687 38.1523C149.305 37.6489 149.272 37.4312 149.571 37.2972C149.886 37.1299 152.807 36.6024 154.814 36.669C154.814 36.669 155.52 36.5847 156.142 37.8169C156.142 37.8169 156.424 38.3203 155.926 38.4373M148.351 43.3981C148.102 44.01 147.413 44.6552 146.584 44.2617C145.737 43.859 144.401 41.1102 144.401 41.1102C144.401 41.1102 143.904 40.0878 143.804 40.1212C143.804 40.1212 143.697 39.9205 143.638 41.0429C143.556 42.1581 143.655 44.3284 143.199 44.6722C142.783 45.0076 142.286 44.8651 142.004 44.4709C141.772 44.0774 141.672 43.1301 141.805 41.4789C141.954 39.8283 142.328 38.0686 142.8 37.5234C143.298 36.9704 143.697 37.3724 143.846 37.5234C143.846 37.5234 144.484 38.1104 145.563 39.8446L145.746 40.1637C145.746 40.1637 146.725 41.8142 146.824 41.8057C146.824 41.8057 146.907 41.8901 146.974 41.8228C147.073 41.7979 147.04 41.2612 147.04 41.2612C147.04 41.2612 146.857 39.476 145.945 36.4592C145.945 36.4592 145.812 36.0735 145.904 35.7048C145.987 35.3695 146.343 35.5375 146.343 35.5375C146.343 35.5375 147.72 36.2075 148.392 38.4706C149.056 40.733 148.608 42.7863 148.359 43.3981M141.597 37.5907C141.465 37.8247 141.406 38.1523 140.834 38.2444C140.834 38.2444 135.275 38.6379 135.001 39.0314C135.001 39.0314 134.819 39.2668 135.117 39.3257C135.433 39.3923 136.694 39.5596 137.291 39.5937C137.938 39.5937 140.113 39.61 140.909 40.599C140.909 40.599 141.365 41.0684 141.348 42.1326C141.331 43.2223 141.141 43.6073 140.717 44.0015C140.278 44.3702 136.511 46.0803 134.08 43.4655C134.08 43.4655 132.968 42.2085 134.47 41.2534C134.47 41.2534 135.549 40.5827 138.312 41.3619C138.312 41.3619 139.141 41.6632 139.108 41.9738C139.058 42.3091 138.42 42.6438 137.49 42.6275C136.594 42.6019 135.93 42.1666 136.063 42.2418C136.188 42.2843 135.092 41.7058 134.752 42.1C134.42 42.4687 134.504 42.6856 134.835 42.9125C135.664 43.3981 138.926 43.2223 139.896 42.1248C139.896 42.1248 140.286 41.6802 139.697 41.3201C139.116 40.9847 137.424 40.7756 136.768 40.75C136.146 40.7167 133.815 40.75 133.466 40.1382C133.466 40.1382 133.134 39.7028 133.499 38.5124C133.881 37.2554 136.594 36.769 137.772 36.669C137.772 36.669 141.008 36.5343 141.614 37.205C141.614 37.205 141.697 37.3561 141.597 37.5822M132.421 44.9572C132.031 45.2501 131.201 45.1246 130.96 44.7892C130.728 44.4964 130.645 43.3393 130.686 41.5207C130.745 39.6603 130.769 37.3809 131.184 37.0122C131.599 36.652 131.848 36.9704 132.014 37.2136C132.18 37.4653 132.396 37.7418 132.429 38.3196C132.479 38.9066 132.62 41.9234 132.62 41.9234C132.62 41.9234 132.802 44.6722 132.428 44.9572M133.251 35.1518C132.105 35.546 131.325 35.4198 130.662 35.127C130.371 35.6545 130.197 35.814 129.981 35.8473C129.649 35.8813 129.359 35.3446 129.317 35.1773C129.251 35.0511 129.093 34.8249 129.284 34.3138C128.637 33.7274 128.587 32.9397 128.703 32.4115C128.852 31.7911 129.948 29.4621 133.267 29.1856C133.267 29.1856 134.893 29.0679 135.175 29.9392H135.225C135.225 29.9392 136.802 29.9392 136.768 31.3643C136.768 32.7887 135.026 34.5654 133.25 35.1773M134.727 31.0956C133.682 31.2636 132.072 32.671 131.3 33.8359C132.487 34.0543 134.562 33.9706 135.491 32.0762C135.491 32.0762 135.93 30.8865 134.727 31.0956ZM130.139 32.0173C129.807 32.5625 129.79 32.8894 129.948 33.107C130.338 32.5207 131.027 31.5983 132.064 30.8779C131.267 30.9616 130.595 31.297 130.139 32.0173ZM158.407 44.8984C157.644 46.7921 156.996 48.7114 156.623 51.5857C156.623 51.5857 156.54 52.1472 156.084 51.9629C155.628 51.7955 154.881 51.0412 154.715 49.9769C154.549 48.5859 155.163 46.2391 156.415 43.5407C156.051 42.9543 155.794 42.0822 156.001 40.8592C156.001 40.8592 156.332 38.5961 158.573 36.5514C158.573 36.5514 158.839 36.3252 158.988 36.4003C159.171 36.4847 159.095 37.205 158.946 37.5737C158.813 37.9261 157.818 39.6688 157.818 39.6688C157.818 39.6688 157.195 40.8592 157.37 41.7887C158.548 39.9623 161.228 36.2585 162.887 37.4312C163.941 38.1856 163.941 40.616 163.153 42.0241C162.53 43.1387 160.771 45.4429 158.424 44.9069M161.875 39.208C161.261 39.8787 160.166 41.152 159.303 42.8785C160.216 42.7778 161.104 42.2666 161.378 42.0071C161.817 41.6136 162.829 40.5487 162.672 39.1413C162.672 39.1413 162.572 38.404 161.875 39.208ZM124.705 45.8867C121.767 46.7921 118.996 46.3731 117.486 45.9711C117.445 46.5915 117.378 46.851 117.279 46.9516C117.162 47.0856 116.2 47.6394 115.669 46.851C115.437 46.4738 115.32 45.7946 115.254 45.1749C111.852 43.6165 110.276 41.3201 110.226 41.2364C110.143 41.152 109.371 40.3395 110.143 39.3335C110.865 38.4288 113.254 37.5156 115.395 37.1547C115.478 35.3113 115.677 33.8862 115.934 33.2581C116.241 32.5037 116.631 33.1744 116.98 33.6764C117.262 34.0543 117.436 35.6715 117.453 36.9619C118.847 36.8952 119.693 36.9959 121.245 37.2972C123.285 37.6496 124.647 38.7053 124.538 39.895C124.439 41.0684 123.377 41.554 122.962 41.5881C122.547 41.6214 121.884 41.3116 121.884 41.3116C121.418 41.0939 121.842 40.8925 122.381 40.6579C122.978 40.3643 122.846 40.0715 122.846 40.0715C122.63 39.4008 119.983 38.957 117.353 38.957C117.353 40.4232 117.411 42.8536 117.452 44.2702C119.295 44.6219 120.672 44.5467 120.672 44.5467C120.672 44.5467 127.393 44.3539 127.583 40.0212C127.791 35.68 120.863 31.5231 115.76 30.2157C110.666 28.8665 107.779 29.8222 107.529 29.9477C107.256 30.0817 107.504 30.1321 107.504 30.1321C107.504 30.1321 107.779 30.1746 108.276 30.3412C108.774 30.5093 108.376 30.7603 108.376 30.7603C107.505 31.063 106.534 30.8865 106.343 30.4837C106.152 30.0902 106.468 29.7301 106.841 29.2019C107.19 28.6574 107.587 28.6737 107.587 28.6737C113.893 26.4531 121.593 30.4334 121.593 30.4334C128.795 34.1046 130.023 38.4203 129.89 40.0971C129.774 41.7476 129.143 44.5382 124.705 45.8959M110.848 39.895C110.135 40.2303 110.632 40.7671 110.632 40.7671C111.977 42.2162 113.619 43.1301 115.196 43.7002C115.379 41.1861 115.362 40.2892 115.362 39.0236C112.923 39.191 111.512 39.593 110.848 39.895Z" fill="#858585"/>
</g>
</svg>
