<svg overflow="visible" style="display: block;" viewBox="0 0 96 28" fill="none" xmlns="http://www.w3.org/2000/svg">
<g id="Image">
<path id="Vector" fill-rule="evenodd" clip-rule="evenodd" d="M10.423 0C10.841 0 11.348 0.242 11.737 0.755H11.871C13.29 0.755 14.081 1.978 14.544 3.322C15.007 3.171 15.29 3.08 15.305 3.08C15.425 3.05 15.709 3.005 15.858 3.156C16.022 3.292 17.381 4.666 17.381 4.666C17.394 4.667 19.337 4.816 19.427 4.817C19.517 4.817 19.636 4.877 19.651 5.013C19.666 5.151 22.428 24.024 22.413 24.054L14.529 25.776L0 23.028C0 23.028 1.866 8.427 1.941 7.912C2.031 7.233 2.046 7.218 2.762 6.992C2.867 6.946 3.778 6.674 5.062 6.267C5.555 4.153 7.138 0 10.422 0H10.423ZM9.93 8.818C6.481 8.818 4.779 11.144 4.779 13.545C4.779 16.414 7.586 16.489 7.586 18.225C7.586 18.649 7.287 19.222 6.556 19.222C5.451 19.222 4.136 18.075 4.136 18.075L3.465 20.31C3.465 20.31 4.719 21.88 7.228 21.88C9.303 21.88 10.841 20.295 10.841 17.833C10.841 14.708 7.407 14.194 7.407 12.865C7.407 12.624 7.481 11.642 9.019 11.642C10.049 11.642 10.916 12.11 10.916 12.11L11.871 9.196C11.868 9.194 11.21 8.803 9.93 8.818ZM10.348 0.876C7.988 0.876 6.645 4.016 6.108 5.949C6.749 5.739 7.421 5.542 8.123 5.315C8.586 2.778 9.706 1.525 10.766 1.027C10.6468 0.932596 10.5 0.87959 10.348 0.876ZM11.304 1.812C10.527 2.159 9.586 3.095 9.094 4.998C9.974 4.711 10.826 4.454 11.632 4.198V4.047C11.632 3.05 11.498 2.325 11.304 1.812ZM12.214 1.646C12.408 2.174 12.514 2.839 12.514 3.654V3.926C12.946 3.775 13.379 3.639 13.738 3.533C13.424 2.567 12.961 1.737 12.214 1.646Z" fill="#858585"/>
<path id="Vector_2" d="M19.4 4.744C19.312 4.744 17.365 4.593 17.365 4.593C17.365 4.593 16.013 3.216 15.85 3.08C15.8002 3.02538 15.7308 2.99267 15.657 2.989L14.572 25.776L22.417 24.051C22.417 24.051 19.668 5.107 19.653 4.971C19.6302 4.91701 19.5958 4.8687 19.5522 4.82947C19.5087 4.79024 19.4561 4.76106 19.4 4.744Z" fill="#444444"/>
<path id="Vector_3" d="M31.81 14.801C31.008 14.377 30.6 14 30.6 13.5C30.6 12.864 31.174 12.455 32.065 12.455C33.107 12.455 34.028 12.879 34.028 12.879L34.752 10.653C34.752 10.653 34.088 10.138 32.125 10.138C29.392 10.138 27.49 11.713 27.49 13.924C27.49 15.181 28.38 16.135 29.558 16.817C30.525 17.347 30.857 17.74 30.857 18.316C30.857 18.906 30.374 19.391 29.483 19.391C28.169 19.391 26.916 18.71 26.916 18.71L26.146 20.936C26.146 20.936 27.294 21.708 29.226 21.708C32.035 21.708 34.073 20.315 34.073 17.816C34.043 16.453 33.031 15.514 31.808 14.802L31.81 14.801ZM43.013 10.107C41.623 10.107 40.536 10.773 39.706 11.772L39.676 11.757L40.884 5.457H37.758L34.708 21.51H37.834L38.875 16.028C39.283 13.953 40.355 12.666 41.352 12.666C42.062 12.666 42.333 13.15 42.333 13.832C42.333 14.256 42.303 14.802 42.197 15.225L41.02 21.51H44.146L45.369 15.028C45.505 14.347 45.595 13.529 45.595 12.968C45.58 11.167 44.658 10.107 43.013 10.107ZM52.661 10.107C48.886 10.107 46.395 13.514 46.395 17.315C46.395 19.738 47.889 21.707 50.698 21.707C54.398 21.707 56.888 18.39 56.888 14.498C56.904 12.242 55.605 10.107 52.661 10.107ZM51.121 19.314C50.049 19.314 49.611 18.406 49.611 17.254C49.611 15.452 50.531 12.53 52.238 12.53C53.34 12.53 53.718 13.499 53.718 14.423C53.718 16.346 52.766 19.314 51.121 19.314ZM64.906 10.107C62.792 10.107 61.599 11.984 61.599 11.984H61.569L61.75 10.304H58.972C58.8013 11.6979 58.5899 13.0865 58.338 14.468L56.178 25.963H59.304L60.18 21.313H60.256C60.256 21.313 60.905 21.723 62.083 21.723C65.767 21.723 68.168 17.936 68.168 14.12C68.152 12 67.201 10.107 64.906 10.107ZM61.916 19.345C61.101 19.345 60.618 18.875 60.618 18.875L61.131 15.952C61.494 13.983 62.521 12.696 63.608 12.696C64.574 12.696 64.861 13.59 64.861 14.423C64.876 16.452 63.668 19.345 61.916 19.345ZM72.623 5.609C71.626 5.609 70.826 6.411 70.826 7.426C70.826 8.35 71.415 9.001 72.306 9.001H72.336C73.317 9.001 74.148 8.335 74.163 7.184C74.178 6.26 73.559 5.609 72.623 5.609ZM68.244 21.495H71.37L73.483 10.349H70.343M81.456 10.334H79.28L79.386 9.819C79.567 8.743 80.201 7.805 81.258 7.805C81.817 7.805 82.255 7.971 82.255 7.971L82.859 5.503C82.859 5.503 82.33 5.23 81.153 5.23C80.05 5.23 78.933 5.548 78.087 6.275C77.015 7.184 76.517 8.501 76.276 9.834L76.185 10.349H74.72L74.252 12.726H75.717L74.057 21.51H77.182L78.842 12.726H81.002L81.456 10.334ZM88.99 10.349C88.99 10.349 87.027 15.301 86.166 18.012H86.136C86.076 17.134 85.366 10.349 85.366 10.349H82.075L83.962 20.556C83.992 20.783 83.977 20.92 83.886 21.071C83.524 21.783 82.906 22.464 82.18 22.964C81.592 23.388 80.927 23.676 80.399 23.858L81.274 26.523C81.909 26.387 83.237 25.857 84.34 24.812C85.759 23.479 87.088 21.404 88.446 18.587L92.266 10.334H88.99V10.349Z" fill="#858585"/>
</g>
</svg>
