<svg overflow="visible" style="display: block;" viewBox="0 0 130.455 14.985" fill="none" xmlns="http://www.w3.org/2000/svg">
<path id="Vector" d="M37.842 4.26004V10.86H39.503C39.9261 10.8534 40.3438 10.763 40.7317 10.5939C41.1196 10.4248 41.4702 10.1805 41.763 9.87504C42.3579 9.25036 42.6846 8.41758 42.673 7.55503C42.6862 7.12627 42.6135 6.6992 42.4593 6.29891C42.3051 5.89861 42.0724 5.53317 41.775 5.22403C41.482 4.91692 41.1293 4.67285 40.7386 4.50675C40.348 4.34065 39.9275 4.25602 39.503 4.25803H37.843L37.842 4.26004ZM39.503 2.19004C42.599 2.19004 44.942 4.56603 44.942 7.55403C44.942 10.542 42.599 12.934 39.503 12.934H35.839C35.7868 12.9328 35.7361 12.9165 35.6929 12.8871C35.6498 12.8576 35.6161 12.8162 35.596 12.768C35.5835 12.7355 35.5767 12.7009 35.576 12.666V2.46704C35.576 2.31904 35.694 2.19903 35.839 2.19903L39.503 2.19004ZM52.923 11.09C53.6144 11.09 54.29 10.8834 54.8632 10.4968C55.4364 10.1101 55.881 9.56107 56.14 8.92004C56.4053 8.27571 56.4761 7.56786 56.3439 6.88374C56.2117 6.19962 55.8822 5.56915 55.396 5.07003C54.915 4.57651 54.2967 4.23886 53.6215 4.10085C52.9463 3.96285 52.2452 4.03085 51.609 4.29603C50.97 4.56746 50.4251 5.02132 50.0427 5.60082C49.6603 6.18032 49.4573 6.85973 49.459 7.55403C49.459 9.50203 51.006 11.082 52.922 11.091L52.923 11.09ZM52.923 1.94604C56.183 1.94604 58.673 4.49103 58.673 7.55403C58.673 10.618 56.183 13.164 52.923 13.164C49.663 13.164 47.193 10.631 47.193 7.55403C47.193 4.47803 49.686 1.94604 52.923 1.94604ZM66.59 11.09C68.507 11.085 70.058 9.50304 70.056 7.55604C70.054 5.60704 68.5 4.02903 66.583 4.02803C64.665 4.02803 63.11 5.60503 63.108 7.55303C63.108 8.49203 63.474 9.39204 64.128 10.055C64.4487 10.383 64.8317 10.6435 65.2545 10.8212C65.6773 10.999 66.1314 11.0904 66.59 11.09ZM66.59 1.94504C69.838 1.94504 72.33 4.47703 72.33 7.55303C72.33 10.63 69.828 13.163 66.59 13.163C63.352 13.163 60.839 10.63 60.839 7.55303C60.839 4.47703 63.331 1.94504 66.59 1.94504ZM79.928 4.25803H77.586V7.10003H79.928C80.1128 7.10796 80.2973 7.07838 80.4704 7.01307C80.6435 6.94776 80.8015 6.84808 80.935 6.72003C81.205 6.46003 81.36 6.09903 81.363 5.72003C81.3727 5.43101 81.2939 5.14592 81.1372 4.90288C80.9805 4.65985 80.7533 4.47046 80.486 4.36003C80.3086 4.28968 80.1188 4.25633 79.928 4.26203V4.25803ZM75.32 2.46704C75.32 2.31904 75.438 2.19903 75.583 2.19903H79.993C82.096 2.19903 83.617 3.76503 83.617 5.73103C83.6268 6.37902 83.4554 7.01686 83.1222 7.57269C82.7889 8.12852 82.3071 8.58027 81.731 8.87704L83.765 12.53C83.7859 12.5612 83.8 12.5964 83.8065 12.6333C83.813 12.6702 83.8117 12.7081 83.8028 12.7445C83.7938 12.7809 83.7774 12.815 83.7546 12.8447C83.7317 12.8744 83.7029 12.8991 83.67 12.917C83.6259 12.9407 83.5759 12.9511 83.526 12.947H81.74C81.6905 12.9481 81.6417 12.9351 81.5994 12.9094C81.557 12.8837 81.5229 12.8465 81.501 12.802L79.541 9.18604H77.576V12.658C77.5772 12.7104 77.5626 12.7619 77.534 12.8058C77.5055 12.8497 77.4644 12.8839 77.416 12.904C77.3836 12.9173 77.349 12.9247 77.314 12.926H75.594C75.5415 12.9249 75.4905 12.9086 75.4471 12.8789C75.4038 12.8492 75.37 12.8076 75.35 12.759C75.3379 12.7267 75.3315 12.6925 75.331 12.658L75.32 2.46704ZM89.524 4.30903V10.912H91.184C91.6069 10.9058 92.0244 10.8158 92.4123 10.6473C92.8003 10.4787 93.1509 10.235 93.444 9.93004C94.0397 9.30568 94.367 8.47286 94.356 7.61003C94.37 7.18098 94.2979 6.75347 94.1442 6.35264C93.9905 5.95182 93.7583 5.58577 93.461 5.27603C93.1675 4.96843 92.8142 4.72407 92.4228 4.55796C92.0314 4.39184 91.6102 4.30747 91.185 4.31003L89.524 4.30903ZM91.184 2.23704C94.28 2.23704 96.623 4.61703 96.623 7.61103C96.623 10.605 94.28 12.985 91.183 12.985H87.531C87.4606 12.9838 87.3935 12.9551 87.344 12.905C87.3196 12.8803 87.3004 12.8509 87.2875 12.8186C87.2746 12.7863 87.2683 12.7518 87.269 12.717V2.51803C87.269 2.37003 87.386 2.25004 87.531 2.25004L91.184 2.23704ZM103.532 4.86303L102.247 8.39303H104.814L103.532 4.86303ZM101.493 10.388L100.651 12.738C100.634 12.7934 100.599 12.8414 100.551 12.8749C100.504 12.9083 100.447 12.9252 100.389 12.923H98.564C98.5292 12.9266 98.4939 12.9231 98.4604 12.9127C98.427 12.9023 98.3959 12.8852 98.3692 12.8625C98.3425 12.8398 98.3206 12.812 98.305 12.7806C98.2893 12.7492 98.2801 12.715 98.278 12.68C98.275 12.6335 98.2829 12.587 98.301 12.544L102.244 2.35404C102.262 2.29985 102.298 2.25323 102.346 2.22141C102.393 2.18959 102.45 2.17435 102.507 2.17804H104.548C104.605 2.17503 104.662 2.19065 104.71 2.22256C104.757 2.25447 104.793 2.30095 104.812 2.35504L108.754 12.544C108.783 12.6082 108.786 12.6813 108.762 12.7476C108.738 12.814 108.689 12.8683 108.626 12.899C108.584 12.9186 108.537 12.9266 108.491 12.922H106.667C106.609 12.9252 106.551 12.9088 106.504 12.8755C106.456 12.8421 106.421 12.7937 106.404 12.738L105.563 10.388H101.493ZM110.87 5.09203C110.87 3.40503 112.305 1.94604 114.571 1.94604C115.789 1.9177 116.969 2.36956 117.857 3.20404C117.884 3.22982 117.905 3.26033 117.921 3.29403C117.935 3.32774 117.942 3.36366 117.943 3.40004C117.942 3.43675 117.935 3.47302 117.921 3.50704C117.905 3.54074 117.884 3.57125 117.857 3.59703L116.847 4.61703C116.823 4.64189 116.794 4.6616 116.761 4.675C116.729 4.6884 116.695 4.69521 116.66 4.69503C116.625 4.69508 116.591 4.6882 116.559 4.67481C116.527 4.66141 116.498 4.64177 116.474 4.61703C115.996 4.17455 115.372 3.92418 114.721 3.91404C113.814 3.91404 113.144 4.44903 113.144 5.06603C113.144 7.06003 118.5 5.90903 118.5 9.74704C118.498 11.692 117.052 13.163 114.495 13.163C113.786 13.1701 113.083 13.0357 112.427 12.7679C111.771 12.5 111.175 12.104 110.674 11.603C110.648 11.5775 110.626 11.5473 110.611 11.514C110.588 11.4634 110.581 11.4067 110.593 11.3521C110.604 11.2976 110.632 11.2481 110.674 11.211L111.651 10.217C111.676 10.1914 111.706 10.171 111.738 10.1569C111.771 10.1428 111.806 10.1354 111.842 10.135C111.878 10.1348 111.913 10.142 111.946 10.1561C111.979 10.1702 112.009 10.191 112.033 10.217C112.651 10.8222 113.478 11.1651 114.343 11.174C115.475 11.174 116.222 10.56 116.222 9.79004C116.222 7.79504 110.868 8.94603 110.868 5.10803M128.214 2.45404V6.48603H123.68V2.45404C123.68 2.38387 123.653 2.31645 123.604 2.26604C123.58 2.24082 123.551 2.22074 123.519 2.20699C123.487 2.19325 123.452 2.18612 123.417 2.18604H121.698C121.627 2.18705 121.56 2.21577 121.51 2.26604C121.462 2.31661 121.435 2.38401 121.435 2.45404V12.64C121.435 12.788 121.554 12.908 121.698 12.908H123.417C123.561 12.908 123.68 12.788 123.68 12.64V8.54504H128.21V12.641C128.21 12.789 128.329 12.909 128.473 12.909H130.193C130.337 12.909 130.455 12.789 130.455 12.641V2.45404C130.455 2.40186 130.44 2.35086 130.411 2.3072C130.382 2.26354 130.342 2.2291 130.294 2.20803C130.262 2.19526 130.228 2.18815 130.193 2.18704H128.473C128.404 2.18886 128.337 2.21783 128.289 2.26773C128.241 2.31764 128.214 2.38451 128.214 2.45404ZM25.924 3.54604C24.73 1.35603 22.397 -0.007965 19.859 3.4999e-05H0.656022C0.527143 0.00150602 0.401423 0.0401191 0.293937 0.111244C0.186451 0.18237 0.101761 0.282988 0.0500219 0.401035C0.000311933 0.518749 -0.0127282 0.648722 0.0126059 0.773965C0.03794 0.899209 0.10047 1.0139 0.192022 1.10304L4.37502 5.21603C4.74502 5.58003 5.24802 5.78403 5.77102 5.78403H19.308C20.273 5.77403 21.062 6.53103 21.072 7.47403C21.082 8.41703 20.309 9.18904 19.344 9.19804H10.01C9.88091 9.19904 9.75484 9.23732 9.64698 9.30829C9.53911 9.37925 9.45405 9.47987 9.40202 9.59803C9.35197 9.71578 9.33865 9.8459 9.36381 9.97134C9.38897 10.0968 9.45143 10.2117 9.54302 10.301L13.729 14.417C14.101 14.781 14.602 14.985 15.125 14.985H19.346C24.838 14.985 28.991 9.24303 25.923 3.54403" fill="#858585"/>
</svg>
