<svg overflow="visible" style="display: block;" viewBox="0 0 97 28" fill="none" xmlns="http://www.w3.org/2000/svg">
<g id="Image" clip-path="url(#clip0_0_33)">
<path id="Vector" d="M10.505 15.562H3.382V23.066H0V4.552H3.382V12.308H10.505V4.552H13.887V23.066H10.505V15.562ZM24.71 17.08C24.7095 17.8219 24.4145 18.5333 23.8899 19.0579C23.3653 19.5825 22.6539 19.8775 21.912 19.878C21.1704 19.8772 20.4595 19.5823 19.9351 19.0579C19.4107 18.5335 19.1158 17.8226 19.115 17.081V9.15H15.912V17.08C15.912 20.388 18.604 23.08 21.912 23.08C25.22 23.08 27.912 20.388 27.912 17.08V9.15H24.71V17.08ZM48.475 9.968C48.475 8.342 49.551 7.827 50.729 7.827C51.678 7.827 52.933 8.549 53.752 9.427L55.852 6.95C54.802 5.532 52.676 4.552 50.935 4.552C47.45 4.552 44.938 6.589 44.938 9.969C44.938 16.236 52.6 14.249 52.6 17.758C52.6 18.84 51.55 19.794 50.346 19.794C48.45 19.794 47.834 18.866 46.964 17.886L44.632 20.31C46.119 22.14 47.963 23.07 50.167 23.07C53.472 23.07 56.137 21.007 56.137 17.782C56.137 10.819 48.477 12.986 48.477 9.969L48.475 9.968ZM95.871 20.108C93.976 20.108 93.438 19.288 93.438 18.032V12.472H96.384V9.655H93.438V5.939L90.185 7.4V18.725C90.185 21.621 92.182 23.081 94.922 23.081C95.332 23.081 95.897 23.055 96.205 22.979L96.999 20.059C96.641 20.083 96.231 20.108 95.871 20.108ZM36.918 9.244C35.329 9.244 34.221 9.705 33.15 10.756V4.662H29.937V15.957C29.937 20.184 32.993 23.08 36.427 23.08C40.246 23.08 43.59 20.133 43.59 16.162C43.59 12.191 40.506 9.244 36.918 9.244ZM36.898 19.847C36.4195 19.847 35.9456 19.7527 35.5035 19.5696C35.0614 19.3865 34.6597 19.1181 34.3213 18.7797C33.9829 18.4413 33.7145 18.0396 33.5314 17.5975C33.3483 17.1554 33.254 16.6815 33.254 16.203C33.254 15.7245 33.3483 15.2506 33.5314 14.8085C33.7145 14.3664 33.9829 13.9647 34.3213 13.6263C34.6597 13.2879 35.0614 13.0195 35.5035 12.8364C35.9456 12.6533 36.4195 12.559 36.898 12.559C37.8644 12.559 38.7913 12.9429 39.4747 13.6263C40.1581 14.3097 40.542 15.2366 40.542 16.203C40.542 17.1694 40.1581 18.0963 39.4747 18.7797C38.7913 19.4631 37.8644 19.847 36.898 19.847ZM71.801 15.996C71.801 12.025 68.456 9.078 64.639 9.078C61.205 9.078 58.148 11.974 58.148 16.201V27.496H61.361V21.401C62.432 22.452 63.541 22.913 65.129 22.913C68.717 22.913 71.801 19.916 71.801 15.996ZM68.753 15.956C68.7611 16.4395 68.6728 16.9199 68.4934 17.369C68.3139 17.8181 68.0469 18.2269 67.7078 18.5718C67.3687 18.9166 66.9644 19.1905 66.5184 19.3775C66.0724 19.5645 65.5936 19.6608 65.11 19.6609C64.6264 19.6609 64.1476 19.5647 63.7015 19.3779C63.2555 19.191 62.8511 18.9172 62.5119 18.5725C62.1727 18.2277 61.9056 17.8189 61.726 17.3699C61.5464 16.9208 61.4581 16.4406 61.466 15.957C61.4818 15.0011 61.8727 14.0898 62.5542 13.4194C63.2358 12.749 64.1535 12.3734 65.1095 12.3734C66.0655 12.3734 66.9832 12.749 67.6648 13.4194C68.3463 14.0898 68.7372 15.0001 68.753 15.956Z" fill="#858585"/>
<path id="Vector_2" d="M82.184 8.923V5.695C82.6109 5.4962 82.9723 5.17997 83.2261 4.7833C83.4799 4.38662 83.6154 3.9259 83.617 3.455V3.381C83.6149 2.72338 83.3527 2.0933 82.8877 1.62829C82.4227 1.16328 81.7926 0.901109 81.135 0.899H81.061C80.4034 0.901109 79.7733 1.16328 79.3083 1.62829C78.8433 2.0933 78.5811 2.72338 78.579 3.381V3.456C78.579 4.446 79.169 5.297 80.012 5.695V8.923C78.7865 9.11049 77.6323 9.61828 76.666 10.395L67.804 3.501C67.862 3.277 67.903 3.046 67.904 2.803C67.9049 2.06039 67.6108 1.34783 67.0864 0.822076C66.5619 0.296318 65.8501 0.000428351 65.1075 -0.000499907C64.3649 -0.00142816 63.6523 0.292681 63.1266 0.817126C62.6008 1.34157 62.3049 2.05339 62.304 2.796C62.3035 3.1637 62.3754 3.52791 62.5156 3.86782C62.6558 4.20773 62.8616 4.5167 63.1213 4.77707C63.3809 5.03745 63.6893 5.24413 64.0288 5.38533C64.3683 5.52653 64.7323 5.59948 65.1 5.6C65.603 5.6 66.07 5.458 66.479 5.226L75.196 12.006C74.4277 13.1626 74.0185 14.5205 74.02 15.909C74.02 17.352 74.498 18.817 75.304 19.966L72.654 22.617C72.441 22.5496 72.2194 22.5135 71.996 22.51C71.5411 22.51 71.0964 22.6449 70.7182 22.8976C70.34 23.1503 70.0452 23.5096 69.8711 23.9298C69.697 24.3501 69.6514 24.8126 69.7402 25.2587C69.8289 25.7049 70.048 26.1147 70.3697 26.4363C70.6913 26.758 71.1011 26.9771 71.5473 27.0658C71.9934 27.1546 72.4559 27.109 72.8762 26.9349C73.2964 26.7608 73.6557 26.466 73.9084 26.0878C74.1611 25.7096 74.296 25.2649 74.296 24.81C74.296 24.58 74.252 24.363 74.189 24.153L76.812 21.531C78.0417 22.4742 79.5482 22.9853 81.098 22.985C82.9748 22.985 84.7747 22.2395 86.1018 20.9125C87.429 19.5856 88.1747 17.7858 88.175 15.909C88.175 12.37 85.575 9.447 82.184 8.923ZM81.097 19.536C80.6204 19.536 80.1485 19.4421 79.7082 19.2598C79.268 19.0774 78.8679 18.8101 78.5309 18.4731C78.1939 18.1361 77.9266 17.736 77.7442 17.2958C77.5619 16.8555 77.468 16.3836 77.468 15.907C77.468 15.4304 77.5619 14.9585 77.7442 14.5182C77.9266 14.078 78.1939 13.6779 78.5309 13.3409C78.8679 13.0039 79.268 12.7366 79.7082 12.5542C80.1485 12.3719 80.6204 12.278 81.097 12.278C82.0595 12.278 82.9825 12.6603 83.6631 13.3409C84.3437 14.0215 84.726 14.9445 84.726 15.907C84.726 16.8695 84.3437 17.7925 83.6631 18.4731C82.9825 19.1537 82.0595 19.536 81.097 19.536Z" fill="#858585"/>
</g>
<defs>
<clipPath id="clip0_0_33">
<rect width="97" height="28" fill="white"/>
</clipPath>
</defs>
</svg>
