<svg overflow="visible" style="display: block;" viewBox="0 0 66 28" fill="none" xmlns="http://www.w3.org/2000/svg">
<g id="Image">
<path id="Vector" fill-rule="evenodd" clip-rule="evenodd" d="M63.533 13.752C63.533 9.203 61.345 5.614 57.163 5.614C52.963 5.614 50.421 9.204 50.421 13.716C50.421 19.064 53.421 21.765 57.727 21.765C59.827 21.765 61.416 21.285 62.616 20.61V17.057C61.416 17.661 60.039 18.034 58.292 18.034C56.58 18.034 55.062 17.43 54.868 15.334H63.498C63.498 15.102 63.533 14.178 63.533 13.752ZM54.815 12.064C54.815 10.056 56.033 9.221 57.145 9.221C58.221 9.221 59.368 10.056 59.368 12.064H54.815ZM43.609 5.614C41.879 5.614 40.767 6.432 40.149 7L39.92 5.9H36.038V26.616L40.45 25.675L40.467 20.646C41.103 21.109 42.037 21.766 43.591 21.766C46.75 21.766 49.627 19.207 49.627 13.576C49.609 8.423 46.697 5.616 43.609 5.616V5.614ZM42.549 17.856C41.509 17.856 40.891 17.483 40.467 17.021L40.45 10.429C40.908 9.914 41.544 9.559 42.55 9.559C44.156 9.559 45.268 11.371 45.268 13.699C45.268 16.079 44.172 17.856 42.549 17.856ZM29.966 4.566L34.396 3.606V0L29.966 0.942V4.566Z" fill="black"/>
<path id="Vector_2" d="M34.396 5.916H29.966V21.463H34.396V5.916Z" fill="black"/>
<path id="Vector_3" fill-rule="evenodd" clip-rule="evenodd" d="M25.219 7.231L24.936 5.916H21.125V21.463H25.537V10.927C26.577 9.559 28.343 9.807 28.89 10.003V5.916C28.325 5.703 26.26 5.312 25.219 7.231ZM16.395 2.061L12.089 2.985L12.071 17.216C12.071 19.846 14.031 21.783 16.642 21.783C18.09 21.783 19.148 21.516 19.731 21.196V17.59C19.166 17.822 16.378 18.639 16.378 16.01V9.7H19.731V5.916H16.378L16.395 2.061ZM4.465 10.43C4.465 9.736 5.03 9.47 5.965 9.47C7.306 9.47 9.001 9.879 10.342 10.607V6.432C8.877 5.845 7.43 5.614 5.965 5.614C2.382 5.614 0 7.498 0 10.643C0 15.546 6.706 14.765 6.706 16.879C6.706 17.696 6 17.963 5.012 17.963C3.547 17.963 1.677 17.359 0.194 16.541V20.77C1.835 21.48 3.494 21.783 5.012 21.783C8.682 21.783 11.207 19.953 11.207 16.773C11.189 11.478 4.465 12.419 4.465 10.429V10.43Z" fill="black"/>
</g>
</svg>
