<svg overflow="visible" style="display: block;" viewBox="0 0 107.158 21.5858" fill="none" xmlns="http://www.w3.org/2000/svg">
<g id="Frame 2147224293">
<path id="Vector" d="M26.6709 1.64177C26.0489 1.64177 25.5469 2.14377 25.5469 2.76677V16.5008C25.5469 17.1238 26.0489 17.6258 26.6709 17.6258H35.2959C35.3346 17.6259 35.373 17.6184 35.4088 17.6036C35.4446 17.5888 35.4771 17.567 35.5044 17.5396C35.5318 17.5122 35.5534 17.4796 35.5681 17.4437C35.5827 17.4079 35.5901 17.3695 35.5899 17.3308V15.7558C35.5899 15.6778 35.5589 15.603 35.5038 15.5479C35.4486 15.4927 35.3738 15.4618 35.2959 15.4618H27.9619V10.4388H34.5569C34.6348 10.4388 34.7096 10.4078 34.7648 10.3527C34.8199 10.2975 34.8509 10.2227 34.8509 10.1448V8.65577C34.851 8.61712 34.8435 8.57883 34.8288 8.5431C34.814 8.50737 34.7924 8.47491 34.7651 8.44758C34.7377 8.42025 34.7053 8.3986 34.6695 8.38388C34.6338 8.36915 34.5955 8.36163 34.5569 8.36177H27.9619V3.75577H35.2959C35.3346 3.7559 35.373 3.74835 35.4088 3.73356C35.4446 3.71877 35.4771 3.69703 35.5044 3.6696C35.5318 3.64216 35.5534 3.60958 35.5681 3.57374C35.5827 3.53789 35.5901 3.4995 35.5899 3.46077V1.93677C35.5901 1.89804 35.5827 1.85964 35.5681 1.82379C35.5534 1.78795 35.5318 1.75537 35.5044 1.72793C35.4771 1.7005 35.4446 1.67876 35.4088 1.66397C35.373 1.64918 35.3346 1.64163 35.2959 1.64177H26.6709ZM55.7879 5.64377C53.7359 5.64377 52.4609 6.35077 51.6079 7.52777V6.29777C51.6079 6.21979 51.5769 6.14501 51.5218 6.08988C51.4666 6.03474 51.3918 6.00377 51.3139 6.00377H49.5389C49.4609 6.00377 49.3861 6.03474 49.331 6.08988C49.2759 6.14501 49.2449 6.21979 49.2449 6.29777V21.2918C49.2449 21.4548 49.3759 21.5858 49.5389 21.5858H51.3459C51.3845 21.5858 51.4227 21.5782 51.4584 21.5634C51.4941 21.5486 51.5265 21.527 51.5538 21.4997C51.5811 21.4724 51.6027 21.4399 51.6175 21.4043C51.6323 21.3686 51.6399 21.3304 51.6399 21.2918V16.1618C52.4309 17.3038 53.7139 17.9788 55.7889 17.9788C59.2789 17.9788 61.4509 15.2138 61.4509 11.8078C61.4509 8.40177 59.3219 5.64377 55.7879 5.64377ZM55.2809 7.62677C57.7909 7.62677 59.0269 9.49877 59.0269 11.8068C59.0269 14.1168 57.7909 15.9878 55.2809 15.9878C52.7709 15.9878 51.5359 14.1168 51.5359 11.8078C51.5359 9.49777 52.7709 7.62677 55.2809 7.62677ZM90.8309 6.00377H92.6179C92.7799 6.00377 92.9109 6.13477 92.9109 6.29777V17.3308C92.911 17.3695 92.9035 17.4078 92.8888 17.4436C92.8741 17.4794 92.8524 17.5119 92.8251 17.5393C92.7978 17.5667 92.7653 17.5885 92.7296 17.6033C92.6939 17.6181 92.6556 17.6258 92.6169 17.6258H90.8309C90.7922 17.6258 90.7539 17.6181 90.7181 17.6033C90.6824 17.5885 90.6499 17.5667 90.6226 17.5393C90.5953 17.5119 90.5737 17.4794 90.559 17.4436C90.5442 17.4078 90.5367 17.3695 90.5369 17.3308V6.29777C90.5369 6.13477 90.6679 6.00377 90.8309 6.00377ZM90.8059 1.63577H92.6429C92.8059 1.63577 92.9369 1.76777 92.9369 1.93077V3.77077C92.9369 3.84874 92.9059 3.92352 92.8508 3.97866C92.7956 4.03379 92.7208 4.06477 92.6429 4.06477H90.8059C90.7279 4.06477 90.6531 4.03379 90.598 3.97866C90.5429 3.92352 90.5119 3.84874 90.5119 3.77077V1.92977C90.5119 1.76677 90.6419 1.63477 90.8059 1.63477V1.63577ZM81.4349 17.9788C83.4869 17.9788 84.7609 17.2708 85.6149 16.0948V17.3308C85.6149 17.4938 85.7449 17.6258 85.9089 17.6258H87.6849C87.7236 17.6258 87.7619 17.6181 87.7976 17.6033C87.8333 17.5885 87.8658 17.5667 87.8931 17.5393C87.9204 17.5119 87.9421 17.4794 87.9568 17.4436C87.9715 17.4078 87.979 17.3695 87.9789 17.3308V1.93677C87.979 1.89807 87.9715 1.85973 87.9568 1.82395C87.9421 1.78816 87.9204 1.75564 87.8931 1.72823C87.8658 1.70082 87.8333 1.67908 87.7976 1.66424C87.7619 1.6494 87.7236 1.64177 87.6849 1.64177H85.8779C85.8392 1.64177 85.8009 1.6494 85.7651 1.66424C85.7294 1.67908 85.6969 1.70082 85.6696 1.72823C85.6423 1.75564 85.6207 1.78816 85.606 1.82395C85.5913 1.85973 85.5837 1.89807 85.5839 1.93677V7.52477C84.7339 6.41277 83.5099 5.64377 81.4349 5.64377C77.9449 5.64377 75.7729 8.40877 75.7729 11.8138C75.7729 15.2208 77.9009 17.9788 81.4349 17.9788ZM81.9419 15.9958C79.4319 15.9958 78.1959 14.1238 78.1959 11.8148C78.1959 9.50576 79.4319 7.63477 81.9419 7.63477C84.4519 7.63477 85.6869 9.50576 85.6869 11.8148C85.6869 14.1238 84.4519 15.9948 81.9419 15.9948V15.9958ZM100.614 5.64977C97.0799 5.64977 94.9529 8.40877 94.9529 11.8148C94.9529 15.2208 97.0799 17.9788 100.614 17.9788C102.667 17.9788 103.941 17.2708 104.794 16.0948V17.3308C104.794 17.4938 104.925 17.6258 105.088 17.6258H106.864C106.903 17.6259 106.941 17.6184 106.977 17.6036C107.013 17.5888 107.045 17.567 107.072 17.5396C107.1 17.5122 107.121 17.4796 107.136 17.4437C107.151 17.4079 107.158 17.3695 107.158 17.3308V6.29777C107.158 6.25912 107.15 6.22083 107.136 6.1851C107.121 6.14937 107.099 6.11691 107.072 6.08958C107.045 6.06225 107.012 6.0406 106.977 6.02588C106.941 6.01115 106.903 6.00363 106.864 6.00377H105.088C105.049 6.00363 105.011 6.01115 104.975 6.02588C104.939 6.0406 104.907 6.06225 104.88 6.08958C104.852 6.11691 104.831 6.14937 104.816 6.1851C104.801 6.22083 104.794 6.25912 104.794 6.29777V7.53477C103.941 6.35777 102.667 5.64977 100.614 5.64977ZM101.121 7.63377C103.631 7.63377 104.866 9.50577 104.866 11.8138C104.866 14.1238 103.631 15.9948 101.121 15.9948C98.6109 15.9948 97.3759 14.1238 97.3759 11.8148C97.3759 9.50576 98.6109 7.63477 101.121 7.63477V7.63377ZM37.4919 6.00377C37.2379 6.00377 37.1919 6.20377 37.3079 6.36377L41.0879 11.5458L36.9389 17.2658C36.8239 17.4248 36.8689 17.6258 37.1229 17.6258H39.1699C39.3479 17.6258 39.4399 17.5648 39.4989 17.4778L42.3259 13.3008L45.2709 17.4778C45.3309 17.5638 45.4219 17.6258 45.5989 17.6258H47.7249C47.9779 17.6258 48.0249 17.4248 47.9089 17.2658L43.7359 11.5458L47.4919 6.36377C47.6069 6.20377 47.5619 6.00377 47.3079 6.00377H45.3019C45.1239 6.00377 45.0319 6.06377 44.9719 6.15177L42.4919 9.80177L39.9289 6.15177C39.8689 6.06577 39.7779 6.00377 39.5999 6.00377H37.4919ZM68.6169 5.64377C65.0629 5.64377 62.9239 8.20177 62.9239 11.8108C62.9239 15.7918 65.4519 17.9788 68.6169 17.9788C72.4409 17.9788 73.9489 15.7268 74.0329 15.6428C74.1299 15.5458 74.1029 15.3648 74.0229 15.2848L72.9159 14.1998C72.868 14.1566 72.805 14.1341 72.7406 14.1371C72.6762 14.1401 72.6156 14.1684 72.5719 14.2158C72.4919 14.2978 71.1459 16.0008 68.9419 16.0008C66.5979 16.0008 65.4439 14.5628 65.2889 12.4458H74.0209C74.2919 12.4458 74.3069 12.2048 74.3069 12.0458C74.3259 7.74777 71.8309 5.64377 68.6169 5.64377ZM68.6249 7.51377C70.7749 7.51377 71.6749 8.80777 71.8649 10.6518H65.3749C65.6299 8.84477 66.5779 7.51377 68.6249 7.51377Z" fill="#858585"/>
<path id="Vector_2" fill-rule="evenodd" clip-rule="evenodd" d="M15.276 4.53058e-06C15.8013 -0.000787079 16.3216 0.102165 16.8071 0.302953C17.2925 0.50374 17.7335 0.798411 18.1048 1.17006C18.4761 1.5417 18.7703 1.983 18.9706 2.46864C19.1709 2.95427 19.2733 3.47468 19.272 4V15.295C19.272 17.511 17.49 19.295 15.276 19.295H3.99601C3.47069 19.2958 2.95038 19.1928 2.46495 18.9921C1.97951 18.7913 1.53851 18.4966 1.16723 18.125C0.79596 17.7533 0.501731 17.312 0.301429 16.8264C0.101127 16.3407 -0.00130465 15.8203 1.25438e-05 15.295V4C1.25438e-05 1.784 1.78201 4.53058e-06 3.99601 4.53058e-06H15.276ZM5.39001 3.454C5.21001 3.454 5.09801 3.496 5.00301 3.591L3.07601 5.519C3.04932 5.54572 3.03115 5.57974 3.02379 5.61677C3.01643 5.65381 3.02021 5.6922 3.03466 5.72708C3.04911 5.76197 3.07357 5.79179 3.10496 5.81278C3.13635 5.83377 3.17325 5.84498 3.21101 5.845H11.559L6.42701 10.983C6.32601 11.085 6.26701 11.143 6.26701 11.343V12.694C6.26701 12.776 6.30401 12.847 6.35701 12.901C6.41101 12.954 6.48201 12.991 6.56301 12.991H7.91301C8.11301 12.991 8.17101 12.932 8.27301 12.831L13.404 7.693V16.051C13.4035 16.089 13.4145 16.1262 13.4354 16.1579C13.4563 16.1896 13.4862 16.2144 13.5213 16.2289C13.5564 16.2434 13.595 16.2471 13.6322 16.2395C13.6694 16.2318 13.7035 16.2132 13.73 16.186L15.656 14.258C15.751 14.163 15.792 14.05 15.792 13.87V4.743C15.7917 4.40157 15.6561 4.07416 15.4149 3.83254C15.1736 3.59092 14.8464 3.4548 14.505 3.454H5.39001ZM3.75501 13.367C3.68075 13.367 3.60953 13.3965 3.55702 13.449C3.50451 13.5015 3.47501 13.5727 3.47501 13.647V15.513C3.47501 15.668 3.60001 15.793 3.75501 15.793H5.60701C5.68127 15.793 5.75249 15.7635 5.805 15.711C5.85751 15.6585 5.88701 15.5873 5.88701 15.513V13.647C5.88701 13.5727 5.85751 13.5015 5.805 13.449C5.75249 13.3965 5.68127 13.367 5.60701 13.367H3.75501Z" fill="#858585"/>
</g>
</svg>
