<svg width="112" height="135" viewBox="0 0 112 135" fill="none" xmlns="http://www.w3.org/2000/svg">
<path d="M112 79.4184H81.28C74.5321 79.4184 69.0618 84.8887 69.0618 91.6366V101.818C69.0618 108.566 63.5915 114.037 56.8436 114.037H2.03636" stroke="url(#paint0_linear_710_120)" stroke-width="2"/>
<path d="M112 54.9821H81.28C74.5321 54.9821 69.0618 49.5118 69.0618 42.7639V30.5457C69.0618 23.7978 63.5915 18.3275 56.8436 18.3275H2.03636" stroke="url(#paint1_linear_710_120)" stroke-width="2"/>
<path d="M70.0762 31.5996C69.842 31.3658 69.4627 31.3658 69.2285 31.5996L64.9248 35.9033C64.691 36.1375 64.691 36.5168 64.9248 36.751L69.2285 41.0547C69.4627 41.2885 69.842 41.2885 70.0762 41.0547L74.3799 36.751C74.6137 36.5168 74.6137 36.1375 74.3799 35.9033L70.0762 31.5996Z" fill="#3478F6" stroke="#5D96FF" stroke-width="1.2"/>
<path d="M37.8574 109.309C37.6232 109.075 37.244 109.075 37.0098 109.309L32.7061 113.613C32.4723 113.847 32.4723 114.226 32.7061 114.46L37.0098 118.764C37.244 118.998 37.6232 118.998 37.8574 118.764L42.1611 114.46C42.3949 114.226 42.3949 113.847 42.1611 113.613L37.8574 109.309Z" fill="#3478F6" stroke="#5D96FF" stroke-width="1.2"/>
<defs>
<linearGradient id="paint0_linear_710_120" x1="2.03636" y1="96.7275" x2="112" y2="96.7275" gradientUnits="userSpaceOnUse">
<stop offset="0.337659" stop-color="#E9E9E9"/>
<stop offset="0.856267" stop-color="white"/>
</linearGradient>
<linearGradient id="paint1_linear_710_120" x1="2.03636" y1="36.6548" x2="112" y2="36.6548" gradientUnits="userSpaceOnUse">
<stop offset="0.337659" stop-color="#E9E9E9"/>
<stop offset="0.856267" stop-color="white"/>
</linearGradient>
</defs>
</svg>
