<svg width="112" height="135" viewBox="0 0 112 135" fill="none" xmlns="http://www.w3.org/2000/svg">
<path d="M0 79.4184H30.72C37.4679 79.4184 42.9382 84.8887 42.9382 91.6366V101.818C42.9382 108.566 48.4085 114.037 55.1564 114.037H109.964" stroke="url(#paint0_linear_710_125)" stroke-width="2"/>
<path d="M0 54.9821H30.72C37.4679 54.9821 42.9382 49.5118 42.9382 42.7639V30.5457C42.9382 23.7978 48.4085 18.3275 55.1564 18.3275H109.964" stroke="url(#paint1_linear_710_125)" stroke-width="2"/>
<path d="M41.9238 31.5996C42.158 31.3658 42.5373 31.3658 42.7715 31.5996L47.0752 35.9033C47.309 36.1375 47.309 36.5168 47.0752 36.751L42.7715 41.0547C42.5373 41.2885 42.158 41.2885 41.9238 41.0547L37.6201 36.751C37.3863 36.5168 37.3863 36.1375 37.6201 35.9033L41.9238 31.5996Z" fill="#3478F6" stroke="#5D96FF" stroke-width="1.2"/>
<path d="M65.1426 109.309C65.3768 109.075 65.756 109.075 65.9902 109.309L70.2939 113.613C70.5277 113.847 70.5277 114.226 70.2939 114.46L65.9902 118.764C65.756 118.998 65.3768 118.998 65.1426 118.764L60.8389 114.46C60.6051 114.226 60.6051 113.847 60.8389 113.613L65.1426 109.309Z" fill="#3478F6" stroke="#5D96FF" stroke-width="1.2"/>
<defs>
<linearGradient id="paint0_linear_710_125" x1="109.964" y1="96.7275" x2="0" y2="96.7275" gradientUnits="userSpaceOnUse">
<stop offset="0.337659" stop-color="#E9E9E9"/>
<stop offset="0.856267" stop-color="white"/>
</linearGradient>
<linearGradient id="paint1_linear_710_125" x1="109.964" y1="36.6548" x2="0" y2="36.6548" gradientUnits="userSpaceOnUse">
<stop offset="0.337659" stop-color="#E9E9E9"/>
<stop offset="0.856267" stop-color="white"/>
</linearGradient>
</defs>
</svg>
