<svg preserveAspectRatio="none" width="100%" height="100%" overflow="visible" style="display: block;" viewBox="0 0 43.5234 43.4885" fill="none" xmlns="http://www.w3.org/2000/svg">
<g id="Group 1437256202">
<path id="Vector" d="M35.7169 37.6665C36.9042 37.6665 37.8667 36.7041 37.8667 35.5168C37.8667 34.3295 36.9042 33.367 35.7169 33.367C34.5297 33.367 33.5672 34.3295 33.5672 35.5168C33.5672 36.7041 34.5297 37.6665 35.7169 37.6665Z" fill="#3478F6"/>
<path id="Vector_2" d="M41.7791 35.8792V35.9359C41.7791 37.5406 41.1294 38.9883 40.0828 40.0436C39.0276 41.0945 37.5755 41.7442 35.9708 41.7442C34.039 41.7442 32.2294 40.7805 31.1523 39.1715L22.2086 29.2598L21.7987 29.5345C20.2856 30.0839 18.9949 30.5767 16.1561 30.5767C8.1936 30.5767 1.74425 24.123 1.74425 16.1605C1.74425 14.1284 2.16287 12.1967 2.92162 10.4437L11.5426 19.0603L18.9774 11.6254L10.326 2.97395C12.1094 2.18031 14.0804 1.74425 16.1561 1.74425C24.1142 1.74425 30.568 8.20234 30.568 16.1605C30.568 19.0341 30.3281 19.9062 29.0418 22.7014L28.7234 23.1157C32.8529 25.8236 36.542 29.3296 39.1235 30.9953C40.7806 32.068 41.7791 33.9039 41.7791 35.8792Z" stroke="#3478F6" stroke-width="3.4885" stroke-miterlimit="10"/>
</g>
</svg>
