<svg preserveAspectRatio="none" width="100%" height="100%" overflow="visible" style="display: block;" viewBox="0 0 39.9961 40" fill="none" xmlns="http://www.w3.org/2000/svg">
<g id="Group">
<path id="Vector" d="M37.345 15.1432C35.8186 14.5518 35.0555 12.8337 35.6349 11.3233C35.7507 11.0437 35.8586 10.8159 35.9505 10.6161C36.2941 9.89292 36.5179 9.41743 36.2542 8.41054C36.1663 7.90709 35.4551 7.13992 33.9847 5.71748C33.7329 5.47374 33.5092 5.25798 33.3613 5.10615C31.5313 3.20023 30.972 3.34807 28.8902 4.26707L28.8303 4.29503C27.308 4.9703 25.5898 4.31102 24.9186 2.79667L24.8546 2.66082C24.7827 2.48102 24.7188 2.30121 24.6548 2.1294C24.3951 1.3982 24.1474 0.706959 23.2324 0.271435C22.6251 -0.0162503 21.3625 -0.016254 19.7762 0.0117155C19.4486 0.0157111 19.1489 0.0197084 18.9131 0.0197084C16.244 -0.0122566 16.0003 0.415275 15.1412 2.65283C14.8576 3.39202 14.3062 3.97538 13.583 4.29903C12.8558 4.62267 12.0486 4.64265 11.3174 4.36296C11.0417 4.24709 10.814 4.13921 10.6142 4.04731C9.89101 3.70368 9.41152 3.47992 8.40862 3.74363C7.90517 3.83154 7.13801 4.54676 5.71157 6.02115C5.46783 6.26888 5.25606 6.48864 5.10422 6.63647C3.19831 8.46647 3.34616 9.02586 4.26915 11.1076L4.29312 11.1675C4.62876 11.9267 4.64473 12.7578 4.33307 13.513C4.01742 14.2681 3.42206 14.8435 2.6549 15.1432C0.41335 16.0022 -0.0101767 16.25 0.0177927 18.9071C0.0177927 19.5184 0.0137854 20.0498 0.00579412 20.5093C-0.0341622 23.4461 0.061735 23.8616 2.6549 24.8606C4.17724 25.4479 4.94441 27.166 4.36104 28.6804C4.24517 28.9561 4.1373 29.1838 4.0454 29.3836C3.70177 30.1068 3.47801 30.5863 3.74172 31.5892C3.82963 32.0926 4.54485 32.8598 6.01524 34.2862C6.26697 34.53 6.48672 34.7417 6.63456 34.8936C8.46456 36.7995 9.02395 36.6557 11.1057 35.7327L11.1656 35.7047C12.6919 35.0294 14.4061 35.6887 15.0773 37.2031L15.1412 37.3389C15.2172 37.5227 15.2811 37.6985 15.341 37.8743C15.6047 38.6055 15.8525 39.2968 16.7635 39.7283C17.231 39.9481 18.086 40 19.1809 40C19.5085 40 19.8561 39.996 20.2237 39.992C20.5513 39.984 20.847 39.98 21.0868 39.98C23.7478 40.012 23.9956 39.5885 24.8586 37.3469C25.1423 36.6037 25.6977 36.0203 26.4209 35.6967C27.1441 35.3771 27.9473 35.3571 28.6785 35.6368C28.9542 35.7526 29.1819 35.8605 29.3817 35.9564C30.1049 36.2961 30.5844 36.5198 31.5873 36.2561C32.0907 36.1682 32.8579 35.453 34.2843 33.9826C34.5281 33.7309 34.7398 33.5111 34.8917 33.3633C36.7976 31.5333 36.6537 30.9739 35.7308 28.8921L35.7028 28.8322C35.3671 28.073 35.3552 27.242 35.6668 26.4868C35.9785 25.7356 36.5738 25.1562 37.345 24.8566C39.5825 23.9975 40.0061 23.7498 39.9821 21.0927C39.9781 20.4813 39.9861 19.9499 39.9901 19.4904C40.03 16.5536 39.9381 16.1421 37.345 15.1432ZM36.7496 21.6041C36.7496 21.6041 36.7496 21.6281 36.7536 21.6401C36.7017 21.6481 36.6457 21.664 36.5898 21.684L36.1823 21.8438L36.1703 21.8319L35.8906 21.9557C34.4282 22.607 33.2854 23.7777 32.6701 25.2601C31.9589 26.9782 32.0348 28.6125 32.9138 30.5503C32.9418 30.6063 32.9658 30.6542 32.9977 30.6982C32.9857 30.7062 32.9778 30.7182 32.9658 30.7261L30.6883 33.0076C30.6443 32.9757 30.5964 32.9517 30.5404 32.9237L30.3007 32.8198C28.4667 32.0367 26.8964 31.9968 25.2462 32.68C23.5001 33.4032 22.4293 34.5779 21.6701 36.6037C21.6501 36.6597 21.6382 36.7116 21.6262 36.7595H21.5902L21.1387 36.7476C20.5833 36.7396 20.1238 36.7356 19.7442 36.7356C19.073 36.7356 18.6414 36.7476 18.3617 36.7555C18.3497 36.7076 18.3378 36.6517 18.3138 36.5997L18.1699 36.2321L18.1859 36.2241L18.0421 35.8965C17.3948 34.4341 16.2201 33.2913 14.7417 32.68C13.0196 31.9648 11.3854 32.0407 9.44747 32.9237C9.39154 32.9477 9.34359 32.9757 9.30364 33.0037C9.29165 32.9957 9.28365 32.9837 9.27167 32.9757L6.99418 30.6982C7.02214 30.6542 7.05009 30.6063 7.07407 30.5503L7.19396 30.2786C7.96511 28.4526 8.00105 26.8943 7.3218 25.2561C6.59859 23.51 5.42389 22.4392 3.39411 21.68C3.34216 21.66 3.29021 21.6441 3.23827 21.6361C3.23827 21.6241 3.23827 21.6121 3.23827 21.6001L3.24627 18.8551L3.23827 18.3996C3.23827 18.3996 3.23827 18.3796 3.23827 18.3676C3.29021 18.3557 3.34614 18.3437 3.40208 18.3197L3.84162 18.1479L3.84959 18.1599L4.10132 18.048C5.56372 17.4007 6.70647 16.226 7.3218 14.7476C8.03302 13.0255 7.95711 11.3953 7.07807 9.4534C7.0501 9.39746 7.02614 9.34951 6.99418 9.30955C7.00616 9.29757 7.01414 9.28957 7.02612 9.28158L9.30364 7.00008C9.34759 7.02805 9.39554 7.05602 9.45147 7.07999L9.71917 7.19986H9.72317C11.5452 7.97102 13.1035 8.00697 14.7457 7.32772C16.4918 6.60451 17.5626 5.42979 18.3218 3.40001C18.3418 3.34807 18.3537 3.29613 18.3657 3.24818H18.3977L18.8532 3.26017C20.3835 3.28814 21.1906 3.26416 21.6302 3.25217C21.6421 3.30012 21.6541 3.35606 21.6781 3.412L21.822 3.7756L21.806 3.78359L21.9498 4.11124C22.5971 5.57364 23.7718 6.71638 25.2502 7.32772C26.9723 8.04293 28.6065 7.96702 30.5444 7.08398C30.6003 7.06001 30.6483 7.03204 30.6883 7.00407C30.7003 7.01206 30.7082 7.02405 30.7162 7.03204L32.9977 9.30955C32.9698 9.3535 32.9418 9.40145 32.9178 9.45739L32.8019 9.71311H32.8059C32.0268 11.5431 31.9868 13.1054 32.6701 14.7516C33.3933 16.4977 34.568 17.5685 36.5978 18.3277C36.6497 18.3477 36.7017 18.3637 36.7536 18.3716C36.7536 18.3836 36.7536 18.3956 36.7496 18.4076L36.7416 21.1526L36.7496 21.6041Z" fill="#3478F6"/>
<path id="Vector_2" d="M27.1448 17.037C25.9222 14.0843 23.1812 12.2503 19.9966 12.2503C15.7253 12.2503 12.2491 15.7265 12.2491 19.9978C12.2491 23.1823 14.0871 25.9233 17.0399 27.146C18.0308 27.5575 19.0537 27.7573 20.0606 27.7573C22.0504 27.7573 23.9803 26.9702 25.4747 25.4758C27.7282 23.2263 28.3675 19.9898 27.1448 17.037ZM24.4957 19.9978C24.4957 21.2005 24.0282 22.3313 23.1772 23.1783C21.8746 24.4889 19.9967 24.8565 18.2825 24.1493C16.5644 23.438 15.5016 21.8478 15.5016 19.9978C15.5016 18.1478 16.5644 16.5616 18.2785 15.8503C18.8579 15.6106 19.4532 15.4947 20.0366 15.4947C20.62 15.4947 21.1833 15.6106 21.7148 15.8304C22.2502 16.0541 22.7456 16.3858 23.1812 16.8173C24.0282 17.6684 24.4957 18.7991 24.4957 19.9978Z" fill="#3478F6"/>
</g>
</svg>
