<svg preserveAspectRatio="none" width="100%" height="100%" overflow="visible" style="display: block;" viewBox="0 0 43.3624 40.0002" fill="none" xmlns="http://www.w3.org/2000/svg">
<g id="Group">
<path id="Vector" d="M21.6316 25.5707C20.6714 25.5707 19.8936 24.7929 19.8936 23.8327V13.5698C19.8936 12.6096 20.6714 11.8318 21.6316 11.8318C22.5919 11.8318 23.3696 12.6096 23.3696 13.5698V23.8327C23.3696 24.7929 22.5919 25.5707 21.6316 25.5707Z" fill="#3478F6"/>
<path id="Vector_2" d="M21.6316 32.1748C20.6714 32.1748 19.8936 31.3971 19.8936 30.4368V30.363C19.8936 29.4027 20.6714 28.625 21.6316 28.625C22.5919 28.625 23.3696 29.4027 23.3696 30.363V30.4368C23.3696 31.3971 22.5919 32.1748 21.6316 32.1748Z" fill="#3478F6"/>
<path id="Vector_3" d="M36.1142 39.9959H7.24606C4.57823 39.9959 2.21456 38.6967 0.915408 36.5155C-0.25774 34.5472 -0.305537 32.1705 0.785056 30.1588L15.1235 3.70649C16.3575 1.42537 18.8255 0.00455862 21.5628 0.000213623C21.5715 0.000213623 21.5758 0.000213623 21.5845 0.000213623C24.3132 0.000213623 26.7811 1.40799 28.0282 3.67607L42.5578 30.1284C43.6658 32.1401 43.6267 34.5255 42.4579 36.5025C41.1631 38.6924 38.7907 40.0002 36.1185 40.0002L36.1142 39.9959ZM21.5845 3.47186H21.5715C20.0855 3.47186 18.8168 4.18009 18.1781 5.36193L3.83959 31.8143C3.14439 33.1004 3.57889 34.1996 3.90042 34.7384C4.5652 35.8551 5.81656 36.5199 7.24606 36.5199H36.1142C37.548 36.5199 38.7994 35.8507 39.4642 34.7297C39.7857 34.1866 40.2159 33.0873 39.512 31.7969L24.9823 5.34456C24.3393 4.17141 23.0705 3.47186 21.5889 3.47186H21.5845Z" fill="#3478F6"/>
</g>
</svg>
