<svg preserveAspectRatio="none" width="100%" height="100%" overflow="visible" style="display: block;" viewBox="0 0 40 40" fill="none" xmlns="http://www.w3.org/2000/svg">
<path id="Vector" d="M21.6045 40H18.3955C18.3955 31.9214 7.93823 21.8171 0 21.6045V18.3955C8.07862 18.3955 17.5411 8.17088 18.3955 0H21.6045C22.2463 7.97433 31.785 17.9743 40 18.3955V21.6045C31.8492 21.8853 21.6045 31.9174 21.6045 40ZM9.00921 21.1833C12.9282 23.5098 16.4902 27.0718 18.8167 30.9908C19.3462 31.8853 20.6458 31.8853 21.1793 30.9908C23.5058 27.0718 27.0678 23.5098 30.9868 21.1833C31.8813 20.6538 31.8813 19.3542 30.9868 18.8207C27.0678 16.4942 23.5058 12.9322 21.1793 9.01324C20.6498 8.11873 19.3502 8.11873 18.8167 9.01324C16.4902 12.9322 12.9282 16.4942 9.00921 18.8207C8.11471 19.3502 8.11471 20.6498 9.00921 21.1833Z" fill="#3478F6"/>
</svg>
