<svg preserveAspectRatio="none" width="100%" height="100%" overflow="visible" style="display: block;" viewBox="0 0 40.0848 40" fill="none" xmlns="http://www.w3.org/2000/svg">
<g id="Group">
<path id="Vector" d="M38.4105 40H1.66065C0.779289 40 0.0654288 39.2861 0.0654288 38.4048C0.0654288 37.5234 0.779289 36.8096 1.66065 36.8096H38.4105C39.2918 36.8096 40.0057 37.5234 40.0057 38.4048C40.0057 39.2861 39.2918 40 38.4105 40Z" fill="#3478F6"/>
<path id="Vector_2" d="M18.016 22.0615C17.7289 21.8542 17.4018 21.7545 17.0748 21.7545C16.5803 21.7545 16.0978 21.9818 15.7867 22.4085L12.0938 27.4574C11.7189 27.9718 10.9013 27.7046 10.9013 27.0665V1.66269C10.9013 0.829189 10.2912 0.0874156 9.46167 0.0076547C8.50853 -0.0840703 7.71091 0.661698 7.71091 1.5949V26.8871C7.71091 27.5212 6.90135 27.7884 6.52248 27.2819L2.87341 22.3965C2.343 21.6907 1.346 21.5471 0.640118 22.0735C-0.0657655 22.5999 -0.209358 23.6009 0.317063 24.3068L6.23531 32.2271C6.98107 33.2241 8.14958 33.8103 9.39385 33.8103H9.41381C10.678 33.8023 11.8305 33.2161 12.5803 32.1952L18.359 24.2909C18.8814 23.581 18.7259 22.584 18.016 22.0615Z" fill="#3478F6"/>
<path id="Vector_3" d="M39.4315 11.7488C39.1483 11.9562 38.8173 12.0559 38.4903 12.0559C37.9998 12.0559 37.5133 11.8285 37.2022 11.4018L33.5093 6.35296C33.1344 5.8385 32.3168 6.1057 32.3168 6.74379V32.1476C32.3168 32.9811 31.7067 33.7229 30.8772 33.8027C29.924 33.8944 29.1264 33.1486 29.1264 32.2154V6.92326C29.1264 6.28916 28.3168 6.02195 27.938 6.52843L24.2889 11.4138C23.7625 12.1197 22.7615 12.2632 22.0556 11.7368C21.3497 11.2104 21.2061 10.2094 21.7325 9.50352L27.6548 1.58326C28.4046 0.574286 29.5571 7.62939e-06 30.8133 7.62939e-06H30.8333C32.0975 0.00798372 33.25 0.594221 33.9958 1.61516L39.7784 9.51947C40.2969 10.2293 40.1414 11.2263 39.4315 11.7488Z" fill="#3478F6"/>
</g>
</svg>
