<svg preserveAspectRatio="none" width="100%" height="100%" overflow="visible" style="display: block;" viewBox="0 0 22.0716 13.7521" fill="none" xmlns="http://www.w3.org/2000/svg">
<g id="Frame 11">
<path id="Vector" d="M4.45743 0H0.969004C0.434171 0 0.000625 0.433568 0.000625 0.968401V12.7404C0.000625 13.2752 0.434171 13.7088 0.969004 13.7088H4.45743C4.99226 13.7088 5.42581 13.2752 5.42581 12.7404V0.968401C5.42581 0.433568 4.99226 0 4.45743 0Z" fill="#3478F6"/>
<path id="Vector_2" d="M12.781 0H9.2926C8.75777 0 8.32422 0.433568 8.32422 0.968401V4.46041C8.32422 4.99524 8.75777 5.42881 9.2926 5.42881H12.781C13.3159 5.42881 13.7494 4.99524 13.7494 4.46041V0.968401C13.7494 0.433568 13.3159 0 12.781 0Z" fill="#3478F6"/>
<path id="Vector_3" d="M21.1032 0H17.6148C17.08 0 16.6464 0.433568 16.6464 0.968401V12.7404C16.6464 13.2752 17.08 13.7088 17.6148 13.7088H21.1032C21.638 13.7088 22.0716 13.2752 22.0716 12.7404V0.968401C22.0716 0.433568 21.638 0 21.1032 0Z" fill="#3478F6"/>
<path id="Vector_4" d="M12.781 8.32324H9.2926C8.75777 8.32324 8.32422 8.75681 8.32422 9.29164V12.7836C8.32422 13.3185 8.75777 13.752 9.2926 13.752H12.781C13.3159 13.752 13.7494 13.3185 13.7494 12.7836V9.29164C13.7494 8.75681 13.3159 8.32324 12.781 8.32324Z" fill="#3478F6"/>
</g>
</svg>
