<svg preserveAspectRatio="none" width="100%" height="100%" overflow="visible" style="display: block;" viewBox="0 0 36.011 40" fill="none" xmlns="http://www.w3.org/2000/svg">
<g id="5VQXQI">
<path id="Vector" d="M35.9733 22.8498C36.0915 23.4411 35.855 24.1703 35.0706 24.462L31.4285 25.4119C31.2748 25.4513 31.1605 25.5814 31.1408 25.743C31.1211 25.9046 31.196 26.0504 31.3379 26.1293C31.6769 26.3106 32.0316 26.488 32.3785 26.6614L32.477 26.7127C33.2732 27.1068 34.1759 27.5522 34.8302 28.0449C35.1928 28.3169 35.4254 28.715 35.4648 29.1368C35.5318 29.795 35.2007 30.3823 34.6213 30.6346C34.097 30.8672 33.691 30.6622 33.2496 30.4375L33.155 30.3902C32.5085 30.0631 31.8779 29.6768 31.2669 29.3023L31.1408 29.2235C30.7584 28.983 30.4076 28.7702 30.0529 28.5613C29.911 28.4825 29.7454 28.4903 29.6193 28.5889C29.4932 28.6835 29.438 28.8372 29.4774 28.9909L30.4234 32.7631C30.4352 33.4766 29.9938 34.052 29.3276 34.1939C28.7561 34.3122 28.0229 34.0875 27.6918 33.311L25.9772 27.0516C25.8117 26.4525 25.4293 25.9519 24.8972 25.6523L20.4628 23.106C20.246 22.9799 19.9898 22.9838 19.777 23.106C19.5641 23.2282 19.4341 23.4529 19.4341 23.6973V28.8057C19.4341 29.4285 19.6745 30.0118 20.116 30.4494L24.6213 34.9507C25.11 35.4947 25.1455 36.2672 24.7119 36.827C24.2862 37.3709 23.5807 37.5128 22.9618 37.1935L22.883 37.1344L20.0962 34.4186C19.9819 34.3082 19.8203 34.2767 19.6745 34.3398C19.5247 34.4028 19.4341 34.5408 19.4341 34.6985V38.782C19.4341 39.0461 19.3119 39.3063 19.0832 39.527C18.7916 39.8108 18.3501 40 17.9835 40H17.952C17.412 39.9842 16.5764 39.4521 16.5764 38.782V34.6866C16.5764 34.525 16.4857 34.3871 16.3398 34.328C16.2886 34.3043 16.2374 34.2964 16.1861 34.2964C16.0876 34.2964 15.993 34.3319 15.9181 34.4028L12.9855 37.229L12.9066 37.2684C12.2839 37.5089 11.6177 37.3078 11.2472 36.76C10.857 36.1884 10.9122 35.4671 11.3812 34.9665L15.8984 30.4494C16.3359 30.0158 16.5764 29.4324 16.5764 28.8057V23.6973C16.5764 23.4529 16.4502 23.2282 16.2334 23.106C16.0206 22.9799 15.7643 22.9799 15.5515 23.106L11.1211 25.6484C10.5811 25.9558 10.1987 26.4525 10.0371 27.0516L8.32249 33.3031C7.99139 34.0875 7.26217 34.3122 6.68669 34.1939C6.0166 34.0481 5.57517 33.4726 5.587 32.7789L6.5369 28.9988C6.57238 28.8411 6.5172 28.6874 6.39106 28.5889C6.26493 28.4943 6.09939 28.4825 5.96143 28.5652C5.65398 28.7426 5.3505 28.9279 5.05093 29.1131L4.84991 29.2353C4.20741 29.6334 3.54125 30.0434 2.85935 30.3902L2.76475 30.4375C2.29963 30.674 1.86211 30.8948 1.28663 30.5873C0.860927 30.3587 0.581059 29.929 0.537701 29.4324C0.494342 28.9121 0.711126 28.4115 1.12106 28.0962C1.77932 27.5798 2.77263 27.0911 3.64373 26.6575L3.72649 26.6141C4.04971 26.4564 4.37295 26.2909 4.68434 26.1293C4.83018 26.0544 4.90508 25.9046 4.88931 25.743C4.8696 25.5814 4.7553 25.4513 4.60158 25.408L0.786027 24.4028C0.171128 24.0757 -0.120546 23.4135 0.0568291 22.7513C0.238146 22.093 0.813634 21.6791 1.4916 21.7067L7.9441 23.4095C8.53535 23.5711 9.15416 23.4884 9.68629 23.1849L14.2035 20.6188C14.4203 20.4927 14.5503 20.272 14.5503 20.0197C14.5503 19.7674 14.4203 19.5467 14.2035 19.4245L9.67055 16.8585C9.13449 16.5589 8.51958 16.4801 7.94016 16.6338L1.59409 18.2814C0.892472 18.3406 0.297246 17.9779 0.0804541 17.3512C-0.140279 16.7127 0.104112 16.0268 0.679595 15.6523L0.801809 15.5932L4.56212 14.5881C4.71585 14.5487 4.82625 14.4225 4.84596 14.2609C4.86567 14.1033 4.79472 13.9535 4.65282 13.8747C4.24683 13.646 3.82901 13.4174 3.41908 13.1967L3.37573 13.173C2.59922 12.7552 1.7951 12.3216 1.04225 11.8408L0.95554 11.7698C0.486482 11.2456 0.383989 10.5479 0.699322 9.99605C1.00283 9.46393 1.61771 9.21955 2.30356 9.35751L2.35086 9.36539L5.9496 11.3796C6.08756 11.4584 6.25314 11.4466 6.37533 11.348C6.50146 11.2534 6.55664 11.0958 6.51722 10.946L5.59878 7.35908C5.4963 6.61805 5.91806 5.97162 6.6315 5.78636C7.34494 5.6011 8.03477 5.95191 8.29886 6.63776L10.0371 12.9523C10.1987 13.5436 10.581 14.0402 11.1171 14.3477L15.5515 16.894C15.7643 17.0162 16.0206 17.0162 16.2334 16.894C16.4502 16.7678 16.5764 16.5471 16.5764 16.2988V11.1864C16.5764 10.5676 16.3359 9.98817 15.8984 9.55064L11.3931 5.04533C10.9004 4.50532 10.8688 3.75246 11.3103 3.18091C11.736 2.63302 12.4415 2.48718 13.0485 2.80252L13.1313 2.86164L15.9181 5.5814C16.0284 5.69176 16.19 5.72329 16.3398 5.66022C16.4857 5.6011 16.5764 5.46314 16.5764 5.30153V1.21797C16.5764 0.543948 17.412 0.0157667 17.948 0C18.3304 0 18.7955 0.197076 19.0832 0.472992C19.3119 0.693726 19.4341 0.94994 19.4341 1.21797V5.30153C19.4341 5.46314 19.5247 5.6011 19.6745 5.66022C19.8203 5.72329 19.9819 5.69176 20.0962 5.5814L22.9106 2.83406L22.9816 2.79858C23.7581 2.4596 24.4321 2.78676 24.7593 3.2637C25.0904 3.74852 25.1495 4.5132 24.5385 5.13204L20.112 9.55064C19.6745 9.99211 19.4341 10.5755 19.4341 11.1904V16.2988C19.4341 16.5471 19.5641 16.7678 19.777 16.894C19.9898 17.0162 20.246 17.0162 20.4628 16.894L24.8972 14.3477C25.4293 14.0441 25.8117 13.5475 25.9772 12.9523L27.7155 6.64564C27.9835 5.95191 28.6694 5.59716 29.3828 5.78636C30.0923 5.97162 30.518 6.61806 30.4155 7.35515L29.4971 10.9421C29.4577 11.0958 29.509 11.2534 29.6351 11.348C29.7612 11.4426 29.9268 11.4584 30.0647 11.3796L33.6319 9.37721L33.7108 9.35751C34.3887 9.21955 34.9997 9.45998 35.3071 9.98028C35.6185 10.5124 35.5318 11.1983 35.0943 11.7186L34.9997 11.7974C34.2271 12.3138 33.4072 12.7592 32.4967 13.2519C32.1183 13.4568 31.7321 13.6697 31.3537 13.8825C31.2118 13.9653 31.1369 14.1151 31.1566 14.2728C31.1763 14.4344 31.2866 14.5566 31.4443 14.5999L35.2677 15.6129L35.3347 15.6484C35.9102 16.0268 36.1507 16.7048 35.9299 17.3433C35.7131 17.9779 35.1179 18.3484 34.4281 18.2854L28.1175 16.6023C27.5184 16.4407 26.8759 16.5274 26.3556 16.8427C25.5633 17.3039 24.7277 17.7611 23.9394 18.1868C23.2338 18.5731 22.4809 18.9831 21.7596 19.4009C21.5428 19.527 21.4167 19.7517 21.4167 20C21.4167 20.2483 21.5468 20.4691 21.7636 20.5912L26.332 23.1849C26.8602 23.4884 27.479 23.5672 28.0742 23.4095L34.5149 21.7067C34.5425 21.7067 34.57 21.7067 34.5976 21.7067C35.2717 21.7067 35.8314 22.1797 35.9733 22.8538V22.8498Z" fill="#3478F6"/>
</g>
</svg>
