<svg preserveAspectRatio="none" width="100%" height="100%" overflow="visible" style="display: block;" viewBox="0 0 942.072 1317.45" fill="none" xmlns="http://www.w3.org/2000/svg">
<path id="Vector" opacity="0.2" d="M660.435 62.7725C622.785 122.545 589.555 185.704 561.191 251.692C557.666 259.663 566.498 267.591 574.018 263.316L574.019 263.317C652.687 219.345 758.676 177.15 906.906 144.369L930.756 252.746C780.726 286.065 679.802 328.748 607.896 372.305C600.911 376.496 602.649 386.704 610.263 388.943L610.271 388.945L610.28 388.948C726.309 422.018 837.933 481.608 938.919 565.481L867.59 650.677C801.685 595.925 704.531 531.583 582.086 496.353L582.07 496.348L582.056 496.344L581.669 496.246C573.564 494.377 567 503.565 572.17 510.56L574.726 514.018L574.821 513.729C648.268 616.075 692.466 730.408 716.799 880.104L607.085 897.966C585.45 765.527 546.963 664.905 482.117 575.463L480.571 573.341C475.836 566.792 465.631 569.101 464.11 577.007L464.108 577.019L464.105 577.03C420.484 817.812 431.206 1074.18 500.494 1315.21H385.171C322.179 1078.65 311.252 829.406 348.965 592.319L348.968 592.302L348.97 592.284C349.578 588.028 347.31 584.478 344.159 582.799C340.992 581.111 336.805 581.251 333.673 584.354C282.929 632.916 229.026 700.803 187.505 779.122L89.1035 727.425C142.593 626.172 219.335 531.582 295.666 469.306L295.669 469.304C302.223 463.94 298.603 453.144 290.084 453.103L289.693 453.108C195.34 455.634 118.298 482.719 48.7715 514.121L2.96191 412.85C89.0483 374.492 191.035 339.102 319.935 342.067C328.034 342.341 332.513 332.318 326.619 326.561L326.33 326.289C289.059 291.548 243.784 264.99 189.78 245.807L226.388 140.863C304.536 168.457 369.978 210.13 421.863 264.971V264.972C426.442 269.855 434.552 268.336 437 262.063L437.004 262.053C472.106 170.81 515.375 83.8887 566.579 3.08594L660.435 62.7725Z" fill="white" fill-opacity="0.4" stroke="white" stroke-width="4.46971"/>
</svg>
