<svg preserveAspectRatio="none" width="100%" height="100%" overflow="visible" style="display: block;" viewBox="0 0 26.6035 24" fill="none" xmlns="http://www.w3.org/2000/svg">
<path id="Vector" d="M12.3746 0C10.1111 0.0611025 8.31525 2.00576 8.31525 4.31968C8.31525 4.84569 8.73765 5.27075 9.26101 5.27341C9.26101 5.27341 9.26633 5.27341 9.26899 5.27341C9.795 5.27341 10.2174 4.84569 10.2174 4.32234C10.2174 2.94886 11.2455 1.90215 12.4808 1.90215C13.7162 1.90215 14.739 2.94886 14.739 4.32234C14.739 5.69582 13.7162 6.7505 12.4808 6.7505H0.951078C0.430379 6.7505 0.00531845 7.17556 0.00531845 7.69626C0.00531845 8.22227 0.427722 8.64733 0.951078 8.64999H12.4808C14.7948 8.64999 16.6411 6.67346 16.6411 4.32234C16.6411 1.97122 14.7948 0.00265669 12.4808 0.00265669C12.4437 0.00265669 12.4091 0.00265669 12.3719 0.00265669L12.3746 0ZM22.4405 4.3064C20.1266 4.3064 18.2803 6.27496 18.2803 8.62608C18.2803 9.15209 18.7027 9.57715 19.226 9.57981C19.752 9.57981 20.1771 9.1574 20.1798 8.63405C20.1798 8.63405 20.1798 8.62873 20.1798 8.62608C20.1798 7.2526 21.2026 6.20855 22.4379 6.20855C23.6732 6.20855 24.704 7.2526 24.704 8.62608C24.704 9.99956 23.6732 11.0542 22.4379 11.0542H0.94576C0.42506 11.0542 0 11.4793 0 12C0 12.526 0.422404 12.9511 0.94576 12.9537H22.4379C24.7518 12.9537 26.6035 10.9772 26.6035 8.62608C26.6035 6.27496 24.7518 4.3064 22.4379 4.3064H22.4405ZM0.951078 15.3527C0.425065 15.3527 0.00266182 15.783 0.00531845 16.3064C0.00531845 16.8271 0.430379 17.2522 0.951078 17.2522H14.3777C15.613 17.2522 16.6438 18.3068 16.6438 19.6803C16.6438 21.0538 15.613 22.1005 14.3777 22.1005C13.1423 22.1005 12.1195 21.0538 12.1195 19.6803C12.1195 19.1543 11.6971 18.7292 11.1738 18.7266C11.1738 18.7266 11.1685 18.7266 11.1658 18.7266C10.6398 18.7266 10.2174 19.157 10.22 19.6803C10.22 22.0314 12.0664 24 14.3803 24C16.6943 24 18.5459 22.0314 18.5459 19.6803C18.5459 17.3292 16.7235 15.3872 14.4361 15.3553C14.4175 15.3553 14.3989 15.3553 14.3777 15.3553H0.951078V15.3527Z" fill="#3478F6"/>
</svg>
