<svg preserveAspectRatio="none" width="100%" height="100%" overflow="visible" style="display: block;" viewBox="0 0 26.114 26.0931" fill="none" xmlns="http://www.w3.org/2000/svg">
<g id="Group 1437256202">
<path id="Vector" d="M21.4308 22.6001C22.1432 22.6001 22.7207 22.0226 22.7207 21.3103C22.7207 20.5979 22.1432 20.0204 21.4308 20.0204C20.7185 20.0204 20.141 20.5979 20.141 21.3103C20.141 22.0226 20.7185 22.6001 21.4308 22.6001Z" fill="#3478F6"/>
<path id="Vector_2" d="M25.0675 21.5275V21.5615C25.0675 22.5244 24.6776 23.393 24.0497 24.0262C23.4165 24.6567 22.5453 25.0466 21.5825 25.0466C20.4234 25.0466 19.3376 24.4683 18.6914 23.5029L13.3252 17.5559L13.0793 17.7207C12.1714 18.0504 11.3969 18.346 9.69366 18.346C4.91616 18.346 1.04655 14.4738 1.04655 9.69629C1.04655 8.47705 1.29772 7.318 1.75297 6.26622L6.92554 11.4362L11.3865 6.97525L6.19557 1.78437C7.26567 1.30819 8.44827 1.04655 9.69366 1.04655C14.4685 1.04655 18.3408 4.9214 18.3408 9.69629C18.3408 11.4205 18.1969 11.9438 17.4251 13.6208L17.2341 13.8694C19.7118 15.4942 21.9252 17.5977 23.4741 18.5972C24.4683 19.2408 25.0675 20.3423 25.0675 21.5275Z" stroke="#3478F6" stroke-width="2.0931" stroke-miterlimit="10"/>
</g>
</svg>
