<svg preserveAspectRatio="none" width="100%" height="100%" overflow="visible" style="display: block;" viewBox="0 0 24 24" fill="none" xmlns="http://www.w3.org/2000/svg">
<path id="Vector" d="M12.9627 24H11.0373C11.0373 19.1528 4.76294 13.0903 0 12.9627V11.0373C4.84717 11.0373 10.5247 4.90253 11.0373 0H12.9627C13.3478 4.7846 19.071 10.7846 24 11.0373V12.9627C19.1095 13.1312 12.9627 19.1504 12.9627 24ZM5.40553 12.71C7.75691 14.1059 9.89411 16.2431 11.29 18.5945C11.6077 19.1312 12.3875 19.1312 12.7076 18.5945C14.1035 16.2431 16.2407 14.1059 18.5921 12.71C19.1288 12.3923 19.1288 11.6125 18.5921 11.2924C16.2407 9.89651 14.1035 7.75933 12.7076 5.40794C12.3899 4.87124 11.6101 4.87124 11.29 5.40794C9.89411 7.75933 7.75691 9.89651 5.40553 11.2924C4.86882 11.6101 4.86882 12.3899 5.40553 12.71Z" fill="#3478F6"/>
</svg>
