<svg preserveAspectRatio="none" width="100%" height="100%" overflow="visible" style="display: block;" viewBox="0 0 24.0962 24.0001" fill="none" xmlns="http://www.w3.org/2000/svg">
<g id="Group">
<path id="Vector" d="M19.3708 7.36963C17.5326 7.36963 15.9464 8.44232 15.2072 9.99736C14.9145 10.6093 14.2761 10.9813 13.597 10.9813H0.465552C0.208779 10.9813 0 11.19 0 11.4468V12.4379C0 12.6947 0.208779 12.9035 0.465552 12.9035H13.5586C14.2473 12.9035 14.8905 13.2874 15.1784 13.9138C15.9704 15.632 17.7894 16.7815 19.8508 16.5727C21.9817 16.3567 23.7144 14.6433 23.9519 12.5147C24.2615 9.72859 22.0897 7.37443 19.3684 7.37443L19.3708 7.36963ZM19.3708 14.6745C17.8854 14.6745 16.6783 13.465 16.6783 11.982C16.6783 10.4989 17.8854 9.28944 19.3708 9.28944C20.8563 9.28944 22.0633 10.4965 22.0633 11.982C22.0633 13.4674 20.8539 14.6745 19.3708 14.6745Z" fill="#3478F6"/>
<path id="Vector_2" d="M8.75915 2.63734C7.96244 0.94071 6.15302 -0.189574 4.11083 0.0264039C2.06864 0.242382 0.288025 1.95821 0.0600484 4.06759C-0.239921 6.82731 1.91506 9.15987 4.61238 9.15987C6.43859 9.15987 8.01523 8.08958 8.74956 6.54413C9.03993 5.9298 9.67826 5.55784 10.3574 5.55784H23.6304C23.8872 5.55784 24.096 5.34906 24.096 5.09228V4.10119C24.096 3.84441 23.8896 3.63563 23.6328 3.63563C21.6146 3.63563 13.5347 3.63563 10.3718 3.63563C9.68786 3.63563 9.04952 3.25407 8.75915 2.63494V2.63734ZM4.61238 7.24006C3.14613 7.24006 1.95105 6.04739 1.95105 4.58114C1.95105 3.11489 3.14613 1.91981 4.61238 1.91981C6.07863 1.91981 7.27131 3.11249 7.27131 4.58114C7.27131 6.04979 6.07863 7.24006 4.61238 7.24006Z" fill="#3478F6"/>
<path id="Vector_3" d="M13.8874 18.4758C13.1986 18.4758 12.5531 18.0918 12.2651 17.4655C11.538 15.872 9.93018 14.7657 8.06317 14.7657C6.19616 14.7657 4.64592 15.836 3.902 17.3863C3.60923 17.9982 2.9685 18.3678 2.29176 18.3678H0.525546C0.268772 18.3678 0.0599938 18.5766 0.0599938 18.8333V19.8244C0.0599938 20.0812 0.268772 20.29 0.525546 20.29H2.24377C2.9325 20.29 3.57803 20.6739 3.8636 21.2979C4.59073 22.8913 6.19856 24 8.06317 24C9.92778 24 11.4828 22.9297 12.2267 21.3795C12.5195 20.7675 13.1602 20.398 13.837 20.398H23.5488C23.8056 20.398 24.0143 20.1892 24.0143 19.9324V18.9413C24.0143 18.6845 23.8056 18.4758 23.5488 18.4758H13.885H13.8874ZM8.06317 22.0778C6.57773 22.0778 5.36825 20.8683 5.36825 19.3829C5.36825 17.8974 6.57773 16.6856 8.06317 16.6856C9.54862 16.6856 10.7605 17.895 10.7605 19.3829C10.7605 20.8707 9.55102 22.0778 8.06317 22.0778Z" fill="#3478F6"/>
</g>
</svg>
